<svg width="80" height="83" viewBox="0 0 80 83" fill="none" xmlns="http://www.w3.org/2000/svg">
<path d="M65.4033 18.5204C60.6416 16.3477 55.5846 14.7642 50.306 13.8804C49.6416 15.022 48.9032 16.5687 48.3863 17.7839C42.7721 16.9737 37.1981 16.9737 31.6613 17.7839C31.1445 16.5687 30.3693 15.022 29.7417 13.8804C24.4264 14.7642 19.3693 16.3477 14.6408 18.5204C5.08035 32.588 2.49646 46.324 3.78842 59.876C10.1374 64.4795 16.265 67.2781 22.2855 69.1197C23.762 67.131 25.0909 64.9948 26.2352 62.7486C24.0573 61.9383 21.9902 60.9441 19.9969 59.7657C20.5137 59.3975 21.0305 58.9926 21.5104 58.5872C33.5439 64.0745 46.578 64.0745 58.4635 58.5872C58.9804 58.9926 59.4604 59.3975 59.9773 59.7657C57.9839 60.9441 55.9167 61.9383 53.739 62.7486C54.8834 64.9948 56.212 67.131 57.6886 69.1197C63.7053 67.2781 69.8698 64.4795 76.1856 59.876C77.7727 44.1885 73.6719 30.5627 65.4033 18.5204ZM27.8962 51.5166C24.2787 51.5166 21.3257 48.2391 21.3257 44.2253C21.3257 40.2111 24.2049 36.9336 27.8962 36.9336C31.5505 36.9336 34.5404 40.2111 34.4667 44.2253C34.4667 48.2391 31.5505 51.5166 27.8962 51.5166ZM52.1519 51.5166C48.5341 51.5166 45.5773 48.2391 45.5773 44.2253C45.5773 40.2111 48.4604 36.9336 52.1519 36.9336C55.8061 36.9336 58.796 40.2111 58.722 44.2253C58.722 48.2391 55.843 51.5166 52.1519 51.5166Z" fill="white"/>
</svg>
