<svg width="80" height="80" viewBox="0 0 80 80" fill="none" xmlns="http://www.w3.org/2000/svg">
<path d="M10.2115 25.0305C15.6963 14.1364 26.9688 6.66667 39.9994 6.66667C48.984 6.66667 56.5294 9.96983 62.3024 15.3485L52.7417 24.9091C49.2873 21.6062 44.893 19.9242 39.9994 19.9242C31.3174 19.9242 23.9688 25.7879 21.3478 33.6667C20.681 35.6667 20.3022 37.803 20.3022 40C20.3022 42.197 20.681 44.3333 21.3478 46.3333C23.9688 54.212 31.3174 60.0757 39.9994 60.0757C44.484 60.0757 48.3024 58.894 51.2874 56.894C54.8174 54.5303 57.166 51 57.9387 46.8333H39.9994V33.9393H71.393C71.7874 36.121 71.9994 38.394 71.9994 40.7577C71.9994 50.909 68.363 59.4543 62.0597 65.2577C56.5447 70.3487 48.9994 73.3333 39.9994 73.3333C26.9688 73.3333 15.6963 65.8637 10.2115 54.9697C7.95395 50.4697 6.66602 45.3787 6.66602 40C6.66602 34.6213 7.95395 29.5304 10.2115 25.0305Z" fill="white"/>
</svg>
