<svg width="80" height="79" viewBox="0 0 80 79" fill="none" xmlns="http://www.w3.org/2000/svg">
<path d="M43.4241 6.5835C47.1756 6.58962 49.0766 6.60924 50.7193 6.65753L51.3663 6.6784C52.1137 6.70463 52.8511 6.73755 53.7401 6.7787C57.2872 6.94055 59.7069 7.49466 61.832 8.30937C64.029 9.14604 65.8848 10.2762 67.7375 12.1059C69.5875 13.9356 70.7322 15.7734 71.5823 17.9378C72.4043 20.0336 72.9656 22.4256 73.1323 25.9286C73.172 26.8064 73.204 27.5345 73.2303 28.2726L73.2513 28.9115C73.3 30.5335 73.3223 32.4111 73.3293 36.1158L73.332 38.5702C73.3323 38.87 73.3323 39.1795 73.3323 39.4988L73.332 40.4274L73.33 42.882C73.3236 46.5866 73.304 48.4642 73.255 50.0861L73.2336 50.725C73.2073 51.4633 73.174 52.1915 73.1323 53.0691C72.9683 56.5722 72.4043 58.9613 71.5823 61.0598C70.7349 63.2298 69.5875 65.0623 67.7375 66.8919C65.8848 68.7188 64.0207 69.8489 61.832 70.6883C59.7069 71.5003 57.2872 72.0543 53.7401 72.2189C52.8511 72.2581 52.1137 72.29 51.3663 72.3157L50.7193 72.3364C49.0766 72.3848 47.1756 72.4066 43.4241 72.4138L40.9384 72.4164C40.6347 72.4164 40.3214 72.4164 39.998 72.4164H39.0577L36.5719 72.4141C32.8205 72.4082 30.9192 72.3885 29.2766 72.3401L28.6297 72.3193C27.8822 72.293 27.1448 72.2601 26.2559 72.2189C22.7086 72.0573 20.2918 71.5003 18.164 70.6883C15.9695 69.8518 14.1111 68.7188 12.2583 66.8919C10.4055 65.0623 9.26376 63.2215 8.41373 61.0598C7.58871 58.9613 7.03036 56.5722 6.86369 53.0691C6.82409 52.1915 6.79179 51.4633 6.76562 50.725L6.74465 50.0861C6.69588 48.4642 6.67365 46.5866 6.66645 42.882L6.66602 36.1158C6.67222 32.4111 6.69205 30.5335 6.74095 28.9115L6.76212 28.2726C6.78869 27.5345 6.82202 26.8064 6.86369 25.9286C7.02756 22.4228 7.58871 20.0363 8.41373 17.9378C9.26096 15.7707 10.4055 13.9356 12.2583 12.1059C14.1111 10.2762 15.9723 9.14877 18.164 8.30937C20.2891 7.49466 22.7058 6.94329 26.2559 6.7787C27.1448 6.73962 27.8822 6.70773 28.6297 6.68189L29.2766 6.66118C30.9192 6.61299 32.8205 6.59103 36.5719 6.58392L43.4241 6.5835ZM39.998 23.04C30.788 23.04 23.3308 30.412 23.3308 39.4988C23.3308 48.5936 30.7961 55.9576 39.998 55.9576C49.208 55.9576 56.6652 48.5857 56.6652 39.4988C56.6652 30.404 49.1996 23.04 39.998 23.04ZM39.998 29.6236C45.5212 29.6236 49.9983 34.0433 49.9983 39.4988C49.9983 44.9529 45.5225 49.3741 39.998 49.3741C34.4749 49.3741 29.9977 44.9545 29.9977 39.4988C29.9977 34.0446 34.4732 29.6236 39.998 29.6236ZM57.4985 18.1024C55.2008 18.1024 53.3317 19.9455 53.3317 22.2143C53.3317 24.4831 55.1981 26.3291 57.4985 26.3291C59.7959 26.3291 61.6653 24.486 61.6653 22.2143C61.6653 19.9455 59.7929 18.0995 57.4985 18.1024Z" fill="white"/>
</svg>
