<svg width="80" height="80" viewBox="0 0 80 80" fill="none" xmlns="http://www.w3.org/2000/svg">
<path d="M73.3346 39.9998C73.3346 58.4092 58.4106 73.3332 40.0013 73.3332C21.5918 73.3332 6.66797 58.4092 6.66797 39.9998C6.66797 21.5903 21.5918 6.6665 40.0013 6.6665C58.4106 6.6665 73.3346 21.5903 73.3346 39.9998ZM41.196 31.2747C37.9536 32.6232 31.474 35.4145 21.7566 39.6482C20.1787 40.2755 19.3521 40.8895 19.2768 41.4895C19.1497 42.5042 20.42 42.9035 22.1499 43.4475C22.3852 43.5215 22.629 43.5982 22.879 43.6795C24.5809 44.2325 26.8703 44.8798 28.0605 44.9055C29.1401 44.9288 30.3451 44.4838 31.6754 43.5702C40.7546 37.4415 45.4413 34.3438 45.7356 34.2772C45.9433 34.2298 46.231 34.1708 46.4256 34.3438C46.6206 34.5172 46.6013 34.8452 46.581 34.9332C46.455 35.4698 41.4683 40.1058 38.888 42.5048C38.1183 43.2202 37.3683 43.9508 36.6123 44.6795C35.0313 46.2035 33.8456 47.3465 36.678 49.2132C39.5493 51.1055 42.4423 52.9938 45.2426 54.9902C46.6236 55.9748 47.8646 56.8595 49.3973 56.7185C50.2883 56.6365 51.2083 55.7988 51.6753 53.3008C52.7796 47.3975 54.9503 34.6068 55.452 29.3359C55.496 28.8742 55.4406 28.2832 55.3963 28.0237C55.352 27.7643 55.259 27.3946 54.922 27.121C54.5223 26.7969 53.906 26.7286 53.6303 26.7335C52.3763 26.7556 50.453 27.4244 41.196 31.2747Z" fill="white"/>
</svg>
