<svg width="80" height="80" viewBox="0 0 80 80" fill="none" xmlns="http://www.w3.org/2000/svg">
<path d="M14.2 14.2C10 18.44 10 25.22 10 38.8V41.2C10 54.76 10 61.54 14.2 65.8C18.44 70 25.22 70 38.8 70H41.2C54.76 70 61.54 70 65.8 65.8C70 61.56 70 54.78 70 41.2V38.8C70 25.24 70 18.46 65.8 14.2C61.56 10 54.78 10 41.2 10H38.8C25.24 10 18.46 10 14.2 14.2ZM20.1204 28.2606H27.0004C27.2204 39.7007 32.2604 44.5407 36.2603 45.5407V28.2606H42.7203V38.1207C46.6603 37.7007 50.8203 33.2006 52.2203 28.2406H58.6603C58.1353 30.8081 57.0863 33.2398 55.579 35.3837C54.072 37.5273 52.1387 39.3373 49.9003 40.7007C52.3983 41.9437 54.6043 43.7023 56.3727 45.8607C58.1413 48.0187 59.4323 50.527 60.1603 53.2207H53.0603C51.5403 48.4807 47.7403 44.8007 42.7203 44.3007V53.2207H41.9403H41.9203C28.2404 53.2207 20.4404 43.8607 20.1204 28.2606Z" fill="white"/>
</svg>
