<svg width="700" height="644" viewBox="0 0 700 644" fill="none" xmlns="http://www.w3.org/2000/svg">
<path d="M53.0371 471.763L65.3868 425.817C66.181 422.843 69.0931 421.11 71.886 421.927L349.986 503.939L331.627 551.04" stroke="#2B0263" stroke-width="15" stroke-miterlimit="10" stroke-linecap="round"/>
<path d="M646.658 470.72L634.599 425.817C633.805 422.843 630.893 421.11 628.1 421.927L594.982 431.694L550.349 444.858L350 503.939L368.121 550.434" stroke="#2B0263" stroke-width="15" stroke-linecap="round" stroke-linejoin="round"/>
<path d="M105.07 530.942L299.449 583.808C306.266 606.471 326.346 622.932 350 622.932C373.653 622.932 393.733 606.471 400.55 583.808L663.984 512.155C674.626 509.266 681.033 497.794 678.293 486.533C675.553 475.272 664.712 468.493 654.083 471.382L378.194 546.417C369.404 548.813 363.263 557.199 363.263 566.797C363.263 574.534 357.32 580.82 350 580.82C342.68 580.82 336.737 574.52 336.737 566.797C336.737 557.185 330.595 548.799 321.806 546.417L45.9163 471.382C35.2741 468.493 24.4333 475.272 21.7066 486.533C18.9666 497.794 25.3864 509.266 36.0153 512.155L59.5764 518.568L105.084 530.942H105.07Z" stroke="#2B0263" stroke-width="14" stroke-linecap="square" stroke-linejoin="round"/>
<path d="M421.565 61.1817L372.511 57.8274C369.85 57.6441 367.296 56.6576 365.151 54.9663L325.547 23.9742C316.666 17.026 304.091 23.2695 303.376 34.9814L300.226 87.2128C300.054 90.0457 299.127 92.7658 297.552 95.0489L268.432 137.217C261.906 146.674 267.77 160.063 278.769 160.824L327.824 164.179C330.485 164.362 333.039 165.349 335.184 167.026L374.787 198.032C383.669 204.98 396.244 198.737 396.959 187.025L400.109 134.793C400.281 131.96 401.208 129.24 402.783 126.957L431.903 84.7887C438.429 75.3318 432.565 61.9427 421.565 61.1817Z" fill="#2B0263"/>
<path d="M334.261 502.388C334.341 502.276 334.407 502.163 334.46 502.05C345.539 480.769 341.356 460.431 324.426 447.38C308.873 435.387 291.348 433.174 277.423 416.163C253.651 387.102 273.823 353.446 298.999 339.606C299.926 339.098 306.689 334.955 306.689 338.069C306.689 338.929 299.131 348.865 297.794 351.458C287.536 371.345 292.05 389.568 307.96 400.899C315.611 406.354 324.784 409.243 332.739 414.317C356.022 429.171 373.587 457.81 354.328 488.393C349.96 495.327 343.937 502.036 337.372 506.898C335.002 508.66 332.487 504.982 334.261 502.374V502.388Z" fill="#2B0263"/>
<path d="M375.03 319.579C385.553 313.152 398.379 308.952 409.339 302.863C441.438 284.993 464.588 254.776 435.375 228.434C428.757 222.459 419.796 216.962 410.186 213.312C406.718 212.001 403.369 215.905 406.056 218.132C406.162 218.23 406.268 218.329 406.361 218.428C423.383 237.116 418.724 257.284 395.507 272.435C374.183 286.36 349.47 291.208 330.78 309.699C326.809 313.617 323.818 317.507 321.673 321.326C321.25 321.002 320.826 320.678 320.416 320.34C290.501 296.465 285.021 263.006 307.92 230.633C308.053 230.45 308.185 230.281 308.331 230.126C311.918 226.222 307.669 219.894 303.076 222.318C290.369 229.04 278.443 238.821 269.587 249.251C230.487 295.211 259.845 344.313 301.329 372.176C315.492 381.676 332.17 387.891 345.751 397.968C373.958 418.911 380.271 449.016 359.053 479.303C356.274 483.263 341.171 497.977 341.078 499.358C340.734 504.376 353.719 498.865 355.493 498.203C403.7 480.191 444.839 429.425 404.031 378.603C389.841 360.93 372.713 351.445 355.374 342.058C357.597 333.841 364.308 326.132 375.017 319.593L375.03 319.579Z" fill="#2B0263"/>
<path d="M443.264 330.938L430.028 321.524C429.313 321.016 428.744 320.297 428.4 319.452L422.033 303.92C420.603 300.439 416.129 300.016 414.144 303.173L405.302 317.267C404.825 318.028 404.15 318.634 403.356 319.001L388.769 325.78C385.5 327.302 385.103 332.066 388.068 334.18L401.304 343.594C402.019 344.102 402.588 344.82 402.932 345.666L409.299 361.197C410.729 364.679 415.203 365.101 417.188 361.944L426.03 347.851C426.507 347.09 427.182 346.484 427.976 346.117L442.563 339.338C445.832 337.816 446.229 333.052 443.264 330.938Z" fill="#2B0263"/>
<path d="M222.359 387.679L210.182 383.649C209.52 383.423 208.938 383.014 208.488 382.451L200.281 372.064C198.441 369.738 194.907 370.499 194.06 373.402L190.274 386.369C190.062 387.073 189.678 387.694 189.149 388.173L179.394 396.911C177.21 398.87 177.924 402.633 180.651 403.535L192.829 407.566C193.491 407.777 194.073 408.2 194.523 408.764L202.73 419.151C204.57 421.476 208.104 420.715 208.951 417.812L212.736 404.846C212.935 404.141 213.332 403.521 213.862 403.042L223.617 394.303C225.801 392.344 225.086 388.581 222.359 387.679Z" fill="#2B0263"/>
<path d="M157.58 292.223L139.645 280.285C138.665 279.637 137.897 278.707 137.408 277.607L128.354 257.256C126.329 252.69 120.359 252.323 117.844 256.608L106.633 275.705C106.024 276.748 105.15 277.565 104.118 278.086L85.0042 287.727C80.7155 289.883 80.3714 296.239 84.3953 298.917L102.331 310.854C103.31 311.503 104.078 312.433 104.568 313.532L113.622 333.884C115.647 338.45 121.616 338.816 124.131 334.532L135.343 315.435C135.952 314.392 136.825 313.575 137.858 313.053L156.971 303.413C161.26 301.257 161.604 294.9 157.58 292.223Z" fill="#2B0263"/>
<path d="M549.964 392.133L531.367 379.759C530.361 379.082 529.553 378.124 529.037 376.982L519.652 355.884C517.548 351.149 511.366 350.768 508.758 355.208L497.137 375.009C496.501 376.08 495.601 376.94 494.529 377.49L474.714 387.482C470.267 389.723 469.909 396.305 474.079 399.081L492.676 411.456C493.682 412.132 494.489 413.091 495.006 414.232L504.39 435.331C506.495 440.066 512.677 440.447 515.284 436.007L526.906 416.205C527.541 415.134 528.441 414.274 529.513 413.725L549.329 403.732C553.776 401.491 554.133 394.91 549.964 392.133Z" fill="#2B0263"/>
<path d="M532.558 240.484L525.304 235.65C524.907 235.382 524.589 235.016 524.391 234.565L520.724 226.334C519.904 224.488 517.495 224.333 516.475 226.066L511.935 233.79C511.684 234.213 511.34 234.551 510.916 234.762L503.186 238.666C501.452 239.54 501.306 242.105 502.934 243.19L510.188 248.025C510.585 248.292 510.903 248.659 511.101 249.11L514.768 257.355C515.589 259.201 517.998 259.356 519.017 257.622L523.557 249.885C523.808 249.462 524.153 249.124 524.576 248.912L532.306 245.008C534.04 244.135 534.186 241.57 532.558 240.484Z" fill="#2B0263"/>
<path d="M238.417 217.709L230.051 215.764C229.601 215.665 229.178 215.412 228.847 215.073L222.784 208.633C221.421 207.195 219.105 207.914 218.694 209.915L216.868 218.822C216.775 219.301 216.537 219.752 216.219 220.105L210.17 226.56C208.82 228.011 209.495 230.478 211.375 230.915L219.74 232.86C220.19 232.958 220.614 233.212 220.945 233.55L227.007 239.991C228.37 241.429 230.687 240.71 231.097 238.709L232.924 229.801C233.016 229.322 233.255 228.871 233.572 228.519L239.621 222.064C240.971 220.612 240.296 218.146 238.417 217.709Z" fill="#2B0263"/>
</svg>
