<svg width="64" height="64" viewBox="0 0 64 64" fill="none" xmlns="http://www.w3.org/2000/svg">
<rect width="64" height="64" rx="32" fill="white"/>
<path d="M10.7891 42.7002L11.6712 39.4175C11.7279 39.205 11.9359 39.0812 12.1354 39.1396L31.9997 44.9991L30.6883 48.3644" stroke="#2B0263" stroke-miterlimit="10" stroke-linecap="round"/>
<path d="M53.1898 42.6257L52.3285 39.4175C52.2718 39.205 52.0638 39.0812 51.8643 39.1396L49.4987 39.8374L46.3106 40.7779L32 44.9991L33.2943 48.3211" stroke="#2B0263" stroke-linecap="round" stroke-linejoin="round"/>
<path d="M14.5056 46.9285L28.3898 50.7057C28.8767 52.3249 30.311 53.501 32.0005 53.501C33.6901 53.501 35.1244 52.3249 35.6113 50.7057L54.428 45.5862C55.1881 45.3798 55.6458 44.5601 55.45 43.7556C55.2543 42.951 54.48 42.4666 53.7208 42.6731L34.0144 48.0342C33.3866 48.2054 32.9479 48.8045 32.9479 49.4903C32.9479 50.0431 32.5234 50.4922 32.0005 50.4922C31.4777 50.4922 31.0532 50.0421 31.0532 49.4903C31.0532 48.8035 30.6145 48.2044 29.9867 48.0342L10.2803 42.6731C9.52013 42.4666 8.7458 42.951 8.55103 43.7556C8.35532 44.5601 8.81387 45.3798 9.57308 45.5862L11.256 46.0444L14.5065 46.9285H14.5056Z" stroke="#2B0263" stroke-linecap="square" stroke-linejoin="round"/>
<path d="M37.1115 13.365L33.6076 13.1253C33.4176 13.1123 33.2351 13.0418 33.082 12.9209L30.2531 10.7066C29.6187 10.2102 28.7205 10.6562 28.6694 11.493L28.4444 15.2249C28.4321 15.4273 28.366 15.6216 28.2534 15.7848L26.1734 18.7976C25.7073 19.4733 26.1261 20.4299 26.9118 20.4843L30.4157 20.7239C30.6058 20.737 30.7882 20.8075 30.9414 20.9274L33.7703 23.1427C34.4047 23.6391 35.3029 23.193 35.3539 22.3562L35.5789 18.6244C35.5912 18.422 35.6574 18.2277 35.7699 18.0645L37.8499 15.0517C38.3161 14.376 37.8972 13.4194 37.1115 13.365Z" fill="#2B0263"/>
<path d="M30.8757 44.8884C30.8813 44.8803 30.8861 44.8722 30.8898 44.8642C31.6812 43.3437 31.3824 41.8906 30.1732 40.9582C29.0623 40.1012 27.8105 39.9431 26.8158 38.7277C25.1178 36.6513 26.5587 34.2467 28.3569 33.2578C28.4231 33.2216 28.9062 32.9255 28.9062 33.1481C28.9062 33.2095 28.3664 33.9194 28.2709 34.1047C27.5382 35.5255 27.8606 36.8276 28.997 37.6372C29.5435 38.0269 30.1987 38.2333 30.7669 38.5958C32.43 39.6571 33.6846 41.7033 32.309 43.8884C31.997 44.3839 31.5668 44.8632 31.0978 45.2106C30.9286 45.3365 30.749 45.0736 30.8757 44.8874V44.8884Z" fill="#2B0263"/>
<path d="M33.789 31.827C34.5406 31.3678 35.4568 31.0677 36.2396 30.6327C38.5324 29.3559 40.186 27.1969 38.0993 25.3149C37.6266 24.8879 36.9865 24.4952 36.3001 24.2344C36.0524 24.1408 35.8132 24.4197 36.0051 24.5788C36.0127 24.5858 36.0203 24.5929 36.0269 24.5999C37.2428 25.9352 36.91 27.3762 35.2516 28.4587C33.7284 29.4535 31.9633 29.7999 30.6283 31.1211C30.3446 31.401 30.1309 31.679 29.9778 31.9518C29.9475 31.9287 29.9173 31.9055 29.888 31.8814C27.7512 30.1755 27.3598 27.785 28.9954 25.472C29.0049 25.4589 29.0143 25.4468 29.0247 25.4357C29.281 25.1568 28.9775 24.7047 28.6494 24.8779C27.7417 25.3582 26.8899 26.057 26.2574 26.8022C23.4644 30.0859 25.5615 33.5942 28.5246 35.585C29.5362 36.2637 30.7275 36.7078 31.6976 37.4278C33.7124 38.9241 34.1634 41.075 32.6478 43.239C32.4492 43.5219 31.3705 44.5732 31.3638 44.6719C31.3393 45.0304 32.2668 44.6367 32.3934 44.5893C35.8368 43.3024 38.7754 39.6753 35.8605 36.0442C34.8469 34.7814 33.6235 34.1037 32.3849 33.4331C32.5438 32.846 33.0231 32.2952 33.788 31.828L33.789 31.827Z" fill="#2B0263"/>
<path d="M38.662 32.6386L37.7165 31.9659C37.6655 31.9297 37.6248 31.8783 37.6002 31.8179L37.1455 30.7082C37.0434 30.4595 36.7238 30.4293 36.582 30.6549L35.9504 31.6618C35.9164 31.7162 35.8681 31.7595 35.8114 31.7857L34.7695 32.2701C34.536 32.3788 34.5076 32.7192 34.7194 32.8702L35.6649 33.5429C35.7159 33.5791 35.7566 33.6305 35.7812 33.6909L36.2359 34.8006C36.338 35.0493 36.6576 35.0795 36.7994 34.8539L37.431 33.847C37.465 33.7926 37.5133 33.7493 37.57 33.7231L38.6119 33.2388C38.8454 33.13 38.8738 32.7896 38.662 32.6386Z" fill="#2B0263"/>
<path d="M22.8835 36.6926L22.0137 36.4046C21.9664 36.3885 21.9248 36.3593 21.8927 36.319L21.3065 35.5769C21.1751 35.4108 20.9226 35.4651 20.8621 35.6726L20.5917 36.599C20.5766 36.6493 20.5492 36.6936 20.5113 36.7279L19.8145 37.3522C19.6585 37.4922 19.7096 37.761 19.9043 37.8255L20.7742 38.1135C20.8215 38.1286 20.8631 38.1588 20.8952 38.1991L21.4814 38.9412C21.6128 39.1074 21.8652 39.053 21.9258 38.8455L22.1962 37.9191C22.2103 37.8688 22.2387 37.8245 22.2765 37.7902L22.9733 37.1659C23.1293 37.0259 23.0783 36.7571 22.8835 36.6926Z" fill="#2B0263"/>
<path d="M18.2553 29.8724L16.9742 29.0195C16.9042 28.9732 16.8494 28.9067 16.8144 28.8282L16.1677 27.3741C16.0231 27.0479 15.5967 27.0217 15.417 27.3278L14.6162 28.6922C14.5727 28.7668 14.5103 28.8252 14.4366 28.8624L13.0713 29.5512C12.765 29.7053 12.7404 30.1594 13.0278 30.3507L14.3089 31.2036C14.3789 31.25 14.4337 31.3164 14.4687 31.395L15.1154 32.849C15.2601 33.1753 15.6865 33.2015 15.8661 32.8953L16.6669 31.5309C16.7104 31.4564 16.7728 31.398 16.8466 31.3607L18.2118 30.6719C18.5182 30.5179 18.5427 30.0637 18.2553 29.8724Z" fill="#2B0263"/>
<path d="M46.2836 37.0108L44.9552 36.1267C44.8833 36.0784 44.8256 36.0099 44.7888 35.9283L44.1184 34.4209C43.9681 34.0826 43.5266 34.0554 43.3403 34.3726L42.5102 35.7874C42.4648 35.8639 42.4005 35.9253 42.3239 35.9646L40.9086 36.6785C40.5909 36.8386 40.5654 37.3089 40.8632 37.5073L42.1916 38.3914C42.2634 38.4397 42.3211 38.5082 42.358 38.5898L43.0283 40.0972C43.1786 40.4355 43.6202 40.4627 43.8064 40.1455L44.6365 38.7307C44.6819 38.6542 44.7462 38.5928 44.8228 38.5535L46.2382 37.8396C46.5558 37.6795 46.5814 37.2092 46.2836 37.0108Z" fill="#2B0263"/>
<path d="M45.0411 26.1758L44.523 25.8304C44.4946 25.8113 44.4719 25.7851 44.4577 25.7529L44.1958 25.1648C44.1372 25.0329 43.9652 25.0218 43.8924 25.1457L43.5681 25.6975C43.5501 25.7277 43.5255 25.7519 43.4953 25.767L42.9431 26.0459C42.8192 26.1084 42.8088 26.2916 42.9251 26.3692L43.4433 26.7146C43.4716 26.7337 43.4943 26.7599 43.5085 26.7921L43.7704 27.3812C43.829 27.5131 44.0011 27.5242 44.0739 27.4003L44.3982 26.8475C44.4161 26.8173 44.4407 26.7931 44.471 26.778L45.0231 26.4991C45.147 26.4366 45.1574 26.2534 45.0411 26.1758Z" fill="#2B0263"/>
<path d="M24.0312 24.5486L23.4336 24.4096C23.4015 24.4025 23.3712 24.3844 23.3476 24.3603L22.9146 23.9001C22.8172 23.7974 22.6517 23.8487 22.6224 23.9917L22.4919 24.6281C22.4853 24.6623 22.4683 24.6946 22.4456 24.7197L22.0135 25.1809C21.9171 25.2847 21.9653 25.4609 22.0996 25.4921L22.6971 25.6311C22.7293 25.6381 22.7595 25.6562 22.7831 25.6804L23.2162 26.1406C23.3136 26.2433 23.479 26.1919 23.5083 26.0489L23.6388 25.4125C23.6454 25.3783 23.6624 25.3461 23.6851 25.3209L24.1172 24.8597C24.2136 24.756 24.1654 24.5798 24.0312 24.5486Z" fill="#2B0263"/>
</svg>
