<svg width="480" height="480" viewBox="0 0 480 480" fill="none" xmlns="http://www.w3.org/2000/svg">
<path d="M0 0H173.292C180.246 5.14458 185.993 11.6318 187.362 20.4674C187.671 22.468 187.749 24.4095 187.569 26.4249C187.141 28.2405 186.774 30.1049 186.16 31.8671C183.344 26.7178 180.539 21.8735 176.411 17.6509C176.54 18.4087 180.689 23.7169 181.531 25.1096C183.218 27.8999 184.588 30.9238 185.801 33.9495C188.58 41.272 190.257 51.0764 186.974 58.523C185.71 61.3898 183.356 63.9815 180.402 65.1576C180.221 65.2298 180.053 65.2715 179.864 65.3259C178.319 58.927 176.151 53.4478 172.945 47.7066C172.779 48.4945 176.051 55.4114 176.565 56.8926C177.596 59.8622 178.269 62.879 178.901 65.9503C179.654 71.9808 179.106 78.06 175.59 83.2186C173.876 85.7325 171.639 87.4762 168.611 88.0397L168.395 88.0786L168.316 88.3579C168.927 88.7433 169.604 88.8745 170.315 88.747C172.956 88.2722 175.405 85.6833 176.829 83.5017C180.009 78.6286 181.102 72.3262 179.947 66.6483C180.313 66.5044 180.674 66.353 181.034 66.1936C184.547 64.6448 187.096 61.6865 188.422 58.1231C191.311 50.3611 189.816 40.0653 186.472 32.6855C188.942 29.2005 189.074 25.1317 188.628 21.032C187.812 12.3351 181.609 5.34506 175.246 0H480V23.1808L345.463 191.545C351.894 187.433 359.759 185.609 367.296 187.232C373.484 188.564 379.346 192.147 384.926 195.056L399.751 202.803L439.238 223.318L464.524 236.481C469.687 239.166 475.045 241.741 480 244.788V302.085L424.7 269.539L422.967 268.657C414.16 263.403 405.326 258.194 396.465 253.03L396.01 252.786C391.356 250.142 386.777 247.367 382.147 244.682C377.861 242.198 373.501 239.82 369.319 237.164C368.805 236.777 368.188 236.452 367.64 236.111L356.728 229.772C348.042 235.759 339.873 242.669 331.5 249.092L277.723 290.375C221.314 333.18 165.282 376.481 109.634 420.271L151.008 458.568L165.691 472.181C168.531 474.811 171.303 477.591 174.327 480H95.9976C87.2854 471.389 78.6197 462.729 70.0008 454.023C65.8054 449.76 61.2131 445.528 57.4504 440.897C53.985 436.664 52.4011 431.199 53.0658 425.77C53.6269 420.929 55.9045 416.048 59.1117 412.403C62.2022 408.891 66.2779 406.227 69.9876 403.406L83.3109 393.216L128.648 357.989C127.588 353.561 127.457 349.466 127.525 344.944C118.037 349.088 108.933 354.64 99.9398 359.77C65.625 379.344 27.1631 404.186 0 432.97V252.278C13.7602 257.178 27.591 260.251 42.2993 259.35C48.1697 258.99 54.1111 258.165 59.7033 256.305C78.2193 250.145 93.9525 233.999 106.578 219.735C106.373 219.782 106.168 219.827 105.963 219.871C103.622 220.376 96.5451 221.277 94.6382 219.817C94.3898 219.627 94.3378 219.312 94.4001 219.008C94.4085 218.967 94.6636 218.308 94.7287 218.253C94.8496 218.15 99.6946 218.369 100.209 218.356C102.562 218.299 105.891 218.007 107.995 216.891C110.119 215.765 112.021 212.718 113.465 210.823C121.598 200.147 130.071 187.018 133.867 174.037C134.802 170.84 135.872 166.265 134.099 163.202C131.661 158.988 125.234 156.51 120.807 155.219C125 145.153 128.834 135.012 132.567 124.766C133.485 122.246 138.332 107.577 138.905 106.807C138.997 106.832 139.088 106.865 139.182 106.884C144.765 108.05 148.423 104.24 152.511 101.607C153.045 102.003 153.611 102.47 154.228 102.721C155.418 103.206 156.925 102.805 158.034 102.301C162.381 100.327 165.266 95.7834 166.93 91.4789C169.417 85.0448 170.158 74.8275 167.329 68.4262L167.402 68.6226L167.219 68.0723C166.867 68.408 167.787 72.1753 167.911 72.8376C169.127 79.3087 167.729 86.7543 164.897 92.6325C163.351 95.8406 160.768 100.162 157.177 101.296C155.615 101.789 154.735 101.526 153.317 100.813L153.006 100.653C153.554 99.6618 154.061 98.6437 154.586 97.6397C155.44 95.5289 156.259 93.1251 156.047 90.8226C155.126 92.295 154.977 94.6645 154.236 96.3604L154.095 96.6768C151.576 101.052 148.513 104.018 143.564 105.393C142.074 105.807 140.472 106.059 138.944 106.293C140.064 100.377 142.867 95.1309 142.329 88.9026C140.397 90.9923 138.569 92.7998 135.538 92.9653C132.474 93.1326 129.61 91.4526 127.457 89.4037C122.79 84.9623 122.766 81.6436 120.444 76.1404C120.416 80.9606 120.343 85.7254 116.57 89.3058C115.012 90.7847 112.931 91.709 110.759 91.5731C108.059 91.4044 105.852 89.618 104.195 87.6079C102.356 85.3772 101.487 82.7817 100.011 80.3629C102.344 89.7037 104.468 101.632 99.2742 110.473C98.0217 112.605 96.3506 114.037 93.9375 114.649C93.8015 114.683 93.6646 114.715 93.5282 114.748C90.9956 114.046 89.9606 113.378 88.5346 111.089L88.1001 110.401C89.52 116.764 90.4781 124.386 86.685 130.169C84.9764 132.774 82.5722 134.678 79.4784 135.359C76.2084 136.078 72.0642 135.432 69.2554 133.607C65.9034 131.429 63.7617 127.249 61.9542 123.788C61.8848 124.969 64.6148 130.748 65.2022 132.498C67.9186 140.599 70.5534 157.028 63.0131 163.485C61.7128 164.598 60.3412 165.437 58.5834 165.268C56.5383 165.071 54.6567 163.746 53.4187 162.163C50.3892 158.29 49.7592 153.44 47.3953 149.336C48.6806 154.704 50.8256 159.198 52.4259 164.344C54.8545 172.152 56.3901 183.088 51.84 190.453C50.3259 192.903 48.0534 195.548 45.1281 196.184C41.9095 196.885 38.8835 196.319 36.121 194.517C30.7344 191.002 27.3576 183.198 26.1144 177.138C26.0771 176.957 26.0466 176.774 26.0156 176.591L25.8208 176.557C25.6683 179.341 27.0527 182.79 27.5183 185.605C28.7163 192.848 29.0903 206.551 23.2081 211.969C22.2479 212.854 21.055 213.483 19.7191 213.43C18.3569 213.375 17.2342 212.645 16.3457 211.655C15.2191 210.399 14.7408 208.964 14.2019 207.405C13.219 213.696 12.9181 221.824 7.34995 226.063C5.11748 227.763 2.70696 228.037 0 228.018V0ZM231.77 269.381C229.26 269.726 225.819 270.368 224.259 272.565C223.563 273.545 223.452 274.693 223.718 275.844C224.688 280.037 229.242 283.822 232.781 285.888C234.182 286.706 235.638 287.313 237.151 287.889C239.118 288.274 241.147 288.738 242.938 287.509C244.016 286.771 244.585 285.607 244.788 284.343C245.35 280.853 243.632 276.867 241.538 274.144C239.617 271.646 237.02 269.787 233.829 269.416C233.134 269.335 232.466 269.328 231.77 269.381ZM211.734 274.277C208.545 274.806 205.671 276.134 203.758 278.866C203.102 279.802 202.736 280.793 202.397 281.873C204.509 288.299 210.615 293.989 216.114 297.648C217.516 298.301 218.897 299.073 220.478 298.554C221.598 298.186 222.345 297.359 222.834 296.31C224.576 292.572 223.442 286.432 221.992 282.74C220.765 279.613 218.65 276.313 215.497 274.873C214.329 274.339 213.009 274.159 211.734 274.277ZM188.104 276.612C184.126 277.431 179.569 278.985 177.273 282.602C176.909 283.166 176.602 283.766 176.359 284.392C178.597 290.166 185.162 298.078 190.274 301.685C191.66 302.663 193.083 303.767 194.885 303.483C195.903 303.323 196.495 302.826 197.036 301.981C199.632 297.921 199.824 288.222 198.679 283.619C198.077 281.199 196.845 278.876 194.635 277.575C192.554 276.35 190.416 276.44 188.104 276.612ZM172.683 287.31C168.368 291.86 164.892 297.175 161.484 302.415L166.657 300.843C170.795 299.566 175.027 298.622 179.315 298.019C177.961 296.033 176.53 294.066 175.305 291.998C174.478 290.602 173.721 288.49 172.683 287.31ZM175.239 303.361C162.658 305.261 146.624 311.769 138.957 322.183C131.956 331.693 131.247 344.097 131.971 355.48C133.74 354.597 135.346 353.153 136.923 351.953L163.419 331.159C168.887 326.884 175.492 322.641 179.959 317.314C181.742 315.186 183.158 312.359 183.445 309.578C183.612 307.964 183.401 306.202 182.336 304.911C181.39 303.764 179.98 303.313 178.54 303.203C177.544 303.128 176.221 303.16 175.239 303.361Z" fill="#1D142B"/>
<path d="M173.293 0H175.247C181.61 5.34506 187.813 12.3351 188.629 21.032C188.569 22.9278 188.854 26.4279 187.919 28.0559L187.637 27.877C187.615 27.393 187.597 26.9085 187.57 26.4249C187.75 24.4095 187.672 22.468 187.362 20.4674C185.994 11.6318 180.247 5.14458 173.293 0Z" fill="#9444E4"/>
<path d="M187.568 26.4249C187.595 26.9085 187.613 27.393 187.635 27.877L187.917 28.0558C188.852 26.4279 188.567 22.9278 188.627 21.032C189.073 25.1317 188.941 29.2005 186.471 32.6855L185.8 33.9495C184.587 30.9237 183.217 27.8999 181.53 25.1096C180.687 23.7169 176.539 18.4086 176.41 17.6509C180.538 21.8735 183.343 26.7178 186.159 31.8671C186.773 30.1048 187.14 28.2405 187.568 26.4249Z" fill="#FFD2FF"/>
<path d="M345.463 191.545L480 23.1807V105.693C463.142 116.057 446.568 126.897 429.803 137.414L409.386 150.366C406.167 152.444 402.58 154.445 399.639 156.895C411.039 151.932 422.843 144.851 434.011 139.132L464.679 123.204C469.776 120.517 475.148 118.04 480 114.942V152.015C467.733 156.512 455.431 160.91 443.093 165.207C437.993 167.037 429.694 169.661 425.167 172.112C443.575 168.442 461.862 164.188 480 159.358V175.447C459.425 178.983 438.814 182.299 418.169 185.395C417.049 185.559 415.875 185.664 414.78 185.952L414.679 186.219L414.203 186.155L414.379 186.064L414.265 186.236C415.758 186.375 417.199 186.222 418.686 186.083C424.446 186.055 430.386 185.257 436.135 184.779C450.779 183.561 465.374 181.913 480 180.503V198.313C476.208 198.13 456.195 196.701 454.279 197.504C457.197 198.915 475.336 200.737 480 201.667V218.665C476.99 217.953 473.967 217.266 470.972 216.482C473.775 218.618 476.808 220.368 480 221.852V233.156C474.506 230.964 468.979 228.866 463.414 226.861C460.488 225.803 457.507 224.576 454.464 223.913C462.699 228.601 471.454 232.493 480 236.581V244.788C475.045 241.741 469.687 239.166 464.523 236.481L439.238 223.317L399.751 202.803L384.926 195.056C379.346 192.147 373.484 188.564 367.296 187.232C359.759 185.608 351.894 187.433 345.463 191.545ZM426.03 124.465C417.408 128.567 407.539 135.693 399.847 141.454C397.1 143.51 394.206 145.543 391.627 147.798L391.814 148.111C397.848 145.154 422.646 129.656 426.252 124.778L426.03 124.465ZM458.574 140.894C451.872 143.91 393.1 171.747 392.061 172.958C392.407 172.995 392.56 172.996 392.912 172.917C408.916 166.823 424.604 159.823 440.276 152.916C446.876 150.007 453.44 146.756 460.166 144.157C459.651 143.096 459.177 141.901 458.574 140.894Z" fill="#9444E4"/>
<path d="M185.801 33.9495L186.472 32.6855C189.817 40.0652 191.311 50.361 188.422 58.1231C187.096 61.6865 184.547 64.6448 181.034 66.1935C180.675 66.3529 180.313 66.5043 179.947 66.6482C181.102 72.3262 180.009 78.6285 176.829 83.5016C175.405 85.6832 172.957 88.2721 170.315 88.747C169.605 88.8745 168.927 88.7432 168.316 88.3579L168.395 88.0785L168.611 88.0396C171.639 87.4762 173.876 85.7324 175.59 83.2185C179.107 78.0599 179.655 71.9807 178.901 65.9502L179.865 65.3259C180.053 65.2715 180.221 65.2298 180.402 65.1576C183.356 63.9815 185.71 61.3898 186.974 58.5229C190.257 51.0763 188.58 41.272 185.801 33.9495Z" fill="#9444E4"/>
<path d="M179.865 65.3259L178.901 65.9503C178.269 62.879 177.596 59.8621 176.566 56.8926C176.051 55.4114 172.78 48.4945 172.946 47.7065C176.152 53.4478 178.319 58.927 179.865 65.3259Z" fill="#9444E4"/>
<path d="M154.095 96.6767L154.585 97.6395C154.06 98.6436 153.553 99.6617 153.005 100.653L153.316 100.812C154.734 101.525 155.614 101.789 157.176 101.296C160.767 100.162 163.35 95.8405 164.896 92.6323C167.729 86.7542 169.126 79.3086 167.911 72.8375C167.786 72.1752 166.866 68.4078 167.218 68.0722L167.401 68.6225L167.328 68.4261C170.157 74.8273 169.417 85.0447 166.929 91.4787C165.265 95.7833 162.38 100.327 158.034 102.301C156.924 102.805 155.417 103.206 154.227 102.721C153.61 102.47 153.045 102.003 152.51 101.607C148.422 104.24 144.764 108.05 139.181 106.884C139.087 106.865 138.997 106.832 138.904 106.806L138.943 106.293C140.471 106.059 142.073 105.807 143.563 105.393C148.512 104.018 151.576 101.052 154.095 96.6767Z" fill="#9444E4"/>
<path d="M142.329 88.9027C142.867 95.131 140.064 100.377 138.944 106.293L138.905 106.807C138.332 107.577 133.485 122.246 132.567 124.766C128.834 135.012 125 145.153 120.807 155.219C125.234 156.51 131.661 158.988 134.099 163.202C135.872 166.265 134.802 170.84 133.867 174.037C130.071 187.018 121.598 200.147 113.465 210.823C112.021 212.718 110.119 215.765 107.995 216.891C105.891 218.007 102.562 218.299 100.209 218.356C99.6946 218.369 94.8496 218.15 94.7287 218.253C94.6635 218.308 94.4085 218.967 94.4001 219.008C94.3378 219.312 94.3898 219.627 94.6382 219.817C96.5451 221.277 103.622 220.376 105.963 219.871C106.168 219.827 106.373 219.782 106.578 219.735C93.9525 234 78.2193 250.145 59.7033 256.305C54.1111 258.165 48.1697 258.99 42.2993 259.35C27.591 260.251 13.7602 257.178 0 252.278V228.018C2.70696 228.037 5.11748 227.763 7.34995 226.063C12.9181 221.824 13.219 213.696 14.2019 207.405C14.7408 208.965 15.2191 210.399 16.3457 211.655C17.2342 212.645 18.3569 213.375 19.7191 213.43C21.055 213.483 22.2478 212.854 23.2081 211.969C29.0903 206.551 28.7163 192.848 27.5183 185.605C27.0527 182.79 25.6683 179.341 25.8208 176.557L26.0156 176.591C26.0466 176.774 26.0771 176.957 26.1144 177.138C27.3575 183.198 30.7344 191.003 36.121 194.517C38.8835 196.319 41.9095 196.885 45.1281 196.185C48.0534 195.548 50.3259 192.903 51.84 190.453C56.3901 183.088 54.8545 172.152 52.4259 164.344C50.8256 159.198 48.6806 154.704 47.3953 149.336C49.7592 153.44 50.3892 158.29 53.4187 162.163C54.6567 163.746 56.5382 165.071 58.5834 165.268C60.3412 165.437 61.7128 164.598 63.0131 163.485C70.5534 157.028 67.9186 140.599 65.2022 132.498C64.6148 130.748 61.8848 124.969 61.9542 123.788C63.7617 127.249 65.9034 131.43 69.2554 133.607C72.0642 135.432 76.2084 136.078 79.4784 135.359C82.5721 134.678 84.9764 132.774 86.685 130.17C90.4781 124.386 89.52 116.764 88.1001 110.401L88.5346 111.089C89.9606 113.378 90.9956 114.046 93.5282 114.748C93.6646 114.715 93.8015 114.683 93.9374 114.649C96.3506 114.038 98.0217 112.605 99.2742 110.473C104.468 101.632 102.344 89.7038 100.011 80.363C101.487 82.7817 102.356 85.3772 104.195 87.608C105.852 89.618 108.059 91.4044 110.759 91.5732C112.931 91.7091 115.012 90.7847 116.57 89.3058C120.343 85.7255 120.416 80.9607 120.444 76.1405C122.766 81.6436 122.79 84.9624 127.457 89.4038C129.61 91.4527 132.474 93.1327 135.538 92.9653C138.569 92.7999 140.397 90.9924 142.329 88.9027ZM122.944 97.7733C112.05 100.242 102.226 107.733 95.5631 116.582C96.9435 115.592 98.2279 114.52 99.5151 113.412C105.914 108.406 112.886 103.81 120.597 101.115C123.512 100.097 126.506 99.4753 129.462 98.6161C127.228 97.778 125.312 97.5957 122.944 97.7733ZM117.725 119.071C114.974 120.14 113.501 122.295 112.34 124.905C110.704 128.584 109.228 134.662 110.858 138.542C111.258 139.496 111.99 140.438 112.987 140.816C113.578 141.039 114.167 141.06 114.79 141C117.884 139.764 119.523 137.086 120.773 134.128C122.21 130.728 123.183 125.56 121.767 122.029C121.301 120.867 120.361 119.765 119.168 119.311C118.708 119.137 118.21 119.103 117.725 119.071Z" fill="#4C1AAC"/>
<path d="M154.096 96.6768L154.236 96.3604C154.977 94.6645 155.126 92.2949 156.047 90.8226C156.259 93.1251 155.441 95.5288 154.586 97.6396L154.096 96.6768Z" fill="#FFD2FF"/>
<path d="M95.5625 116.582C102.226 107.733 112.05 100.242 122.944 97.7733C125.311 97.5957 127.227 97.778 129.461 98.6162C126.505 99.4754 123.511 100.097 120.596 101.116C112.885 103.81 105.914 108.406 99.5145 113.412C98.2273 114.52 96.943 115.592 95.5625 116.582Z" fill="#1D142B"/>
<path d="M399.641 156.895C402.582 154.445 406.169 152.444 409.387 150.367L429.805 137.415C446.569 126.897 463.143 116.057 480.001 105.693V114.942C475.15 118.04 469.778 120.518 464.681 123.204L434.013 139.133C422.844 144.851 411.041 151.932 399.641 156.895Z" fill="#1D142B"/>
<path d="M114.79 141C114.167 141.06 113.579 141.039 112.988 140.816C111.991 140.438 111.259 139.496 110.859 138.542C109.229 134.662 110.705 128.584 112.341 124.905C113.501 122.295 114.974 120.14 117.725 119.071C118.21 119.103 118.709 119.137 119.169 119.311C120.362 119.765 121.302 120.867 121.768 122.029C123.183 125.56 122.211 130.728 120.774 134.128C119.524 137.086 117.884 139.764 114.79 141Z" fill="#1D142B"/>
<path d="M391.814 148.111L391.627 147.798C394.206 145.544 397.101 143.511 399.847 141.454C407.54 135.693 417.408 128.567 426.03 124.465L426.253 124.778C422.646 129.656 397.849 145.155 391.814 148.111Z" fill="#1D142B"/>
<path d="M392.912 172.917C392.56 172.996 392.407 172.995 392.061 172.958C393.1 171.747 451.872 143.91 458.574 140.894C459.177 141.901 459.651 143.096 460.166 144.157C453.44 146.756 446.876 150.007 440.275 152.916C424.604 159.823 408.915 166.823 392.912 172.917Z" fill="#1D142B"/>
<path d="M425.168 172.112C429.695 169.661 437.994 167.037 443.094 165.207C455.431 160.91 467.734 156.512 480 152.016V159.358C461.863 164.188 443.576 168.442 425.168 172.112Z" fill="#1D142B"/>
<path d="M418.168 185.395C438.813 182.299 459.424 178.983 479.998 175.447V180.503C465.372 181.913 450.778 183.561 436.133 184.779C430.385 185.257 424.445 186.055 418.685 186.083L418.168 185.395Z" fill="#1D142B"/>
<path d="M418.686 186.083C417.199 186.222 415.758 186.375 414.265 186.236L414.38 186.064L414.203 186.155L414.68 186.219L414.78 185.952C415.875 185.664 417.049 185.559 418.17 185.395L418.686 186.083Z" fill="#0F0B13"/>
<path d="M480 201.667C475.336 200.737 457.198 198.915 454.279 197.504C456.196 196.701 476.208 198.13 480 198.314V201.667Z" fill="#1D142B"/>
<path d="M470.973 216.482C473.968 217.266 476.991 217.953 480.001 218.665V221.852C476.809 220.368 473.776 218.618 470.973 216.482Z" fill="#1D142B"/>
<path d="M454.465 223.914C457.507 224.576 460.488 225.803 463.415 226.862C468.98 228.866 474.507 230.964 480 233.156V236.582C471.455 232.494 462.699 228.602 454.465 223.914Z" fill="#1D142B"/>
<path d="M356.727 229.772L367.638 236.111C365.431 238.039 362.971 239.71 360.608 241.443C356.37 244.517 352.161 247.63 347.982 250.783L319.308 272.472C313.876 276.573 308.503 280.789 302.995 284.785C309.134 289.662 315.706 294.095 322.095 298.637L355.043 322.115C363.33 317.017 370.991 310.518 378.811 304.719C388.013 297.895 397.058 290.913 406.148 283.941C412.35 279.185 418.679 274.521 424.699 269.539L479.999 302.085V316.135C473.858 311.912 467.089 308.226 460.65 304.457C454.057 300.599 447.563 296.575 440.95 292.753C436.29 290.059 431.442 287.527 426.961 284.55C414.891 294.102 402.372 303.069 390.108 312.368L326.896 360.484C317.443 367.624 307.756 374.429 298.501 381.834C295.734 384.048 292.507 386.241 290.199 388.925C292.414 391.469 295.593 393.517 298.236 395.634L314.58 408.735L338.24 427.976C343.074 431.987 347.797 436.168 352.748 440.033C386.992 414.122 420.812 387.656 454.197 360.647C462.723 353.774 471.57 347.248 479.999 340.26V369.115C474.252 372.819 468.997 377.385 463.587 381.561L433.085 405.159L391.553 437.429C384.43 442.991 376.898 448.372 370.108 454.324C373.076 457.654 377.174 460.441 380.658 463.229L401.732 480H381.758C379.155 477.675 357.896 459.926 356.62 459.601C356.28 459.514 356.161 459.684 355.881 459.846C355.752 460.197 355.628 460.368 355.698 460.753C355.788 461.242 355.98 461.554 356.348 461.873C358.606 463.828 361.16 465.577 363.475 467.495C368.525 471.679 373.493 476.048 378.725 480H302.835C313.07 471.825 323.488 463.666 334.11 456.006C331.964 454.317 329.866 452.651 327.485 451.302C323.152 447.406 318.437 443.718 314.319 439.603C310.189 443.092 305.309 446.566 302.546 451.292C302.393 451.555 302.47 451.444 302.274 451.672C302.44 450.311 302.59 448.946 302.779 447.588C302.871 447.544 302.963 447.501 303.054 447.456C304.297 446.836 305.938 445.503 306.363 444.102C306.593 443.343 306.349 442.495 305.926 441.851C305.241 440.807 304.007 440.24 303.016 439.524C303.425 438.872 303.612 438.496 303.309 437.722C303.105 437.201 302.75 436.84 302.197 436.717C301.692 436.604 301.126 436.601 300.609 436.57C300.756 436.029 300.921 435.905 301.315 435.494L302.171 435.527L302.271 435.224C301.668 434.457 300.495 433.64 299.519 433.523C298.187 433.363 296.801 434.321 295.749 435.001C293.814 434.164 292.34 432.251 290.624 431.027C283.938 426.257 275.891 427.717 268.705 430.592C265.398 431.915 262.72 433.877 261.067 437.126C260.446 438.347 259.943 439.665 259.172 440.801C257.902 442.675 256.157 444.257 255.253 446.36C254.005 449.263 255.741 453.187 256.882 455.892C257.409 457.164 258.087 458.367 258.901 459.478C260.1 461.11 264.131 464.613 263.677 466.577C262.732 467.287 260.694 467.11 260.553 468.583C260.498 469.162 260.724 469.711 261.149 470.1C261.43 470.353 261.852 470.536 262.184 470.723L262.565 470.939L262.817 471.075C263.72 470.901 264.773 470.536 265.64 470.939C265.959 471.464 265.923 471.647 265.782 472.242C265.731 472.453 265.664 472.659 265.605 472.87C265.48 473.315 265.407 473.554 265.563 474.004C266.007 474.426 266.484 474.651 267.104 474.651C267.751 474.656 268.229 474.492 268.683 474.018C268.971 473.723 269.206 473.297 269.429 472.945C269.477 473.034 269.525 473.118 269.574 473.207C269.915 473.803 270.187 474.473 270.924 474.647C271.501 474.778 272.001 474.684 272.543 474.487C272.82 474.061 272.826 473.747 272.858 473.245C273.211 473.132 273.268 473.184 273.623 473.259C274.225 473.381 275.036 473.451 275.591 473.114C276.295 472.687 276.585 471.712 277.287 471.323C279.176 470.273 280.335 472.378 282.191 469.772C282.461 469.392 282.664 469.157 283.137 469.05C283.396 468.993 283.68 468.998 283.944 468.993L284.106 469.19C281.722 472.912 278.827 476.559 276.043 480H174.326C171.302 477.59 168.529 474.811 165.69 472.181L151.007 458.567L109.633 420.271C165.281 376.48 221.313 333.18 277.722 290.375L331.499 249.092C339.872 242.668 348.041 235.758 356.727 229.772ZM207.791 373.116C208.772 374.948 209.378 376.912 209.867 378.922C209.821 378.982 209.775 379.04 209.73 379.1C209.185 379.832 208.872 380.554 208.548 381.402C206.368 383.235 200.104 380.554 197.442 388.29C197.409 388.388 197.372 388.485 197.337 388.583C193.633 388.761 190.405 389.636 187.812 392.499C186.096 394.358 185.205 396.833 185.342 399.36C185.411 400.505 185.769 401.616 186.104 402.706C184.278 403.676 182.453 404.603 181.836 406.753C181.498 407.934 181.754 409.174 182.353 410.227C183.681 412.565 186.305 414.027 188.844 414.659C189.462 414.819 190.087 414.948 190.718 415.048C190.2 416.581 189.601 418.027 190.416 419.587C191.237 421.157 193.204 421.701 194.789 422.129C195.32 422.275 195.857 422.4 196.398 422.504C194.598 423.216 192.367 423.864 190.81 425.014C186.8 427.975 183.122 432.872 179.792 436.638L166.492 451.587C170.79 455.156 174.946 459.075 178.871 463.052C187.397 456.899 195.47 449.892 203.766 443.407L222.106 429.077C225.706 426.268 229.407 423.552 232.867 420.571C241.786 412.635 251.531 405.642 260.62 397.912C258.663 394.967 253.774 391.753 250.909 389.321C241.08 381.004 231.166 372.787 221.17 364.671C217.141 361.388 212.922 358.294 208.974 354.921C202.475 359.978 195.808 364.923 189.188 369.824C185.675 372.425 182 374.905 178.644 377.704C180.129 379.578 181.682 381.299 183.389 382.975C187.942 380.837 192.627 379.127 197.293 377.266C200.778 375.875 204.237 374.318 207.791 373.116ZM295.045 289.874L245.488 326.933C239.615 331.338 233.836 335.903 227.889 340.204C234.78 344.829 241.234 350.123 247.753 355.247L268.718 371.57C271.858 374.039 274.849 376.874 278.081 379.192C278.584 379.552 279.052 379.904 279.706 379.782C293.612 368.039 307.991 356.989 322.441 345.935C327.289 342.226 332.158 338.543 337.047 334.886C340.325 332.41 343.56 329.824 346.994 327.567C341.771 323.432 296.2 290.174 295.045 289.874ZM218.538 345.819C218.161 346.48 217.855 346.795 217.899 347.567C219.493 349.798 233.925 360.179 237.273 362.86C248.419 371.788 259.197 381.25 270.479 389.994C270.856 389.369 270.967 389.098 270.965 388.338C269.075 386.133 266.508 384.284 264.269 382.43L253.157 373.248C244.562 366.148 236.037 359.016 227.213 352.196C224.767 350.305 222.398 348.087 219.851 346.362C219.427 346.075 219.054 345.881 218.538 345.819ZM280.287 396.226C279.776 396.734 279.299 396.954 279.293 397.693C283.274 401.2 287.531 404.417 291.619 407.799L325.754 435.705C328.833 438.213 339.862 447.936 342.284 449.034L342.905 448.112C342.63 447.215 341.742 446.52 341.056 445.914C334.756 440.361 328.046 435.186 321.551 429.859L294.474 407.523L285.149 399.898C283.837 398.822 282.219 397.15 280.727 396.406C280.585 396.335 280.434 396.286 280.287 396.226ZM157.157 400.31C147.45 402.978 137.428 409.98 128.218 414.268L136.336 422.424C137.777 423.856 139.214 425.261 140.77 426.572C146.823 419.473 154.029 413.693 160.472 407.005C159.741 404.792 159.165 402.223 157.622 400.433L157.157 400.31ZM164.973 430.316C160.374 432.022 155.76 433.532 151.071 434.966C153.274 437.127 155.49 439.275 157.718 441.411C158.921 442.55 160.174 443.665 161.313 444.869C163.165 441.865 165.239 438.89 167.675 436.326C167.203 434.483 166.835 431.831 165.497 430.444L164.973 430.316Z" fill="#9444E4"/>
<path d="M367.639 236.111C368.188 236.452 368.805 236.777 369.318 237.164C365.861 239.893 340.919 258.085 340.804 259.024L340.369 259.374C340.223 259.359 340.075 259.297 339.931 259.329C339.083 259.516 309.987 282.002 306.183 284.692C312.057 288.811 317.894 292.982 323.694 297.204C325.759 298.682 328.269 300.965 330.548 301.996L331.007 302.189C331.083 302.398 331.105 302.512 331.276 302.693C332.518 304.005 336.899 306.587 338.608 307.78L355.354 319.694C359.159 316.557 363.249 313.844 367.207 310.915L389.761 293.981C391.519 292.638 395.952 289.749 397.016 288.285L396.543 287.672L396.648 287.38L397.515 287.744C398.654 287.565 420.638 270.407 422.967 268.657L424.7 269.539C418.679 274.522 412.351 279.185 406.149 283.942C397.059 290.913 388.014 297.895 378.811 304.719C370.992 310.518 363.331 317.017 355.044 322.116L322.096 298.637C315.706 294.096 309.134 289.662 302.996 284.786C308.503 280.789 313.877 276.574 319.309 272.472L347.982 250.784C352.162 247.631 356.371 244.517 360.608 241.443C362.972 239.71 365.432 238.04 367.639 236.111Z" fill="#4C1AAC"/>
<path d="M369.319 237.164C373.501 239.82 377.861 242.198 382.147 244.682C386.777 247.367 391.356 250.142 396.01 252.787C390.096 256.866 384.48 261.366 378.784 265.74C374.448 269.07 369.999 272.248 365.693 275.617C360.389 272.206 355.142 268.708 349.955 265.121C346.965 263.075 343.964 260.793 340.805 259.024C340.92 258.085 365.861 239.893 369.319 237.164ZM372.548 246.65C370.565 246.9 368.907 247.202 367.108 248.112C365.109 249.122 361.94 252.477 360.143 252.794C359.855 252.844 359.57 252.901 359.281 252.949C359.151 253.673 359.642 253.649 359.262 254.359L358.988 254.525C358.337 254.928 357.85 255.186 357.488 255.874C357.92 256.692 357.445 255.958 358.082 256.533C358.15 256.594 358.182 256.687 358.232 256.764C357.76 256.948 357.36 256.993 356.858 257.033C356.366 257.504 356.332 257.652 356.138 258.313C356.524 259.117 357.261 259.01 357.591 259.794C357.257 260.106 356.918 260.385 356.554 260.66C356.867 261.965 358.722 264.329 359.643 265.321C359.726 265.307 359.808 265.292 359.89 265.28C360.292 265.219 360.144 265.239 360.614 265.223C360.838 266.002 360.93 266.847 361.632 267.338C363.127 268.384 365.018 267.044 366.54 267.675C368.57 267.684 369.881 267.15 371.344 265.727C371.364 265.154 371.244 265.146 370.926 264.697C371.633 264.356 372.486 264.612 373.218 264.749C374.045 264.391 374.933 262.853 375.271 262.948C375.356 262.972 375.739 263.202 375.823 263.251C376.98 263.095 377.553 262.5 378.27 261.649C378.934 260.859 378.975 260.803 380.007 260.726C380.478 260.692 380.519 260.513 380.849 260.197C380.994 259.472 380.322 258.536 380.846 258.255C381.089 258.125 381.592 258.106 381.874 258.062C382.368 257.511 382.28 257.055 382.219 256.314C382.101 254.874 381.75 253.777 381.947 252.299C381.962 252.188 381.973 252.078 381.989 251.968C381.998 251.902 382.011 251.836 382.022 251.77C380.256 249.224 378.651 247.962 375.558 247.402C374.979 247.297 374.418 247.247 373.831 247.237C373.289 246.795 373.235 246.694 372.548 246.65Z" fill="#9444E4"/>
<path d="M366.54 267.675C365.019 267.044 363.127 268.384 361.632 267.338C360.93 266.847 360.838 266.002 360.614 265.224C360.144 265.239 360.292 265.219 359.891 265.28C359.808 265.293 359.726 265.308 359.644 265.321C358.722 264.329 356.868 261.965 356.554 260.66C356.919 260.385 357.257 260.106 357.591 259.794C357.261 259.01 356.524 259.117 356.139 258.313C356.332 257.652 356.366 257.504 356.858 257.033C357.36 256.993 357.761 256.948 358.232 256.765C358.182 256.687 358.151 256.594 358.083 256.533C357.445 255.958 357.92 256.692 357.489 255.874C357.85 255.186 358.337 254.928 358.989 254.525L359.262 254.359C359.643 253.649 359.151 253.674 359.281 252.949C359.57 252.902 359.855 252.844 360.144 252.794C361.94 252.477 365.109 249.123 367.108 248.112C368.907 247.203 370.565 246.901 372.548 246.65C373.235 246.694 373.289 246.795 373.831 247.237C374.418 247.247 374.979 247.298 375.558 247.403C378.651 247.962 380.256 249.224 382.022 251.77C382.011 251.836 381.999 251.902 381.989 251.968C381.973 252.078 381.962 252.189 381.947 252.299C381.75 253.777 382.101 254.875 382.219 256.315C382.28 257.056 382.368 257.511 381.874 258.063C381.592 258.107 381.089 258.125 380.846 258.255C380.322 258.536 380.994 259.472 380.849 260.197C380.519 260.514 380.478 260.692 380.007 260.726C378.976 260.803 378.934 260.86 378.27 261.649C377.553 262.501 376.98 263.095 375.823 263.251C375.739 263.202 375.356 262.972 375.272 262.948C374.933 262.853 374.045 264.392 373.218 264.749C372.486 264.612 371.634 264.356 370.926 264.697C371.244 265.146 371.364 265.154 371.344 265.728C369.881 267.151 368.57 267.684 366.54 267.675Z" fill="#4C1AAC"/>
<path d="M396.01 252.787L396.465 253.03C387.976 258.829 380.046 265.442 371.753 271.518C375.736 273.651 379.428 276.389 383.187 278.892C387.628 281.795 392.115 284.625 396.649 287.38L396.544 287.672C387.709 283.227 380.044 276.631 371.416 271.857C362.03 278.714 352.902 285.97 343.613 292.965C339.498 296.064 335.373 299.458 331.008 302.189L330.549 301.996C342.388 293.933 353.773 284.473 365.317 275.923C360.212 272.902 355.306 269.381 350.355 266.103C347.089 263.94 343.357 261.89 340.37 259.374L340.805 259.024C343.964 260.793 346.965 263.075 349.955 265.121C355.142 268.708 360.389 272.206 365.693 275.617C369.999 272.248 374.448 269.07 378.784 265.74C384.48 261.366 390.096 256.866 396.01 252.787Z" fill="#4C1AAC"/>
<path d="M371.752 271.518C380.046 265.442 387.975 258.829 396.464 253.03C405.325 258.194 414.159 263.403 422.966 268.657C420.637 270.407 398.654 287.564 397.515 287.744L396.648 287.38C392.114 284.624 387.627 281.795 383.186 278.892C379.427 276.388 375.735 273.651 371.752 271.518ZM397.672 261.57C395.825 263.074 396.153 261.315 394.503 263.996C394.267 264.38 394.387 264.251 394.012 264.473L393.727 264.452C392.876 264.396 392.056 264.314 391.343 264.891C390.751 265.37 390.747 266.122 390.322 266.704C388.968 268.56 386.56 268.089 386.68 271.397C386.701 271.98 386.985 272.312 387.412 272.664C387.526 272.758 387.644 272.848 387.76 272.94L387.66 273.215C387.443 273.832 387.22 274.281 387.416 274.937C387.959 275.397 388.601 275.04 388.705 275.658L387.991 276.418C388.362 277.1 388.866 277.299 389.597 277.525C391.181 278.014 392.778 278.031 394.389 278.301C395.083 278.418 395.762 278.884 396.42 278.981C396.472 278.989 396.859 278.83 396.88 278.819C397.051 278.731 397.439 278.476 397.61 278.366C398.293 278.285 398.888 278.428 399.552 278.564C400.246 278.651 400.597 278.705 401.263 278.423L401.521 278.028C401.748 277.685 402.253 276.886 402.66 276.811C403.155 276.721 403.683 276.858 404.174 276.941C405.743 276.227 405.894 274.547 408.01 273.793L408.024 273.455L407.408 273.021C408.197 271.461 409.546 270.95 409.566 269.016C408.912 268.641 407.861 269.357 407.574 268.847C408.335 268.39 409.11 268.211 409.497 267.403C409.466 266.783 409.553 266.436 409.062 265.986C408.747 265.698 408.248 265.469 407.875 265.254C407.85 264.562 408.605 264.592 408.029 263.979C405.594 261.389 400.955 261.491 397.672 261.57Z" fill="#9444E4"/>
<path d="M306.184 284.692C309.988 282.002 339.084 259.516 339.932 259.329C340.076 259.297 340.224 259.359 340.37 259.374C343.357 261.89 347.09 263.94 350.356 266.103C355.307 269.381 360.213 272.902 365.318 275.923C353.774 284.473 342.388 293.933 330.549 301.996C328.27 300.965 325.76 298.682 323.695 297.204C317.895 292.982 312.057 288.811 306.184 284.692ZM336.106 268.952C334.376 269.09 332.27 269.193 331.009 270.536C330.688 270.877 330.298 271.462 329.875 271.67C328.332 272.427 327.478 271.211 325.839 273.162C324.573 274.668 324.28 276.692 324.2 278.592C323.651 278.995 323.032 279.231 322.915 279.961C322.73 281.111 324.764 282.708 325.55 283.448C326.075 283.943 326.59 284.356 327.203 284.742C327.806 284.701 327.906 284.375 328.289 283.941C328.491 284.412 328.443 284.594 328.392 285.092C328.827 285.706 329.949 285.93 330.655 286.055C332.407 286.364 334.181 286.427 335.939 286.762C336.774 286.575 337.143 286.386 337.961 286.676C338.538 287.385 338.888 288.318 339.713 288.68C340.299 288.605 340.718 288.498 341.116 288.02C341.469 287.596 341.707 286.952 341.594 286.397C341.473 285.807 341.138 285.655 340.684 285.341C339.929 285.378 339.252 285.738 338.566 286.029L338.375 285.832C338.424 285.689 338.475 285.547 338.523 285.404C338.675 284.944 338.667 284.69 338.536 284.216C339.28 283.805 340.013 283.396 340.793 283.056C343.021 279.916 341.132 279.761 342.481 276.949C343.156 275.543 343.153 274.725 342.597 273.264C341.898 271.423 339.92 269.582 338.043 268.971C337.364 268.75 336.79 268.85 336.106 268.952Z" fill="#9444E4"/>
<path d="M399.554 278.565C398.89 278.429 398.295 278.285 397.611 278.366C397.44 278.476 397.053 278.731 396.882 278.819C396.861 278.83 396.474 278.989 396.422 278.981C395.764 278.884 395.084 278.418 394.391 278.302C392.78 278.031 391.183 278.014 389.599 277.525C388.867 277.299 388.364 277.1 387.993 276.418L388.707 275.658C388.603 275.04 387.961 275.397 387.418 274.937C387.222 274.281 387.445 273.832 387.662 273.215L387.762 272.941C387.646 272.849 387.528 272.759 387.414 272.664C386.987 272.312 386.703 271.98 386.682 271.397C386.562 268.089 388.97 268.56 390.324 266.704C390.749 266.122 390.753 265.37 391.345 264.891C392.058 264.315 392.878 264.397 393.729 264.452L394.014 264.473C394.389 264.251 394.269 264.38 394.505 263.996C396.155 261.315 395.826 263.074 397.674 261.571C400.956 261.491 405.596 261.39 408.03 263.979C408.607 264.593 407.852 264.562 407.877 265.254C408.25 265.469 408.749 265.698 409.063 265.986C409.555 266.437 409.468 266.783 409.499 267.404C409.112 268.211 408.336 268.39 407.576 268.847C407.863 269.357 408.914 268.641 409.568 269.016C409.548 270.95 408.199 271.461 407.41 273.022L408.026 273.455L408.012 273.793C405.896 274.547 405.745 276.227 404.175 276.941C403.685 276.858 403.157 276.721 402.662 276.811C402.255 276.886 401.75 277.685 401.523 278.028L401.265 278.423C400.599 278.706 400.248 278.651 399.554 278.565Z" fill="#4C1AAC"/>
<path d="M335.939 286.762C334.18 286.427 332.406 286.365 330.654 286.055C329.949 285.93 328.826 285.706 328.391 285.092C328.442 284.594 328.491 284.412 328.289 283.941C327.905 284.375 327.806 284.701 327.203 284.742C326.59 284.356 326.075 283.943 325.549 283.448C324.763 282.708 322.73 281.111 322.914 279.961C323.031 279.231 323.651 278.995 324.199 278.592C324.279 276.692 324.573 274.668 325.839 273.162C327.478 271.211 328.332 272.427 329.875 271.67C330.298 271.462 330.688 270.877 331.008 270.536C332.269 269.193 334.375 269.09 336.106 268.952C336.789 268.85 337.363 268.75 338.042 268.971C339.919 269.582 341.898 271.423 342.597 273.264C343.152 274.725 343.156 275.543 342.481 276.949C341.131 279.761 343.02 279.916 340.793 283.056C340.013 283.396 339.28 283.805 338.535 284.216C338.667 284.69 338.674 284.944 338.522 285.404C338.475 285.547 338.423 285.689 338.374 285.832L338.565 286.029C339.252 285.738 339.928 285.378 340.683 285.341C341.137 285.655 341.473 285.807 341.593 286.397C341.707 286.952 341.468 287.596 341.115 288.02C340.718 288.498 340.299 288.605 339.713 288.68C338.887 288.318 338.538 287.385 337.96 286.676C337.142 286.386 336.774 286.575 335.939 286.762Z" fill="#4C1AAC"/>
<path d="M237.15 287.889C235.637 287.313 234.181 286.706 232.78 285.888C229.241 283.823 224.687 280.037 223.717 275.844C223.451 274.693 223.562 273.545 224.258 272.565C225.818 270.368 229.259 269.726 231.768 269.381C232.465 269.328 233.133 269.335 233.828 269.417C237.019 269.787 239.616 271.646 241.537 274.144C243.631 276.867 245.349 280.853 244.787 284.343C244.584 285.607 244.015 286.771 242.937 287.509C241.146 288.738 239.117 288.274 237.15 287.889Z" fill="#4C1AAC"/>
<path d="M371.416 271.857C380.044 276.631 387.709 283.227 396.544 287.672L397.017 288.285C395.953 289.749 391.52 292.638 389.761 293.981L367.208 310.915C363.25 313.844 359.16 316.557 355.354 319.693L338.609 307.78C336.9 306.587 332.519 304.004 331.277 302.693C331.106 302.512 331.083 302.398 331.008 302.188C335.373 299.458 339.498 296.063 343.613 292.964C352.902 285.97 362.03 278.713 371.416 271.857ZM365.376 284.916C364.733 285.334 364.295 285.508 363.526 285.56C358.818 285.875 357.188 287.825 353.425 289.453C352.963 290.189 351.916 291.376 352.046 292.261C352.112 292.716 352.355 293.236 352.513 293.673C351.359 295.15 349.733 296.238 349.391 298.172C349.481 298.691 349.643 298.912 349.954 299.314C350.843 300.464 349.687 302.419 351.215 302.589C351.416 302.611 351.619 302.617 351.821 302.627L351.944 302.917L351.405 303.871C351.616 304.511 354.731 306.004 355.422 306.494C355.733 306.713 356.053 306.882 356.391 307.055C357.167 306.725 357.969 306.194 358.828 306.472C358.972 306.519 359.335 306.696 359.467 306.756C360.049 307.024 360.386 307.118 361.019 306.96C361.091 306.943 361.158 306.908 361.227 306.882C361.314 306.846 361.4 306.807 361.487 306.772C364.011 305.756 366.203 306.71 367.559 303.796C368.729 303.167 369.665 302.888 370.919 302.496C371.665 302.263 375.644 297.407 375.868 296.822C376.156 296.067 375.786 295.316 375.533 294.599C376.152 293.781 377.938 294.569 377.955 293.22C377.241 291.776 376.026 290.472 374.445 289.995C373.227 289.628 371.763 290.025 370.642 289.49C370.798 288.802 370.934 288.661 370.59 288.021C369.15 287.104 367.357 286.407 366.141 285.26C365.888 285.022 365.715 284.963 365.376 284.916Z" fill="#9444E4"/>
<path d="M202.396 281.874C202.735 280.793 203.102 279.802 203.757 278.866C205.67 276.134 208.545 274.806 211.734 274.277C213.009 274.159 214.329 274.339 215.497 274.873C218.649 276.313 220.764 279.613 221.992 282.74C223.442 286.433 224.576 292.572 222.834 296.31C222.345 297.36 221.597 298.186 220.478 298.554C218.897 299.073 217.516 298.301 216.114 297.648C210.615 293.989 204.509 288.299 202.396 281.874Z" fill="#4C1AAC"/>
<path d="M176.359 284.392C176.603 283.766 176.909 283.166 177.274 282.602C179.57 278.985 184.127 277.431 188.105 276.612C190.417 276.439 192.555 276.349 194.636 277.575C196.846 278.876 198.077 281.199 198.679 283.619C199.825 288.222 199.633 297.921 197.036 301.981C196.496 302.826 195.904 303.323 194.886 303.483C193.083 303.767 191.661 302.663 190.275 301.685C185.162 298.078 178.598 290.166 176.359 284.392Z" fill="#4C1AAC"/>
<path d="M426.961 284.55C431.442 287.527 436.29 290.06 440.951 292.753C447.564 296.575 454.058 300.599 460.65 304.457C467.089 308.226 473.858 311.913 479.999 316.135V340.26C471.571 347.249 462.724 353.774 454.197 360.647C420.813 387.656 386.992 414.122 352.749 440.033C347.797 436.168 343.075 431.988 338.24 427.976L314.58 408.735L298.236 395.634C295.594 393.517 292.414 391.469 290.199 388.926C292.507 386.241 295.734 384.048 298.501 381.834C307.756 374.429 317.443 367.624 326.897 360.485L390.109 312.368C402.372 303.069 414.891 294.102 426.961 284.55ZM443.124 308.909C439.94 310.17 436.762 311.661 433.958 313.648C432.107 312.603 427.481 309.635 425.335 310.409C424.772 310.613 424.472 311.059 424.264 311.594C423.605 313.292 424.546 316.236 424.943 317.967C422.418 319.429 416.638 322.086 415.676 324.928C415.76 325.253 415.707 325.404 416.033 325.58C418.49 326.898 423.594 324.538 425.97 325.229C426.04 325.739 426.1 326.225 426.113 326.739C426.494 328.365 427.116 331.997 428.771 332.794C429.303 333.051 429.728 332.933 430.228 332.675C432.15 331.682 434.366 325.916 435.523 323.924C437.699 323.915 445.426 324.324 446.953 322.983C447.433 322.56 447.378 322.4 447.372 321.807C446.262 319.677 442.585 318.065 440.513 317.083C441.698 315.315 445.022 311.284 444.668 309.164C444.136 308.729 443.795 308.881 443.124 308.909ZM399.874 327.345C398.359 328.014 397.178 328.715 395.975 329.883C394.827 329.445 392.951 328.351 391.742 328.799C391.383 328.933 391.432 329.097 391.315 329.426C391.48 330.269 391.887 330.725 392.401 331.394L392.597 331.653C391.459 332.117 389.27 332.719 388.763 333.914C388.981 334.36 388.998 334.427 389.452 334.596C390.297 334.911 391.507 334.88 392.413 334.955C392.052 335.849 391.672 336.696 391.536 337.657L391.78 338.129L392.671 338.27C393.855 337.503 395.011 336.708 396.314 336.155C397.955 336.734 399.628 337.419 401.33 337.784C401.111 336.743 400.932 335.673 400.595 334.664C402.127 333.905 403.677 333.149 404.874 331.895C403.11 331.528 401.368 331.199 399.577 330.988C399.925 329.949 400.422 328.849 400.381 327.743C399.999 327.366 400.19 327.465 399.874 327.345ZM450.714 344.479C449.682 345.178 448.731 345.854 447.835 346.732C446.612 346.394 444.653 345.509 443.396 345.805C442.964 346.202 442.728 346.485 442.688 347.102C442.635 347.909 443.114 348.59 443.502 349.258C442.012 349.837 440.368 350.221 439.479 351.644C439.482 351.978 439.399 352.15 439.653 352.408C440.783 353.557 443.437 353.441 444.984 353.525C445.228 354.152 445.452 354.775 445.8 355.354C446.346 356.187 446.92 357.087 447.957 357.321C448.45 357.432 448.914 357.359 449.333 357.055C450.208 356.42 450.69 355.479 450.804 354.419C450.856 353.928 450.874 353.433 450.892 352.94C452.491 352.529 454.713 352.291 455.777 350.91C455.738 350.275 455.6 350.099 455.118 349.679C453.988 348.695 452.269 348.131 450.909 347.539C451.352 346.752 451.862 346.024 451.894 345.097L451.591 344.633C451.302 344.576 451.008 344.498 450.714 344.479ZM328.587 365.426C328.366 368.366 328.32 371.3 328.273 374.246C325.45 376.64 322.614 379.019 319.765 381.383C323.307 382.059 326.836 382.798 330.352 383.598C332.306 385.816 333.725 388.597 335.454 391C337.004 388.424 338.617 385.888 340.291 383.391C341.438 382.399 349.471 382.552 351.414 382.5C349.771 379.844 347.761 377.464 345.738 375.094C346.759 372.416 347.457 369.591 348.204 366.824C344.6 367.662 340.977 368.452 337.397 369.381C334.497 367.996 331.605 366.538 328.587 365.426ZM390.017 366.452C389.999 367.803 389.952 369.158 390.024 370.507C388.086 371.824 386.691 373.096 385.228 374.917L390.391 375.415C390.597 376.89 390.984 378.225 391.518 379.614C392.643 378.571 394.422 376.524 396.034 376.437C397.851 376.446 399.678 376.492 401.492 376.359C400.928 374.822 400.229 373.59 399.259 372.266C399.919 371.117 400.729 369.959 400.99 368.649L400.821 368.095C399.641 367.52 396.747 368.484 395.489 368.816C393.836 367.91 391.932 366.631 390.017 366.452ZM393.912 396.615C392.081 397.156 390.297 397.767 388.509 398.435C386.944 398.024 385.422 397.548 383.892 397.026L383.915 401.051C382.242 402.244 380.592 403.425 379.185 404.935C380.563 405.01 384.267 404.875 385.238 405.775C385.413 405.938 385.513 406.105 385.644 406.297C386.326 407.463 386.979 408.672 387.725 409.797L391.394 405.298C393.434 405 395.325 404.649 397.269 403.95C395.983 402.662 394.635 401.528 393.102 400.543C393.522 399.337 393.923 398.18 394.133 396.914L393.912 396.615ZM351.753 405.036C348.633 406.128 345.441 407.136 342.384 408.39C340.066 407.083 337.739 406.164 335.195 405.391C335.406 407.459 335.676 409.541 335.715 411.62C333.785 413.502 331.615 415.129 329.728 417.046C332.542 418.186 335.538 418.238 337.881 419.188C338.975 421.123 340.034 423.145 341.31 424.966C343.062 423.066 344.796 421.183 346.382 419.138C349.53 418.894 352.681 418.674 355.833 418.479C354.241 416.133 352.092 414.04 350.198 411.931C350.634 410.062 351.862 406.821 351.753 405.036Z" fill="#4C1AAC"/>
<path d="M353.425 289.453C357.188 287.825 358.818 285.875 363.526 285.56C364.295 285.508 364.733 285.334 365.375 284.916C365.715 284.963 365.888 285.022 366.141 285.26C367.357 286.407 369.15 287.104 370.59 288.021C370.934 288.661 370.797 288.802 370.642 289.49C371.763 290.025 373.227 289.628 374.445 289.995C376.025 290.472 377.241 291.776 377.955 293.22C377.938 294.569 376.152 293.781 375.533 294.6C375.786 295.316 376.156 296.067 375.868 296.822C375.644 297.407 371.665 302.264 370.918 302.497C369.665 302.888 368.729 303.167 367.559 303.796C366.203 306.71 364.011 305.756 361.487 306.772C361.4 306.807 361.314 306.846 361.227 306.882C361.158 306.908 361.091 306.943 361.019 306.96C360.386 307.118 360.049 307.024 359.467 306.757C359.335 306.696 358.972 306.519 358.828 306.472C357.969 306.195 357.167 306.725 356.391 307.055C356.053 306.882 355.733 306.713 355.422 306.494C354.731 306.004 351.616 304.511 351.405 303.871L351.944 302.917L351.821 302.627C351.619 302.617 351.416 302.611 351.215 302.589C349.687 302.419 350.843 300.464 349.954 299.314C349.643 298.912 349.481 298.691 349.391 298.172C349.733 296.238 351.358 295.15 352.512 293.673C352.355 293.236 352.112 292.716 352.046 292.261C351.916 291.376 352.963 290.19 353.425 289.453Z" fill="#4C1AAC"/>
<path d="M161.484 302.415C164.892 297.175 168.369 291.859 172.683 287.31C173.722 288.49 174.479 290.602 175.305 291.998C176.53 294.066 177.962 296.033 179.316 298.019C175.028 298.622 170.795 299.566 166.658 300.843L161.484 302.415Z" fill="#4C1AAC"/>
<path d="M227.891 340.204C233.838 335.904 239.617 331.338 245.49 326.933L295.047 289.874C296.202 290.175 341.773 323.432 346.996 327.567C343.562 329.824 340.327 332.41 337.049 334.887C332.16 338.543 327.291 342.227 322.443 345.936C307.993 356.99 293.614 368.04 279.709 379.783C279.054 379.905 278.586 379.553 278.083 379.192C274.851 376.875 271.86 374.039 268.72 371.57L247.755 355.248C241.236 350.123 234.782 344.829 227.891 340.204ZM296.744 297.55C296.929 298.29 296.992 298.788 297.669 299.262C298.253 299.671 298.98 299.721 299.66 299.627C299.318 298.796 298.24 297.955 297.377 297.668C297.144 297.591 296.977 297.58 296.744 297.55ZM288.006 310.717L287.904 311.332L288.135 311.616C288.05 312.144 287.944 312.29 287.68 312.742C287.201 313.561 286.734 314.38 287.017 315.355C287.244 316.14 287.843 316.647 288.462 317.123C289.375 315.116 290.024 313.155 289.213 310.986C288.793 310.837 288.452 310.748 288.006 310.717ZM320.701 313.748C320.548 314.488 320.494 314.463 320.902 315.088C321.541 315.413 321.912 315.488 322.629 315.523L322.894 314.87C322.675 314.353 322.593 314.129 322.024 313.903C321.622 313.743 321.128 313.717 320.701 313.748ZM335.506 324.521C334.392 325.182 333.832 325.966 333.524 327.234C333.436 327.595 333.453 327.888 333.519 328.25L333.875 328.595L334.216 328.366C335.276 327.604 336.416 326.708 336.789 325.402C336.701 325.045 336.77 324.92 336.424 324.729C336.085 324.543 335.881 324.533 335.506 324.521ZM316.164 327.371L314.851 327.748L314.487 328.482C314.211 328.282 314.063 328.099 313.852 327.837C313.244 327.73 313.011 327.804 312.459 328.069C312.032 328.922 312.587 329.662 312.028 330.348C311.481 329.766 311.965 328.872 311.334 328.458C310.77 328.76 310.819 328.816 310.623 329.443C310.568 329.623 310.515 329.804 310.464 329.985C310.381 329.9 310.298 329.814 310.213 329.729C309.986 329.501 309.777 329.315 309.52 329.126L309.201 329.518C309.329 329.876 309.449 330.229 309.561 330.593L309.186 330.762C308.881 330.903 308.615 331.037 308.334 331.215L307.982 330.513L307.604 330.561C307.298 330.991 307.16 331.192 307.156 331.726C306.709 331.656 306.359 331.544 305.944 331.367C305.829 331.889 305.726 332.191 305.945 332.694L306.798 332.559C307.403 333.077 307.057 333.613 307.834 333.764L308.191 333.396C308.153 332.968 308.193 332.95 307.927 332.575C308.393 332.345 308.628 332.352 309.136 332.334L309.476 331.237L309.737 331.312C309.768 331.414 309.796 331.518 309.83 331.619C309.985 332.074 309.907 331.907 310.24 332.297L310.116 332.289L310.313 332.133L310.609 331.036L310.857 331.021L311.253 331.44C311.936 331.12 312.397 330.794 312.952 330.285C313.006 329.588 312.922 329.072 313.356 328.512C313.563 328.772 313.757 329.034 313.945 329.307C314.83 328.94 315.607 328.36 316.401 327.829L316.47 327.526L316.164 327.371ZM267.646 327.864C266.663 328.293 265.355 328.765 265.018 329.903C264.994 329.987 264.992 330.077 264.979 330.163L265.194 330.357L265.419 330.164C266.384 329.625 267.743 329.072 268.448 328.219L268.258 327.936L267.646 327.864ZM288.482 327.8C288.166 328.399 288.09 328.71 287.496 329.057C287.052 328.993 286.624 328.924 286.189 328.816C285.379 329.155 284.937 330.118 284.595 330.882L284.278 330.867C284.187 330.489 284.092 330.218 284.143 329.827L283.916 329.753L284.149 329.877C283.409 329.881 283.388 329.907 282.801 330.362C282.717 330.677 282.657 330.922 282.643 331.25L282.387 331.67L282.604 331.498L282.432 331.688L281.674 331.173L281.337 331.308C281.376 331.727 281.448 331.765 281.673 332.101C281.015 332.552 280.244 332.78 279.584 333.227C278.405 334.026 277.604 335.514 276.629 336.553C276.273 336.932 276.15 337.355 275.991 337.838C275.839 337.85 275.686 337.86 275.534 337.875C275.36 337.892 275.186 337.918 275.012 337.941C274.993 338.56 275.205 338.656 275.553 339.146L276.463 338.14C278.537 338.112 279.426 338.042 280.971 336.403C281.982 335.331 282.207 334.366 282.367 332.947C283.036 332.425 283.569 332.866 284.209 332.391C284.042 332.011 283.955 331.858 283.7 331.557C284.472 331.391 284.408 332.045 285.143 331.692C285.157 331.592 285.169 331.493 285.185 331.393C285.263 330.939 285.22 331.109 285.457 330.664L285.714 330.615L285.978 331.062C286.989 330.31 287.823 329.548 289.074 329.278L289.303 328.881C289.147 328.394 288.941 328.061 288.482 327.8ZM256.747 333.685C255.409 337.299 252.007 335.973 250.745 341.038C250.674 341.064 250.604 341.088 250.534 341.115C249.44 341.528 248.917 341.949 248.353 342.97C248.337 343.67 249.001 344.289 248.558 344.69C248.473 344.767 248.042 345.037 247.932 345.107L248.012 345.575C248.869 345.938 249.439 345.547 250.486 345.965L250.783 345.448C250.55 345.123 250.403 345.037 250.388 344.627C250.852 344.291 251.115 344.283 251.219 343.698C250.829 343.387 250.475 343.173 250.024 342.96L249.911 342.57L250.438 342.101C250.97 342.266 251.107 342.451 251.491 342.837C252.053 342.863 252.05 342.869 252.494 342.524C252.271 342.073 252.131 341.926 251.773 341.594C252.047 341.22 251.828 341.411 252.304 341.256C253.738 340.789 256.105 337.2 256.717 335.822C257.022 335.138 256.862 334.396 256.747 333.685ZM293.555 350.507C293.007 351.2 292.652 351.824 292.325 352.644C292.184 352.592 292.045 352.533 291.903 352.486C291.753 352.435 291.6 352.394 291.449 352.349C289.933 353.672 287.507 356.429 287.287 358.481L287.429 358.876C287.811 358.45 287.999 358.064 288.239 357.553L289.005 357.529L289.137 356.973L289.621 356.547C289.584 356.461 289.546 356.375 289.511 356.288C289.352 355.895 289.405 356.051 289.326 355.605L289.674 355.398L290.63 355.769L290.863 355.55C290.554 355.105 290.294 355.018 289.825 354.754L289.881 354.448C290.726 354.327 291.082 354.983 291.865 354.737L291.88 354.424L291.191 353.906L291.165 353.379C292.159 353.28 293.223 353.985 293.926 352.78C294.244 352.232 294.272 351.81 294.156 351.208C293.96 350.912 293.845 350.721 293.555 350.507ZM268.875 355.749C268.424 355.94 267.975 356.128 267.518 356.304C267.377 356.8 267.246 357.284 267.151 357.792L266.787 358.079C266.455 357.669 266.275 357.224 266.058 356.747C265.457 356.48 265.419 356.612 264.814 356.781C264.46 357.164 264.282 357.382 264.156 357.892L264.689 358.524C264.804 358.524 264.919 358.523 265.033 358.525C265.617 358.535 265.999 358.649 266.543 358.851C267.688 358.156 268.661 357.437 269.651 356.533C269.507 356.333 269.151 355.798 268.875 355.749ZM261.781 359.353C262.551 360.04 263.058 360.574 264.119 360.686L265.212 360.091L265.46 359.698C264.6 359.209 262.784 359.263 261.781 359.353Z" fill="#4C1AAC"/>
<path d="M299.658 299.627C298.979 299.721 298.252 299.671 297.667 299.262C296.99 298.788 296.928 298.29 296.742 297.55C296.975 297.58 297.142 297.591 297.375 297.668C298.238 297.955 299.317 298.796 299.658 299.627Z" fill="#9444E4"/>
<path d="M131.97 355.48C131.246 344.097 131.956 331.692 138.957 322.183C146.623 311.769 162.657 305.261 175.238 303.361C176.22 303.16 177.544 303.128 178.54 303.203C179.979 303.312 181.39 303.764 182.335 304.911C183.401 306.202 183.611 307.964 183.445 309.578C183.157 312.358 181.742 315.185 179.958 317.314C175.492 322.64 168.887 326.884 163.419 331.159L136.923 351.953C135.346 353.153 133.739 354.597 131.97 355.48Z" fill="#4C1AAC"/>
<path d="M433.958 313.648C436.762 311.661 439.941 310.17 443.124 308.909C443.796 308.881 444.136 308.73 444.668 309.164C445.022 311.284 441.698 315.316 440.513 317.083C442.585 318.065 446.263 319.677 447.372 321.807C447.378 322.4 447.434 322.561 446.954 322.983C445.426 324.324 437.699 323.915 435.524 323.924C434.366 325.916 432.15 331.682 430.229 332.675C429.728 332.934 429.303 333.051 428.771 332.794C427.116 331.997 426.494 328.365 426.113 326.74C426.1 326.225 426.04 325.739 425.97 325.23C423.594 324.538 418.491 326.898 416.033 325.58C415.707 325.405 415.76 325.253 415.676 324.928C416.638 322.087 422.418 319.429 424.943 317.967C424.546 316.237 423.606 313.292 424.264 311.594C424.472 311.059 424.772 310.613 425.335 310.41C427.481 309.635 432.107 312.603 433.958 313.648Z" fill="#9444E4"/>
<path d="M288.461 317.123C287.842 316.647 287.243 316.14 287.015 315.355C286.733 314.379 287.199 313.561 287.678 312.742C287.942 312.29 288.049 312.144 288.133 311.616L287.902 311.332L288.005 310.717C288.451 310.748 288.792 310.837 289.212 310.986C290.023 313.155 289.374 315.116 288.461 317.123Z" fill="#9444E4"/>
<path d="M322.628 315.523C321.911 315.487 321.54 315.412 320.901 315.088C320.492 314.463 320.547 314.488 320.699 313.748C321.126 313.717 321.621 313.743 322.022 313.903C322.591 314.129 322.673 314.353 322.893 314.87L322.628 315.523Z" fill="#9444E4"/>
<path d="M334.215 328.366L333.875 328.595L333.518 328.25C333.452 327.888 333.435 327.595 333.524 327.234C333.831 325.966 334.391 325.182 335.505 324.521C335.88 324.533 336.084 324.543 336.423 324.73C336.77 324.92 336.7 325.045 336.788 325.402C336.415 326.708 335.275 327.604 334.215 328.366Z" fill="#9444E4"/>
<path d="M305.944 331.367C306.359 331.544 306.709 331.656 307.156 331.726C307.16 331.192 307.298 330.991 307.604 330.561L307.982 330.513L308.334 331.215C308.615 331.037 308.881 330.903 309.186 330.762L309.561 330.593C309.449 330.229 309.329 329.876 309.201 329.518L309.52 329.126C309.777 329.315 309.986 329.501 310.213 329.729C310.298 329.814 310.381 329.9 310.464 329.985C310.515 329.804 310.568 329.623 310.623 329.443C310.819 328.816 310.77 328.76 311.334 328.458C311.965 328.872 311.481 329.766 312.028 330.348C312.587 329.662 312.032 328.922 312.459 328.069C313.011 327.804 313.244 327.73 313.852 327.837C314.063 328.099 314.211 328.282 314.487 328.482L314.851 327.748L316.164 327.371L316.47 327.526L316.401 327.829C315.607 328.36 314.83 328.94 313.945 329.307C313.757 329.034 313.563 328.772 313.356 328.512C312.922 329.073 313.006 329.588 312.952 330.285C312.397 330.794 311.936 331.12 311.253 331.44L310.857 331.021L310.609 331.036L310.313 332.133L310.116 332.289L310.24 332.298C309.907 331.907 309.985 332.074 309.83 331.619C309.796 331.518 309.768 331.414 309.737 331.312L309.476 331.237L309.136 332.335C308.628 332.352 308.393 332.345 307.927 332.575C308.193 332.951 308.153 332.968 308.191 333.396L307.834 333.764C307.057 333.613 307.403 333.077 306.798 332.559L305.945 332.694C305.726 332.191 305.829 331.889 305.944 331.367Z" fill="#9444E4"/>
<path d="M395.976 329.883C397.179 328.715 398.36 328.014 399.875 327.345C400.191 327.465 400 327.366 400.382 327.743C400.422 328.849 399.926 329.949 399.578 330.988C401.369 331.199 403.111 331.528 404.875 331.895C403.678 333.149 402.128 333.905 400.596 334.664C400.932 335.673 401.112 336.743 401.331 337.783C399.629 337.419 397.956 336.734 396.315 336.155C395.012 336.708 393.856 337.503 392.672 338.27L391.781 338.129L391.537 337.657C391.673 336.696 392.053 335.849 392.414 334.955C391.508 334.88 390.298 334.911 389.453 334.596C388.999 334.427 388.982 334.36 388.764 333.914C389.271 332.719 391.459 332.117 392.598 331.653L392.402 331.394C391.888 330.725 391.481 330.269 391.316 329.426C391.433 329.097 391.384 328.933 391.743 328.799C392.952 328.351 394.828 329.445 395.976 329.883Z" fill="#FFD2FF"/>
<path d="M265.417 330.163L265.192 330.357L264.977 330.162C264.99 330.076 264.992 329.987 265.016 329.903C265.353 328.765 266.661 328.293 267.644 327.863L268.256 327.935L268.446 328.219C267.741 329.072 266.382 329.625 265.417 330.163Z" fill="#9444E4"/>
<path d="M275.552 339.146C275.204 338.656 274.993 338.56 275.011 337.941C275.185 337.918 275.359 337.892 275.534 337.875C275.685 337.86 275.838 337.85 275.99 337.838C276.149 337.355 276.272 336.933 276.628 336.553C277.603 335.514 278.405 334.026 279.584 333.227C280.243 332.78 281.015 332.553 281.672 332.101C281.447 331.766 281.376 331.727 281.337 331.308L281.673 331.173L282.432 331.688L282.603 331.498L282.387 331.67L282.642 331.25C282.657 330.922 282.717 330.677 282.8 330.362C283.387 329.907 283.408 329.881 284.148 329.877L283.915 329.753L284.142 329.827C284.091 330.218 284.186 330.489 284.278 330.867L284.594 330.882C284.936 330.118 285.378 329.156 286.188 328.816C286.623 328.924 287.052 328.993 287.495 329.057C288.089 328.71 288.165 328.399 288.481 327.8C288.94 328.061 289.146 328.394 289.302 328.881L289.073 329.278C287.822 329.548 286.988 330.311 285.977 331.062L285.713 330.615L285.456 330.664C285.219 331.109 285.262 330.939 285.185 331.393C285.168 331.493 285.156 331.593 285.142 331.692C284.407 332.045 284.471 331.391 283.7 331.557C283.954 331.858 284.041 332.011 284.208 332.391C283.568 332.866 283.035 332.426 282.366 332.947C282.206 334.366 281.981 335.331 280.97 336.403C279.425 338.042 278.536 338.112 276.462 338.14L275.552 339.146Z" fill="#9444E4"/>
<path d="M250.485 345.965C249.438 345.547 248.868 345.938 248.011 345.575L247.932 345.107C248.041 345.037 248.472 344.767 248.557 344.69C249 344.289 248.337 343.67 248.353 342.97C248.916 341.949 249.439 341.528 250.533 341.115C250.603 341.088 250.673 341.064 250.744 341.038C252.006 335.973 255.408 337.299 256.746 333.685C256.861 334.396 257.021 335.138 256.716 335.822C256.104 337.2 253.738 340.789 252.303 341.256C251.827 341.411 252.046 341.22 251.772 341.594C252.13 341.926 252.27 342.073 252.493 342.524C252.049 342.869 252.052 342.863 251.49 342.837C251.106 342.451 250.97 342.266 250.438 342.101L249.91 342.57L250.023 342.96C250.474 343.173 250.828 343.387 251.218 343.698C251.114 344.283 250.851 344.291 250.387 344.627C250.402 345.037 250.549 345.123 250.782 345.448L250.485 345.965Z" fill="#9444E4"/>
<path d="M447.835 346.732C448.731 345.855 449.683 345.178 450.714 344.479C451.008 344.498 451.302 344.576 451.591 344.633L451.895 345.097C451.862 346.024 451.352 346.752 450.909 347.539C452.269 348.131 453.989 348.695 455.118 349.679C455.601 350.099 455.738 350.276 455.777 350.911C454.713 352.291 452.491 352.53 450.892 352.94C450.874 353.433 450.856 353.928 450.804 354.42C450.69 355.48 450.209 356.42 449.333 357.056C448.914 357.359 448.45 357.432 447.958 357.321C446.92 357.087 446.347 356.187 445.8 355.354C445.453 354.775 445.229 354.152 444.984 353.525C443.437 353.441 440.783 353.557 439.653 352.408C439.4 352.15 439.483 351.978 439.479 351.645C440.369 350.221 442.012 349.837 443.503 349.258C443.114 348.59 442.635 347.909 442.688 347.102C442.728 346.485 442.964 346.203 443.396 345.805C444.653 345.509 446.612 346.394 447.835 346.732Z" fill="#FFD2FF"/>
<path d="M0 432.969C27.1631 404.186 65.625 379.343 99.9398 359.769C108.933 354.639 118.037 349.088 127.525 344.943C127.457 349.466 127.588 353.56 128.648 357.989L83.3109 393.215L69.9876 403.405C66.2779 406.227 62.2022 408.891 59.1117 412.403C55.9045 416.048 53.6268 420.929 53.0658 425.769C52.4011 431.199 53.985 436.664 57.4504 440.897C61.2131 445.528 65.8054 449.76 70.0007 454.023C78.6197 462.728 87.2854 471.389 95.9976 480H0V432.969Z" fill="#4C1AAC"/>
<path d="M270.48 389.994C259.198 381.25 248.42 371.788 237.275 362.861C233.926 360.179 219.495 349.799 217.901 347.567C217.857 346.795 218.163 346.481 218.54 345.819C219.056 345.882 219.429 346.075 219.853 346.363C222.4 348.087 224.769 350.306 227.215 352.196C236.038 359.016 244.563 366.148 253.159 373.248L264.271 382.431C266.51 384.284 269.077 386.133 270.967 388.339C270.969 389.098 270.858 389.369 270.48 389.994Z" fill="#4C1AAC"/>
<path d="M289.137 356.973L289.005 357.529L288.239 357.553C287.999 358.064 287.811 358.45 287.429 358.875L287.287 358.481C287.506 356.428 289.933 353.672 291.449 352.349C291.6 352.394 291.752 352.435 291.902 352.485C292.045 352.533 292.184 352.591 292.325 352.644C292.652 351.824 293.007 351.2 293.555 350.507C293.844 350.721 293.959 350.912 294.156 351.208C294.272 351.809 294.244 352.232 293.926 352.779C293.223 353.984 292.158 353.28 291.165 353.379L291.191 353.906L291.88 354.424L291.865 354.736C291.082 354.982 290.726 354.327 289.881 354.448L289.825 354.754C290.294 355.018 290.553 355.105 290.863 355.55L290.63 355.769L289.674 355.398L289.326 355.604C289.404 356.051 289.352 355.895 289.51 356.287C289.546 356.375 289.584 356.46 289.621 356.547L289.137 356.973Z" fill="#9444E4"/>
<path d="M209.867 378.922C209.379 376.912 208.772 374.948 207.791 373.116C204.238 374.318 200.779 375.875 197.294 377.266C192.627 379.127 187.943 380.837 183.389 382.976C181.683 381.299 180.129 379.578 178.645 377.704C182.001 374.905 185.675 372.425 189.188 369.824C195.808 364.923 202.476 359.978 208.975 354.921C212.922 358.295 217.142 361.388 221.17 364.671C231.167 372.787 241.08 381.005 250.91 389.322C253.774 391.753 258.663 394.967 260.62 397.912C251.531 405.642 241.787 412.635 232.867 420.571C230.733 419.087 227.808 418.297 225.362 417.435C227.679 416.456 227.488 415.726 229.147 414.552C230.432 413.642 232.673 413.54 233.592 412.201C234.35 411.097 234.106 409.761 233.842 408.548C235.702 407.58 237.139 406.867 238.278 404.984C238.904 403.949 239.503 402.167 239.046 400.967C238.832 400.406 238.509 400.022 237.944 399.816C236.912 399.44 236.086 399.817 235.154 400.27C235.28 398.912 235.207 397.772 235.005 396.434C236.155 395.513 236.778 394.413 236.99 392.947C237.199 391.508 236.906 389.971 235.988 388.816C235.372 388.041 234.73 387.759 233.766 387.631C233.238 387.561 232.608 387.507 232.12 387.269C231.206 386.823 231.31 383.14 229.473 382.025C227.845 381.037 226.878 381.605 225.206 381.853C224.369 381.977 223.894 381.281 223.275 380.785C220.017 378.177 219.619 380.313 216.566 380.644C216.449 380.496 216.326 380.352 216.215 380.199C215.343 378.997 214.042 378.619 212.699 378.153C211.736 378.352 210.807 378.638 209.867 378.922Z" fill="#FFD2FF"/>
<path d="M264.687 358.525L264.154 357.892C264.28 357.382 264.459 357.164 264.812 356.781C265.418 356.612 265.455 356.48 266.056 356.748C266.274 357.224 266.454 357.669 266.785 358.079L267.149 357.792C267.245 357.284 267.376 356.801 267.516 356.304C267.973 356.128 268.423 355.94 268.873 355.749C269.15 355.798 269.505 356.333 269.649 356.533C268.659 357.437 267.687 358.156 266.542 358.851C265.997 358.649 265.615 358.535 265.032 358.525C264.917 358.523 264.802 358.525 264.687 358.525Z" fill="#FFD2FF"/>
<path d="M265.212 360.09L264.119 360.686C263.058 360.574 262.551 360.04 261.781 359.353C262.784 359.263 264.6 359.209 265.46 359.698L265.212 360.09Z" fill="#FFD2FF"/>
<path d="M328.274 374.246C328.321 371.3 328.367 368.366 328.587 365.426C331.606 366.538 334.497 367.996 337.398 369.381C340.978 368.452 344.601 367.662 348.205 366.825C347.458 369.591 346.76 372.416 345.739 375.094C347.762 377.464 349.772 379.844 351.415 382.5C349.472 382.552 341.439 382.399 340.292 383.391C338.618 385.888 337.005 388.424 335.455 391C333.726 388.597 332.307 385.816 330.353 383.598C326.837 382.798 323.307 382.059 319.766 381.383C322.615 379.019 325.451 376.64 328.274 374.246Z" fill="#9444E4"/>
<path d="M390.024 370.508C389.953 369.159 389.999 367.803 390.017 366.453C391.933 366.632 393.836 367.91 395.489 368.816C396.747 368.485 399.641 367.52 400.821 368.095L400.99 368.649C400.729 369.96 399.919 371.118 399.259 372.266C400.229 373.59 400.928 374.823 401.492 376.359C399.678 376.492 397.851 376.446 396.034 376.437C394.423 376.524 392.643 378.572 391.518 379.614C390.984 378.225 390.597 376.891 390.391 375.415L385.229 374.918C386.691 373.097 388.086 371.824 390.024 370.508Z" fill="#FFD2FF"/>
<path d="M370.109 454.324C376.899 448.372 384.432 442.991 391.555 437.429L433.087 405.159L463.588 381.562C468.999 377.385 474.253 372.819 480 369.115V371.44L406.154 428.815C395.053 437.314 384.023 445.905 373.065 454.586C378.346 458.652 383.392 462.949 388.582 467.122C393.97 471.455 399.488 475.622 404.839 480H401.734L380.66 463.229C377.176 460.441 373.077 457.655 370.109 454.324Z" fill="#4C1AAC"/>
<path d="M373.064 454.586C384.022 445.905 395.053 437.314 406.153 428.815L479.999 371.44V480H404.838C399.487 475.622 393.969 471.455 388.581 467.122C383.391 462.949 378.345 458.652 373.064 454.586ZM470.971 387.355C468.56 388.813 467.958 391.432 467.322 394.019C466.701 396.546 465.289 401.544 466.808 403.911C467.26 404.615 467.965 404.913 468.754 405.089C471.763 402.435 473.118 395.489 473.362 391.606C473.437 390.379 473.418 389.022 472.574 388.044C472.134 387.533 471.623 387.399 470.971 387.355ZM454.215 410.131C453.505 410.634 452.822 411.047 452.658 411.976C452.526 412.731 452.706 413.366 453.154 413.99C453.629 414.65 454.687 415.288 455.503 415.371C455.89 415.411 456.286 415.395 456.674 415.381C457.284 415.037 457.821 414.735 458.075 414.028C458.331 413.313 458.218 412.556 457.828 411.916C457.339 411.114 456.346 410.286 455.393 410.147C455.009 410.091 454.602 410.114 454.215 410.131ZM437.342 412.037C436.873 412.646 436.693 412.821 436.571 413.599C436.828 414.162 436.991 414.463 437.576 414.731C438.227 415.03 438.921 415.084 439.622 415.043C440.061 414.472 440.456 414.061 440.481 413.306C440.234 412.743 440.072 412.477 439.486 412.223C438.801 411.926 438.064 411.972 437.342 412.037ZM423.357 419.498C423.088 420.207 422.986 420.574 423.06 421.328C423.426 421.878 423.543 422.073 424.209 422.288C424.739 422.459 425.556 422.361 426.11 422.32C426.387 421.57 426.463 421.41 426.324 420.591C425.963 420.04 425.563 419.731 424.918 419.581C424.431 419.468 423.854 419.487 423.357 419.498ZM461.429 427.042C460.442 427.849 459.694 428.522 459.613 429.861C459.559 430.734 460.049 431.578 460.663 432.16C462.078 433.502 463.581 433.705 465.437 433.621C466.263 432.995 467.009 432.329 467.139 431.238C467.236 430.424 466.885 429.648 466.368 429.037C465.464 427.969 463.911 427.055 462.492 427.018C462.137 427.008 461.783 427.024 461.429 427.042ZM437.922 431.92C437.385 432.572 437.278 432.637 437.205 433.516C437.486 434.294 437.905 434.69 438.628 435.053C439.763 435.622 440.741 435.787 441.995 435.738C442.483 435.119 442.576 435.075 442.599 434.299C442.065 433.063 441.1 432.568 439.863 432.113C439.218 431.875 438.596 431.883 437.922 431.92ZM409.34 433.178C408.457 433.432 407.829 433.648 407.097 434.211C406.945 434.562 406.771 434.689 406.943 435.069C407.574 436.463 410.144 437.397 411.565 437.813C413.651 438.445 415.845 438.636 418.009 438.375C418.732 438.025 419.372 437.805 419.774 437.063C419.772 436.469 419.746 436.185 419.323 435.734C417.442 433.729 412.84 433.05 410.221 433.131C409.927 433.14 409.633 433.156 409.34 433.178ZM433.548 447.694C432.344 448.288 431.29 448.875 430.838 450.22C430.432 451.429 430.827 452.64 431.449 453.698C432.585 455.632 434.794 457.393 437.008 457.885C437.834 458.068 438.743 458.003 439.585 457.981C440.684 457.548 441.585 456.892 442.054 455.768C442.474 454.758 442.249 453.683 441.806 452.723C440.813 450.569 438.633 448.705 436.415 447.904C435.483 447.568 434.519 447.647 433.548 447.694ZM468.787 447.482C468.267 448.034 468.02 448.186 467.874 448.943C468.242 449.553 468.673 449.773 469.359 449.959C469.443 449.982 469.532 449.998 469.617 450.017C470.071 449.433 470.231 449.367 470.217 448.606C469.823 448.019 469.387 447.803 468.787 447.482ZM384.523 454.456C384.29 455.16 384.052 455.513 384.351 456.252C385.137 458.196 389.757 459.803 391.641 460.328C392.47 460.56 393.287 460.622 394.144 460.663C394.253 459.524 394.103 458.696 393.362 457.788C391.783 455.852 388.343 454.63 385.877 454.468C385.426 454.436 384.974 454.433 384.523 454.456ZM400.845 460.281C400.328 460.861 400.24 460.859 400.227 461.624C400.525 462.138 400.89 462.491 401.482 462.64C401.782 462.715 402.118 462.705 402.422 462.711C402.927 462.196 403.132 462.072 403.293 461.353C403.019 460.833 402.79 460.559 402.188 460.407C401.766 460.302 401.279 460.302 400.845 460.281ZM464.949 460.754C464.853 461.641 464.912 462.05 465.465 462.767C467.411 465.292 471.848 468.049 475.073 468.468C475.813 468.564 476.629 468.513 477.365 468.388C477.571 467.726 477.487 467.433 477.145 466.822C475.556 463.993 469.645 461.693 466.595 461.022C466.052 460.903 465.502 460.814 464.949 460.754ZM413.823 462.236C412.738 462.788 411.84 463.292 411.482 464.529C411.22 465.432 411.668 466.41 412.183 467.128C413.322 468.714 415.448 470.105 417.398 470.367C417.978 470.442 418.561 470.419 419.143 470.381C419.967 470.006 420.786 469.486 421.153 468.606C421.487 467.806 421.423 467.029 421.06 466.259C420.237 464.509 418.416 463.074 416.605 462.466C415.668 462.151 414.798 462.174 413.823 462.236ZM446.985 465.293C446.328 465.633 446.287 465.691 445.933 466.343C445.943 467.384 446.471 468.04 447.213 468.736C450.193 471.534 455.382 474.145 459.517 474.202C460.022 473.831 460.435 473.677 460.504 472.997C460.616 471.891 459.47 470.742 458.721 470.081C455.672 467.398 451.091 465.092 446.985 465.293ZM442.307 475.598C442.004 476.236 441.998 476.283 442.123 476.977C442.663 477.586 443.21 477.83 444.016 477.891C444.321 477.914 444.628 477.914 444.934 477.914C445.106 477.258 445.13 476.934 444.987 476.25C444.589 475.828 444.293 475.598 443.688 475.542C443.241 475.5 442.754 475.566 442.307 475.598Z" fill="#9444E4"/>
<path d="M209.867 378.923C210.807 378.639 211.736 378.353 212.699 378.153C214.042 378.619 215.343 378.998 216.215 380.2C216.326 380.352 216.449 380.496 216.566 380.644C219.619 380.313 220.017 378.177 223.275 380.785C223.894 381.281 224.369 381.978 225.206 381.853C226.878 381.605 227.845 381.037 229.473 382.025C231.31 383.14 231.206 386.823 232.12 387.269C232.608 387.507 233.238 387.561 233.766 387.631C234.73 387.759 235.372 388.042 235.988 388.816C236.906 389.971 237.199 391.508 236.99 392.948C236.778 394.413 236.155 395.513 235.005 396.434C234.455 395.879 234.228 395.492 233.454 395.321C232.67 395.668 232.143 396.296 231.551 396.896C232.565 398.389 233.14 399.845 233.628 401.581C234.094 401.188 234.775 400.733 235.154 400.27C236.086 399.817 236.912 399.44 237.944 399.816C238.509 400.022 238.832 400.406 239.046 400.967C239.503 402.168 238.904 403.949 238.278 404.984C237.139 406.868 235.702 407.58 233.842 408.548C234.106 409.761 234.35 411.098 233.592 412.201C232.673 413.54 230.432 413.642 229.147 414.552C227.488 415.727 227.679 416.456 225.362 417.435C227.808 418.297 230.733 419.088 232.867 420.571C229.407 423.553 225.707 426.269 222.106 429.078L203.767 443.408C195.471 449.893 187.397 456.9 178.872 463.053C174.947 459.075 170.791 455.156 166.492 451.587L179.793 436.639C183.123 432.873 186.801 427.976 190.81 425.014C192.368 423.864 194.598 423.216 196.398 422.504C195.857 422.401 195.321 422.276 194.79 422.129C193.204 421.702 191.237 421.158 190.417 419.588C189.601 418.028 190.201 416.581 190.718 415.049C190.088 414.949 189.462 414.819 188.845 414.66C186.306 414.027 183.682 412.565 182.353 410.227C181.755 409.174 181.498 407.934 181.837 406.754C182.454 404.604 184.278 403.676 186.104 402.707C185.77 401.616 185.411 400.506 185.342 399.361C185.205 396.834 186.096 394.359 187.812 392.499C190.405 389.636 193.634 388.761 197.338 388.583C197.372 388.486 197.409 388.389 197.443 388.291C200.105 380.555 206.368 383.235 208.548 381.403C208.872 380.555 209.186 379.833 209.731 379.101C209.776 379.041 209.822 378.982 209.867 378.923Z" fill="#4C1AAC"/>
<path d="M468.755 405.089C467.966 404.913 467.261 404.615 466.809 403.911C465.29 401.544 466.702 396.546 467.323 394.019C467.959 391.432 468.561 388.813 470.972 387.355C471.624 387.4 472.135 387.533 472.576 388.044C473.419 389.022 473.438 390.379 473.363 391.607C473.119 395.489 471.765 402.435 468.755 405.089Z" fill="#FFD2FF"/>
<path d="M231.553 396.895C232.144 396.295 232.672 395.668 233.455 395.321C234.23 395.492 234.456 395.879 235.006 396.434C235.209 397.772 235.282 398.912 235.156 400.27C234.776 400.733 234.096 401.188 233.63 401.581C233.142 399.845 232.566 398.389 231.553 396.895Z" fill="#9444E4"/>
<path d="M342.286 449.034C339.864 447.937 328.835 438.214 325.756 435.705L291.621 407.799C287.533 404.417 283.276 401.2 279.295 397.694C279.301 396.954 279.778 396.734 280.289 396.226C280.435 396.286 280.587 396.336 280.729 396.406C282.221 397.151 283.839 398.822 285.151 399.898L294.475 407.523L321.553 429.86C328.048 435.187 334.758 440.362 341.057 445.915C341.744 446.52 342.631 447.215 342.907 448.112L342.286 449.034Z" fill="#4C1AAC"/>
<path d="M388.509 398.435C390.298 397.767 392.082 397.156 393.912 396.615L394.134 396.914C393.924 398.18 393.522 399.338 393.102 400.543C394.636 401.528 395.984 402.662 397.269 403.95C395.326 404.649 393.435 405.001 391.395 405.298L387.726 409.797C386.98 408.672 386.327 407.463 385.645 406.297C385.514 406.105 385.413 405.938 385.239 405.775C384.268 404.875 380.564 405.01 379.186 404.935C380.592 403.426 382.243 402.244 383.916 401.051L383.893 397.026C385.423 397.548 386.945 398.025 388.509 398.435Z" fill="#9444E4"/>
<path d="M128.219 414.268C137.429 409.98 147.451 402.978 157.158 400.311L157.623 400.433C159.166 402.224 159.742 404.792 160.472 407.005C154.03 413.693 146.824 419.473 140.771 426.573C139.215 425.261 137.778 423.856 136.337 422.424L128.219 414.268Z" fill="#FFD2FF"/>
<path d="M342.384 408.39C345.441 407.136 348.633 406.128 351.753 405.037C351.862 406.822 350.634 410.062 350.198 411.931C352.092 414.04 354.241 416.133 355.833 418.479C352.681 418.674 349.53 418.894 346.382 419.138C344.796 421.183 343.062 423.066 341.31 424.966C340.034 423.145 338.975 421.124 337.881 419.189C335.538 418.238 332.542 418.186 329.729 417.046C331.615 415.129 333.785 413.502 335.715 411.62C335.676 409.541 335.406 407.46 335.196 405.391C337.739 406.164 340.066 407.083 342.384 408.39Z" fill="#FFD2FF"/>
<path d="M456.674 415.381C456.286 415.394 455.889 415.41 455.502 415.371C454.687 415.288 453.629 414.65 453.154 413.99C452.705 413.366 452.525 412.731 452.658 411.975C452.821 411.047 453.504 410.634 454.215 410.131C454.602 410.113 455.009 410.09 455.393 410.147C456.346 410.285 457.339 411.114 457.827 411.915C458.217 412.556 458.33 413.313 458.074 414.028C457.821 414.734 457.284 415.037 456.674 415.381Z" fill="#FFD2FF"/>
<path d="M439.623 415.043C438.922 415.084 438.228 415.03 437.577 414.731C436.992 414.463 436.829 414.162 436.572 413.599C436.694 412.821 436.874 412.646 437.343 412.037C438.065 411.972 438.802 411.926 439.487 412.223C440.073 412.477 440.235 412.743 440.482 413.306C440.457 414.061 440.062 414.472 439.623 415.043Z" fill="#FFD2FF"/>
<path d="M426.11 422.32C425.556 422.361 424.739 422.458 424.209 422.287C423.544 422.073 423.426 421.878 423.06 421.328C422.987 420.574 423.089 420.206 423.357 419.498C423.855 419.486 424.432 419.468 424.918 419.581C425.564 419.731 425.964 420.04 426.324 420.591C426.463 421.409 426.387 421.57 426.11 422.32Z" fill="#FFD2FF"/>
<path d="M465.438 433.62C463.582 433.705 462.079 433.502 460.664 432.16C460.05 431.578 459.56 430.734 459.613 429.861C459.695 428.522 460.443 427.849 461.43 427.042C461.784 427.024 462.138 427.008 462.492 427.017C463.911 427.055 465.465 427.969 466.369 429.037C466.886 429.648 467.237 430.424 467.14 431.238C467.01 432.329 466.264 432.995 465.438 433.62Z" fill="#FFD2FF"/>
<path d="M301.463 455.403C310.332 453.441 318.208 450.915 327.486 451.303C329.868 452.652 331.966 454.318 334.112 456.007C323.489 463.666 313.071 471.825 302.836 480H276.045C278.829 476.559 281.724 472.912 284.108 469.191L283.945 468.994C283.681 468.998 283.398 468.994 283.139 469.05C282.665 469.158 282.463 469.392 282.192 469.772C280.337 472.378 279.177 470.273 277.289 471.323C276.587 471.712 276.297 472.687 275.592 473.114C275.037 473.452 274.226 473.381 273.625 473.259C273.27 473.184 273.213 473.133 272.859 473.245C272.827 473.747 272.822 474.061 272.544 474.487C272.002 474.684 271.503 474.778 270.925 474.647C270.189 474.473 269.917 473.803 269.576 473.208C269.526 473.119 269.479 473.034 269.431 472.945C269.208 473.297 268.973 473.723 268.685 474.019C268.231 474.492 267.753 474.656 267.106 474.652C266.485 474.652 266.008 474.427 265.565 474.005C265.409 473.555 265.482 473.316 265.606 472.87C265.665 472.659 265.733 472.453 265.783 472.242C265.924 471.647 265.961 471.464 265.642 470.939C264.774 470.536 263.722 470.902 262.819 471.075L262.567 470.939L262.186 470.723C261.854 470.536 261.431 470.353 261.15 470.1C260.726 469.711 260.499 469.162 260.554 468.584C260.696 467.11 262.733 467.287 263.678 466.577C264.132 464.614 260.102 461.11 258.902 459.478C258.089 458.368 257.411 457.164 256.883 455.892C255.743 453.187 254.007 449.263 255.255 446.36C256.159 444.257 257.904 442.675 259.174 440.802C259.944 439.665 260.448 438.348 261.069 437.127C262.722 433.877 265.4 431.916 268.707 430.592C275.892 427.717 283.939 426.258 290.625 431.027C292.342 432.251 293.816 434.164 295.751 435.001C296.803 434.321 298.188 433.364 299.52 433.523C300.496 433.64 301.669 434.458 302.273 435.224L302.173 435.528L301.317 435.494C300.923 435.905 300.758 436.029 300.611 436.57C301.128 436.601 301.693 436.605 302.198 436.717C302.751 436.841 303.107 437.202 303.311 437.722C303.614 438.496 303.426 438.872 303.018 439.524C304.009 440.241 305.242 440.807 305.928 441.851C306.351 442.495 306.594 443.343 306.364 444.103C305.94 445.504 304.298 446.836 303.056 447.456C302.965 447.501 302.872 447.544 302.78 447.588C302.592 448.946 302.442 450.312 302.275 451.672C301.787 452.606 301.665 454.334 301.463 455.403Z" fill="#4C1AAC"/>
<path d="M151.072 434.967C155.761 433.532 160.375 432.022 164.974 430.316L165.498 430.445C166.836 431.832 167.204 434.483 167.676 436.326C165.24 438.89 163.166 441.866 161.314 444.869C160.175 443.666 158.922 442.55 157.719 441.411C155.491 439.275 153.275 437.127 151.072 434.967Z" fill="#FFD2FF"/>
<path d="M441.995 435.738C440.741 435.787 439.763 435.622 438.628 435.053C437.905 434.69 437.486 434.294 437.205 433.516C437.278 432.637 437.385 432.572 437.922 431.92C438.596 431.883 439.218 431.875 439.863 432.113C441.1 432.568 442.065 433.063 442.599 434.299C442.576 435.075 442.483 435.119 441.995 435.738Z" fill="#FFD2FF"/>
<path d="M418.008 438.375C415.845 438.636 413.65 438.445 411.564 437.813C410.143 437.397 407.574 436.463 406.943 435.069C406.771 434.689 406.944 434.562 407.096 434.211C407.829 433.648 408.456 433.432 409.339 433.179C409.632 433.156 409.926 433.14 410.22 433.131C412.839 433.05 417.441 433.729 419.322 435.734C419.745 436.185 419.771 436.469 419.773 437.063C419.371 437.805 418.732 438.025 418.008 438.375Z" fill="#FFD2FF"/>
<path d="M327.486 451.303C318.208 450.915 310.332 453.441 301.463 455.403C301.664 454.335 301.786 452.606 302.275 451.673C302.472 451.444 302.394 451.555 302.548 451.293C305.31 446.566 310.19 443.093 314.321 439.604C318.438 443.719 323.153 447.406 327.486 451.303Z" fill="#FFD2FF"/>
<path d="M439.584 457.981C438.743 458.003 437.833 458.069 437.007 457.885C434.793 457.393 432.584 455.632 431.448 453.698C430.826 452.64 430.431 451.429 430.837 450.221C431.289 448.875 432.344 448.289 433.547 447.695C434.518 447.648 435.482 447.568 436.414 447.904C438.632 448.706 440.812 450.569 441.805 452.723C442.248 453.684 442.473 454.758 442.053 455.768C441.584 456.892 440.683 457.549 439.584 457.981Z" fill="#FFD2FF"/>
<path d="M469.617 450.017C469.533 449.998 469.444 449.982 469.36 449.959C468.673 449.773 468.243 449.553 467.875 448.943C468.021 448.186 468.268 448.033 468.788 447.482C469.388 447.803 469.824 448.019 470.217 448.606C470.231 449.367 470.072 449.433 469.617 450.017Z" fill="#FFD2FF"/>
<path d="M394.144 460.663C393.287 460.622 392.47 460.56 391.64 460.329C389.757 459.803 385.137 458.197 384.35 456.252C384.052 455.513 384.29 455.16 384.523 454.457C384.974 454.433 385.426 454.437 385.877 454.468C388.343 454.631 391.783 455.853 393.362 457.788C394.103 458.697 394.253 459.524 394.144 460.663Z" fill="#FFD2FF"/>
<path d="M378.727 480C373.495 476.048 368.527 471.68 363.477 467.495C361.162 465.577 358.608 463.829 356.349 461.873C355.981 461.554 355.79 461.242 355.7 460.754C355.629 460.369 355.754 460.197 355.883 459.847C356.163 459.684 356.282 459.514 356.622 459.601C357.898 459.927 379.157 477.675 381.76 480H378.727Z" fill="#4C1AAC"/>
<path d="M402.423 462.711C402.119 462.705 401.783 462.715 401.484 462.64C400.891 462.491 400.527 462.138 400.229 461.624C400.241 460.859 400.329 460.862 400.846 460.281C401.281 460.302 401.767 460.302 402.189 460.407C402.792 460.559 403.02 460.833 403.295 461.353C403.134 462.072 402.928 462.197 402.423 462.711Z" fill="#FFD2FF"/>
<path d="M477.366 468.388C476.63 468.513 475.814 468.564 475.074 468.468C471.849 468.049 467.412 465.292 465.466 462.767C464.913 462.05 464.853 461.641 464.95 460.754C465.503 460.814 466.053 460.903 466.596 461.022C469.645 461.693 475.556 463.993 477.145 466.822C477.488 467.433 477.572 467.726 477.366 468.388Z" fill="#FFD2FF"/>
<path d="M419.144 470.381C418.563 470.419 417.979 470.442 417.399 470.367C415.45 470.105 413.324 468.714 412.184 467.128C411.669 466.41 411.222 465.432 411.483 464.529C411.842 463.292 412.739 462.788 413.825 462.236C414.799 462.175 415.669 462.152 416.606 462.466C418.418 463.074 420.239 464.509 421.062 466.259C421.424 467.029 421.488 467.806 421.154 468.606C420.787 469.486 419.968 470.006 419.144 470.381Z" fill="#FFD2FF"/>
<path d="M459.518 474.202C455.383 474.146 450.195 471.535 447.214 468.737C446.472 468.041 445.944 467.384 445.934 466.344C446.288 465.692 446.329 465.634 446.986 465.293C451.092 465.093 455.673 467.398 458.723 470.082C459.471 470.743 460.617 471.891 460.505 472.997C460.436 473.677 460.023 473.832 459.518 474.202Z" fill="#FFD2FF"/>
<path d="M444.934 477.914C444.628 477.914 444.321 477.914 444.016 477.891C443.21 477.83 442.664 477.586 442.124 476.977C441.998 476.283 442.005 476.236 442.307 475.598C442.755 475.566 443.241 475.5 443.688 475.542C444.293 475.598 444.589 475.828 444.987 476.25C445.13 476.934 445.106 477.258 444.934 477.914Z" fill="#FFD2FF"/>
</svg>
