<svg width="480" height="480" viewBox="0 0 480 480" fill="none" xmlns="http://www.w3.org/2000/svg">
<path d="M0 0H480V8.19052C471.637 7.76719 463.253 7.84866 454.891 7.41966C440.04 6.6578 425.321 5.23683 410.541 3.64658C410.099 6.23812 407.765 21.2086 407.11 22.156C401.42 22.9347 395.21 23.6205 389.701 25.2248C391.637 32.402 393.835 39.4963 395.837 46.6531C397.191 51.4912 398.224 56.5659 400.038 61.2464C397.4 74.167 394.476 87.0356 392.203 100.027L409.831 101.059C412.542 101.206 415.525 101.069 418.183 101.479C418.899 103.601 419.752 105.674 420.737 107.685C430.157 105.517 439.471 102.765 448.855 100.418C459.218 98.9025 469.598 97.5211 480 96.2751V105.529C446.312 107.031 413.016 113.37 381.132 124.35C375.251 126.37 369.046 128.311 363.369 130.829C356.418 114.33 349.612 97.7686 342.953 81.1491C340.685 81.8723 338.478 82.8942 336.278 83.8031C335.069 81.322 334.274 78.667 333.069 76.1902C328.536 79.2745 323.606 81.8058 318.854 84.5362L298.449 96.4987C295.967 97.9608 289.272 101.263 287.68 103.362C289.294 108.457 291.818 113.519 293.849 118.49L308.219 153.632C305.637 154.141 303.129 155.028 300.612 155.787C296.965 156.891 293.301 157.939 289.621 158.929C284.885 160.18 280.135 161.381 275.373 162.532C272.84 163.149 269.493 163.566 267.219 164.732C265.192 150.156 252.333 139.564 237.638 140.369C222.943 141.174 211.317 153.107 210.896 167.819C207.731 166.618 199.589 165.749 195.791 164.966C186.16 163.002 176.619 160.622 167.195 157.833C157.956 155.169 148.622 152.396 139.56 149.184C136.199 147.992 132.884 146.601 129.572 145.276C128.179 144.72 126.69 143.874 125.217 143.63C124.984 142.933 124.796 142.248 124.121 141.91C123.523 142.284 123.458 142.736 123.184 143.374C119.355 142.333 115.483 140.584 111.728 139.251C105.044 136.947 98.3423 134.692 91.6242 132.489C61.5412 122.552 31.7811 116.758 0 118.154V0ZM277.351 12.0063C264.382 13.3902 255.008 25.0516 256.445 38.0148C257.881 50.978 269.58 60.3042 282.538 58.8155C295.421 57.3352 304.682 45.717 303.254 32.828C301.826 19.9389 290.246 10.6304 277.351 12.0063ZM129.841 12.0814L129.682 12.3037C128.835 13.5067 128.25 14.8125 127.485 16.0581C125.619 19.0935 122.844 19.994 119.808 21.4635C119.861 21.5186 119.912 21.5749 119.966 21.6289C121.717 23.3822 124.235 24.1763 125.726 26.2135C126.943 27.8751 127.081 30.0599 128.368 31.6798C130.297 30.5479 130.341 27.3989 132.01 25.8633C133.583 24.4161 136.096 23.7105 137.961 22.6867C136.493 21.529 134.088 20.1972 132.942 18.7656C131.713 17.2287 131.138 12.9438 129.841 12.0814ZM202.149 28.7935C202.063 28.8313 201.977 28.8699 201.891 28.9068C196.336 31.2762 189.574 32.8776 183.755 34.704L145.21 46.9209C141.277 48.2048 135.563 49.635 131.929 51.2377C131.116 51.5962 130.154 52.065 129.754 52.8998C129.703 56.2842 132.747 66.735 133.64 70.5473C135.742 79.5258 137.552 88.6941 140.006 97.5778C140.261 98.5008 140.592 99.33 141.092 100.149C141.551 100.313 141.382 100.351 141.784 100.166C143.938 99.1725 146.289 94.6209 147.611 92.6039C150.318 89.1455 153.082 85.9645 157.724 85.3547C161.184 84.9 165.362 86.5144 167.911 83.4202C169.416 81.592 170.315 79.1484 171.32 77.0236C174.069 71.2116 177.91 64.9317 184.918 64.0036C196.326 62.4933 206.05 75.2269 216.84 74.9906C214.805 65.9405 211.928 56.932 209.437 47.9906C207.832 42.2326 206.619 36.0159 204.465 30.4616C204.242 29.8864 203.997 29.628 203.486 29.3056C203.042 29.026 202.656 28.9034 202.149 28.7935ZM54.9562 34.1379C51.7387 38.0032 49.1339 40.9963 44.6941 43.5695C41.7717 45.2632 38.6233 46.6286 35.4624 47.8078C31.9409 49.1222 28.2685 50.1112 24.8211 51.6084C17.9961 54.5728 10.1394 60.1941 10.9927 68.6691C11.5781 74.4839 17.1643 80.4802 20.3276 85.1897C21.8499 87.4533 23.1981 89.8294 24.3604 92.2978C25.6667 95.1773 26.7961 98.1342 27.7424 101.152C29.2612 106.068 30.8445 114.837 33.8803 118.764L34.1907 118.834L34.519 118.281C38.1628 110.336 44.5233 104.492 52.7109 101.439C61.7362 98.0733 74.1534 96.0727 78.667 86.3302C79.0687 85.463 79.3401 84.5541 79.5783 83.6311C75.6169 68.6175 68.9822 54.1228 60.8536 40.9205C59.7051 39.0552 57.982 35.5897 56.0892 34.5309C55.7414 34.3366 55.3411 34.2263 54.9562 34.1379ZM352.678 44.4879C351.83 45.8189 350.559 48.4087 349.122 49.0491C348.192 49.4634 343.22 50.4103 343.527 51.7364C343.918 53.4239 346.772 55.0519 347.728 56.6348C348.576 58.0397 347.666 60.8409 349.368 61.5305C349.869 61.7339 350.309 61.6575 350.803 61.5047C351.737 60.1472 352.769 58.2412 354.147 57.3342C355.548 56.4122 360.082 56.2195 359.968 54.1927C358.928 52.7948 357.157 52.0458 356.254 50.6236C355.307 49.1334 355.477 45.0946 353.802 44.583C353.477 44.4834 353.022 44.503 352.678 44.4879ZM192.754 126.255C192.046 127.062 191.357 127.905 190.616 128.681C189.315 128.986 188.019 129.308 186.703 129.54C187.546 130.479 188.382 131.38 189.317 132.229C189.022 133.152 188.607 134.086 188.734 135.065C189.031 135.416 189.098 135.568 189.589 135.612C190.542 135.699 191.827 135.303 192.779 135.126C193.622 135.693 194.465 136.254 195.275 136.868C195.362 135.33 195.431 133.789 195.552 132.255C196.397 131.443 197.266 130.648 198.046 129.773L195.032 129.159C194.293 128.175 193.533 127.207 192.754 126.255Z" fill="#FFD2FF"/>
<path d="M410.541 3.64655C425.321 5.23679 440.04 6.65776 454.891 7.41962C463.253 7.84862 471.637 7.76715 480 8.19048V31.3426C478.561 35.3426 472.72 50.8017 472.983 53.9929C473.137 55.8548 473.719 57.794 474.136 59.6146L476.466 69.8606C477.469 74.4511 478.533 81.7298 480 85.8829V96.2751C469.598 97.5211 459.218 98.9025 448.855 100.418C448.477 100.229 448.253 100.147 447.821 100.153C445.436 100.182 443.089 100.591 440.718 100.792C435.819 101.208 430.786 101.484 425.87 101.49C424.192 101.492 419.537 101.063 418.183 101.479C415.525 101.069 412.542 101.206 409.831 101.059L392.203 100.027C394.476 87.0356 397.4 74.167 400.038 61.2464L400.147 61.2717C400.207 61.1634 400.283 61.0626 400.327 60.9464C401.077 58.9504 401.658 53.5804 402.115 51.1668L405.219 34.3013C405.915 30.57 406.738 26.8175 407.234 23.0565C407.281 22.6948 407.251 22.4895 407.11 22.156C407.765 21.2086 410.1 6.23809 410.541 3.64655ZM426.071 17.9255C425.135 17.9944 424.352 18.0236 423.692 18.785C421.997 20.7419 419.654 33.3724 420.224 36.2193C420.467 37.4356 421.078 38.1076 422.007 38.8691C425.222 39.6485 428.712 39.7569 432 40.0471C439.352 40.6959 446.88 41.3758 454.26 41.2744C455.914 40.7218 456.57 40.0749 457.374 38.5171C459.568 34.2661 461.202 24.6098 459.696 20.0206C459.536 19.5356 459.229 18.7836 458.781 18.4907C456.855 17.2336 429.871 17.8973 426.071 17.9255ZM429.66 48.5836C429.075 48.9909 428.553 49.4043 428.325 50.1028C428.556 50.6981 428.61 50.9165 429.191 51.2606C431.128 52.4076 442.314 51.9989 445.576 52.2454C446.052 51.8189 446.288 51.5189 446.554 50.9367C446.499 50.3728 446.52 50.0939 446 49.7381C444.781 48.9051 431.773 48.517 429.66 48.5836ZM415.276 55.0753C414.907 55.7822 414.727 56.0161 414.747 56.8293C415.091 57.4228 415.422 57.6937 416.076 57.8882C418.913 58.7325 424.76 58.1071 427.88 58.1301C428.036 57.2643 428.128 56.6245 427.954 55.7559C427.837 55.6373 427.754 55.4718 427.604 55.3996C426.596 54.9136 417.211 55.0964 415.276 55.0753ZM448.749 61.9598C442.32 62.9953 435.849 63.6937 429.406 64.6312C426.563 65.0447 423.346 65.2612 420.642 66.225C419.516 66.6267 418.8 67.2829 418.037 68.1736C417.753 69.1514 417.534 70.0584 417.488 71.0793C417.318 74.872 418.507 85.3322 420.34 88.4939C420.909 89.4759 421.651 90.015 422.765 90.2578C423.813 90.4856 425.03 90.4753 426.092 90.3693C432.043 89.8537 437.984 89.0297 443.906 88.2543C446.959 87.8545 450.3 87.6604 453.276 86.8926C454.182 86.6592 455.22 86.3447 455.826 85.5853C457.938 82.9425 457.197 77.6203 456.763 74.5218C456.251 70.8703 455.128 64.9307 451.974 62.579C451.041 61.8834 450.011 61.7953 448.883 61.9321C448.838 61.9373 448.794 61.9504 448.749 61.9598Z" fill="#9444E4"/>
<path d="M282.537 58.8151C269.58 60.3038 257.88 50.9776 256.444 38.0144C255.008 25.0513 264.381 13.3898 277.35 12.006C290.245 10.63 301.825 19.9386 303.254 32.8276C304.682 45.7167 295.42 57.3348 282.537 58.8151ZM289.326 26.214C285.211 30.69 279.998 38.9197 276.545 44.1264C274.896 42.5514 271.188 38.162 268.905 37.9818C268.549 37.9538 268.369 38.1517 268.079 38.3275C267.944 38.6398 267.773 38.7776 267.933 39.1135C268.206 39.6854 268.762 40.1055 269.223 40.5266C271.774 42.7027 274.292 44.9812 277.013 46.9412C279.244 44.3972 290.002 29.8137 290.73 27.3017C290.367 26.7364 289.897 26.523 289.326 26.214Z" fill="#401297"/>
<path d="M119.809 21.4632C122.845 19.9937 125.62 19.0932 127.485 16.0578C128.251 14.8121 128.836 13.5063 129.682 12.3033L129.842 12.0811C131.139 12.9435 131.713 17.2284 132.943 18.7653C134.089 20.1969 136.494 21.5287 137.962 22.6864C136.097 23.7102 133.584 24.4158 132.011 25.863C130.342 27.3986 130.298 30.5476 128.369 31.6794C127.082 30.0595 126.943 27.8747 125.727 26.2132C124.235 24.176 121.717 23.3819 119.967 21.6286C119.913 21.5746 119.862 21.5183 119.809 21.4632Z" fill="#9444E4"/>
<path d="M422.008 38.8692C421.079 38.1078 420.467 37.4357 420.224 36.2195C419.654 33.3725 421.998 20.742 423.693 18.7851C424.352 18.0237 425.135 17.9945 426.071 17.9256C429.872 17.8974 456.856 17.2337 458.781 18.4908C459.229 18.7837 459.537 19.5358 459.696 20.0208C461.203 24.6099 459.569 34.2662 457.374 38.5172C456.57 40.075 455.914 40.7219 454.26 41.2745C446.88 41.3759 439.352 40.6961 432.001 40.0473C428.712 39.757 425.223 39.6486 422.008 38.8692Z" fill="#FFAAFF"/>
<path d="M389.701 25.2251C395.21 23.6207 401.42 22.9349 407.111 22.1562C407.252 22.4898 407.281 22.6951 407.234 23.0567C406.738 26.8178 405.915 30.5703 405.219 34.3015L402.115 51.1671C401.658 53.5807 401.077 58.9507 400.327 60.9466C400.284 61.0629 400.207 61.1637 400.147 61.2719L400.038 61.2466C398.224 56.5662 397.191 51.4915 395.838 46.6534C393.835 39.4965 391.637 32.4022 389.701 25.2251Z" fill="#401297"/>
<path d="M276.546 44.1263C279.998 38.9196 285.212 30.6899 289.326 26.2139C289.898 26.5228 290.367 26.7363 290.731 27.3016C290.003 29.8136 279.245 44.3971 277.013 46.9411C274.293 44.981 271.774 42.7025 269.224 40.5265C268.763 40.1054 268.206 39.6853 267.934 39.1134C267.774 38.7775 267.945 38.6396 268.08 38.3274C268.369 38.1516 268.55 37.9536 268.906 37.9817C271.189 38.1618 274.896 42.5513 276.546 44.1263Z" fill="#FFAAFF"/>
<path d="M147.612 92.6043C146.29 94.6213 143.939 99.1729 141.785 100.166C141.383 100.351 141.552 100.313 141.093 100.15C140.592 99.3304 140.262 98.5012 140.007 97.5782C137.553 88.6945 135.743 79.5262 133.64 70.5478C132.748 66.7354 129.704 56.2846 129.755 52.9003C130.155 52.0654 131.117 51.5967 131.93 51.2381C135.564 49.6354 141.278 48.2053 145.211 46.9214L183.755 34.7044C189.575 32.878 196.337 31.2766 201.891 28.9072C201.978 28.8703 202.063 28.8317 202.15 28.7939C202.657 28.9038 203.043 29.0264 203.487 29.306C203.998 29.6285 204.243 29.8868 204.466 30.462C206.62 36.0163 207.833 42.233 209.437 47.991C211.929 56.9324 214.805 65.9409 216.841 74.991C206.051 75.2273 196.326 62.4937 184.919 64.004C177.911 64.9321 174.07 71.212 171.321 77.024C170.316 79.1489 169.417 81.5924 167.912 83.4206C165.363 86.5148 161.185 84.9004 157.724 85.3551C153.083 85.9649 150.319 89.1459 147.612 92.6043Z" fill="#9444E4"/>
<path d="M480 85.8829C478.533 81.7298 477.469 74.451 476.466 69.8606L474.136 59.6146C473.719 57.794 473.138 55.8548 472.983 53.9929C472.721 50.8016 478.561 35.3426 480 31.3426V85.8829Z" fill="#FFD2FF"/>
<path d="M34.5199 118.281L34.1915 118.834L33.8812 118.764C30.8454 114.837 29.2621 106.068 27.7433 101.151C26.797 98.134 25.6676 95.1771 24.3613 92.2976C23.1989 89.8291 21.8508 87.453 20.3284 85.1895C17.1652 80.4799 11.579 74.4837 10.9936 68.6688C10.1403 60.1938 17.9969 54.5726 24.822 51.6082C28.2694 50.111 31.9418 49.1219 35.4633 47.8076C38.6242 46.6283 41.7726 45.2629 44.695 43.5692C49.1348 40.996 51.7396 38.0029 54.9571 34.1377C55.342 34.2261 55.7423 34.3364 56.0901 34.5307C57.9829 35.5894 59.706 39.055 60.8545 40.9203C68.983 54.1226 75.6177 68.6173 79.5791 83.6309C79.341 84.5538 79.0696 85.4627 78.6679 86.3299C74.1543 96.0724 61.7371 98.073 52.7118 101.439C44.5241 104.492 38.1636 110.336 34.5199 118.281ZM49.4756 50.1476L34.8068 58.4843C32.3627 59.8774 29.6292 61.1852 27.3543 62.8334C26.5536 63.4132 25.2012 64.4262 24.8879 65.4176C24.5294 66.5519 25.3302 68.0205 25.9127 68.9566C26.9531 70.6287 30.2809 76.3676 32.0996 76.766C32.5192 76.8579 32.9525 76.871 33.3799 76.8518C36.6587 75.7657 56.4979 64.7477 57.6309 62.4837C58.0659 61.6141 57.8934 60.4291 57.5362 59.5563C56.8832 57.9602 52.2304 50.8409 50.9249 50.3055C50.4374 50.1059 49.9893 50.1148 49.4756 50.1476ZM53.5345 73.7585L53.2448 73.9048C50.5766 75.2351 45.2208 76.5246 43.3763 78.6316C43.268 79.1923 43.2758 79.2495 43.4964 79.7763C43.9568 80.1302 44.2608 80.4012 44.8417 80.523C47.2237 79.7126 53.7871 77.8802 54.8887 75.8562C55.0424 75.574 55.0527 75.1938 54.9538 74.8891C54.817 74.4673 54.3848 73.8902 53.923 73.7848C53.7965 73.7557 53.6638 73.7674 53.5345 73.7585ZM61.3729 78.2613C58.1315 79.7829 55.0232 81.5055 51.7068 82.8748C49.941 83.6032 48.1504 84.3166 46.3188 84.8613C44.9661 85.263 43.4812 85.4932 42.1928 86.0669C41.7781 86.2512 41.5131 86.441 41.2399 86.8132C41.1844 87.4193 41.161 87.6659 41.6056 88.1627C41.918 88.5119 42.2707 88.632 42.7037 88.7515C49.7198 87.5074 57.3787 84.544 63.0515 80.1682C62.5415 79.4979 62.0591 78.7591 61.3729 78.2613Z" fill="#9444E4"/>
<path d="M350.803 61.505C350.31 61.6578 349.87 61.7342 349.368 61.5308C347.666 60.8413 348.576 58.04 347.728 56.6352C346.772 55.0522 343.918 53.4243 343.527 51.7368C343.22 50.4107 348.192 49.4638 349.122 49.0494C350.56 48.4091 351.83 45.8192 352.679 44.4883C353.022 44.5034 353.477 44.4838 353.802 44.5833C355.478 45.095 355.307 49.1338 356.254 50.6239C357.158 52.0461 358.928 52.7952 359.968 54.193C360.083 56.2199 355.548 56.4125 354.147 57.3346C352.77 58.2416 351.737 60.1475 350.803 61.505Z" fill="#9444E4"/>
<path d="M445.577 52.2455C442.315 51.9989 431.128 52.4077 429.191 51.2606C428.611 50.9166 428.556 50.6981 428.326 50.1028C428.554 49.4044 429.076 48.9909 429.66 48.5836C431.774 48.517 444.782 48.9052 446 49.7381C446.521 50.0939 446.5 50.3728 446.554 50.9367C446.289 51.5189 446.053 51.8189 445.577 52.2455Z" fill="#FFAAFF"/>
<path d="M33.38 76.852C32.9526 76.8713 32.5193 76.8581 32.0996 76.7663C30.2809 76.3678 26.9531 70.6289 25.9127 68.9569C25.3302 68.0208 24.5294 66.5522 24.8879 65.4178C25.2012 64.4264 26.5537 63.4134 27.3544 62.8336C29.6292 61.1855 32.3627 59.8777 34.8069 58.4845L49.4756 50.1478C49.9893 50.115 50.4375 50.1061 50.925 50.3058C52.2304 50.8411 56.8833 57.9605 57.5362 59.5566C57.8934 60.4294 58.0659 61.6144 57.6309 62.4839C56.4979 64.748 36.6588 75.7659 33.38 76.852Z" fill="#FFAAFF"/>
<path d="M427.88 58.1302C424.76 58.1073 418.913 58.7326 416.076 57.8884C415.422 57.6938 415.092 57.4229 414.748 56.8295C414.728 56.0162 414.907 55.7823 415.276 55.0754C417.212 55.0965 426.596 54.9137 427.604 55.3998C427.754 55.472 427.837 55.6374 427.955 55.756C428.128 56.6246 428.037 57.2645 427.88 58.1302Z" fill="#FFAAFF"/>
<path d="M418.038 68.1736C418.801 67.283 419.517 66.6268 420.643 66.2251C423.347 65.2613 426.564 65.0447 429.407 64.6313C435.85 63.6938 442.321 62.9954 448.75 61.9599C448.795 61.9505 448.839 61.9374 448.884 61.9322C450.012 61.7954 451.042 61.8835 451.975 62.5791C455.128 64.9308 456.252 70.8704 456.764 74.5219C457.198 77.6204 457.939 82.9426 455.827 85.5854C455.22 86.3447 454.183 86.6593 453.277 86.8927C450.3 87.6605 446.96 87.8546 443.907 88.2544C437.984 89.0297 432.044 89.8538 426.093 90.3694C425.031 90.4754 423.814 90.4857 422.766 90.2579C421.652 90.0151 420.91 89.476 420.341 88.494C418.507 85.3322 417.319 74.8721 417.489 71.0794C417.535 70.0585 417.754 69.1515 418.038 68.1736Z" fill="#FFAAFF"/>
<path d="M44.84 80.5233C44.2592 80.4014 43.9552 80.1305 43.4947 79.7766C43.2742 79.2497 43.2664 79.1925 43.3746 78.6319C45.2191 76.5249 50.575 75.2353 53.2431 73.905L53.5328 73.7588C53.6622 73.7677 53.7949 73.756 53.9214 73.785C54.3831 73.8905 54.8153 74.4675 54.9522 74.8894C55.0511 75.1941 55.0408 75.5742 54.887 75.8564C53.7855 77.8805 47.222 79.7128 44.84 80.5233Z" fill="#FFAAFF"/>
<path d="M333.069 76.1904C334.273 78.6673 335.069 81.3223 336.277 83.8034C336.667 86.2264 339.355 91.5631 340.425 94.2861C343.245 101.459 346.114 108.613 349.032 115.747C352.399 123.796 355.796 131.812 358.951 139.948C359.961 142.552 361.637 145.807 361.95 148.566C358.351 150.036 354.9 152.136 351.404 153.865C343.192 157.848 335.023 161.918 326.897 166.074C323.3 167.907 319.615 170.114 315.878 171.618C313.03 166.624 310.526 159.133 308.218 153.633L293.848 118.49C291.817 113.519 289.293 108.457 287.68 103.362C289.271 101.263 295.967 97.9611 298.448 96.499L318.854 84.5365C323.606 81.8061 328.535 79.2748 333.069 76.1904ZM324.939 96.7892C321.104 98.5962 317.427 100.818 313.707 102.853C310.756 104.468 307.402 105.983 304.705 107.982C304.044 108.471 303.417 109.041 303.113 109.826C302.617 111.106 302.968 112.335 303.547 113.517C304.593 115.649 308.158 123.154 309.342 124.712C309.773 125.278 310.303 125.749 310.983 125.988C311.66 126.226 312.535 126.168 313.225 126.014C318.139 123.848 322.907 121.078 327.622 118.505C329.783 117.326 332.258 116.234 334.225 114.762C334.749 114.37 335.111 113.987 335.341 113.36C335.838 112.002 335.512 110.717 334.896 109.47C333.874 107.401 332.483 105.499 331.411 103.449C330.583 101.868 330.117 99.8965 329.087 98.4687C328.575 97.7586 327.915 97.1487 327.059 96.8975C326.346 96.6875 325.668 96.7086 324.939 96.7892ZM340.566 123.708C334.588 126.54 328.797 129.835 322.969 132.966C319.536 134.811 314.659 136.791 311.87 139.362C311.812 139.665 311.698 139.837 311.88 140.12C312.216 140.644 312.893 140.914 313.432 141.193C318.168 139.212 322.593 136.366 327.12 133.949C331.606 131.556 336.437 129.442 340.751 126.769C341.385 126.377 341.735 126.205 342.051 125.535C341.999 124.966 341.821 124.381 341.352 124.003C341.083 123.786 340.896 123.739 340.566 123.708ZM344.72 134.97C341.475 136.567 317.89 148.299 317.117 149.868C317.411 150.662 317.624 150.916 318.286 151.444L318.843 151.486C325.565 148.106 332.265 144.679 338.94 141.205C341.243 139.993 344.063 138.869 346.15 137.331C346.454 137.106 346.589 136.89 346.724 136.542C346.545 135.826 346.316 135.68 345.807 135.166C345.392 135.032 345.166 134.975 344.72 134.97Z" fill="#9444E4"/>
<path d="M42.7023 88.7517C42.2693 88.6322 41.9167 88.5122 41.6042 88.163C41.1596 87.6661 41.1831 87.4195 41.2385 86.8134C41.5117 86.4413 41.7767 86.2514 42.1914 86.0672C43.4798 85.4934 44.9648 85.2633 46.3174 84.8616C48.149 84.3169 49.9396 83.6034 51.7054 82.875C55.0218 81.5058 58.1301 79.7831 61.3715 78.2616C62.0578 78.7594 62.5401 79.4981 63.0501 80.1684C57.3773 84.5442 49.7184 87.5077 42.7023 88.7517Z" fill="#FFAAFF"/>
<path d="M336.277 83.8035C338.478 82.8946 340.685 81.8727 342.953 81.1494C349.612 97.7689 356.417 114.33 363.368 130.829C365.099 134.916 367.03 139.001 368.582 143.152L365.688 144.653L367.959 148.794C366.355 149.626 364.73 150.42 363.088 151.176C362.701 150.312 362.279 149.452 361.95 148.566C361.637 145.807 359.961 142.552 358.951 139.948C355.796 131.812 352.399 123.796 349.032 115.747C346.114 108.613 343.245 101.459 340.425 94.2861C339.355 91.5632 336.667 86.2264 336.277 83.8035Z" fill="#401297"/>
<path d="M313.225 126.014C312.535 126.167 311.66 126.226 310.983 125.988C310.304 125.749 309.773 125.278 309.343 124.711C308.159 123.153 304.593 115.649 303.548 113.516C302.969 112.335 302.618 111.105 303.113 109.826C303.417 109.041 304.044 108.471 304.705 107.981C307.402 105.983 310.757 104.467 313.707 102.853C317.427 100.817 321.105 98.5958 324.939 96.7888C325.668 96.7082 326.346 96.6871 327.06 96.8971C327.915 97.1484 328.575 97.7582 329.088 98.4683C330.117 99.8962 330.584 101.868 331.411 103.448C332.484 105.499 333.874 107.4 334.896 109.469C335.512 110.716 335.838 112.002 335.341 113.36C335.111 113.987 334.749 114.369 334.225 114.761C332.259 116.234 329.783 117.325 327.623 118.505C322.907 121.078 318.139 123.848 313.225 126.014Z" fill="#FFAAFF"/>
<path d="M448.855 100.419C439.471 102.765 430.158 105.518 420.738 107.685C419.753 105.674 418.9 103.601 418.184 101.479C419.538 101.063 424.193 101.492 425.87 101.49C430.787 101.484 435.819 101.208 440.719 100.793C443.09 100.591 445.436 100.182 447.822 100.153C448.253 100.148 448.477 100.23 448.855 100.419Z" fill="#401297"/>
<path d="M363.369 130.829C369.046 128.311 375.251 126.37 381.132 124.35C413.016 113.369 446.312 107.031 480 105.529V346.104C477.117 346.69 474.216 347.37 471.281 347.604C470.011 347.705 468.738 347.484 467.488 347.603C465.666 347.593 463.843 347.617 462.021 347.628C462.443 346.07 462.796 344.466 462.907 342.853C463.656 331.972 456.353 322.789 449.677 315.021C450.074 314.216 450.386 313.397 450.672 312.547C453.432 304.337 452.496 298.24 445.623 292.704C443.981 291.382 442.038 290.084 441.129 288.115C438.878 283.24 444.548 279.214 446.088 275.046C449.487 265.844 438.676 260.48 438.014 252.532C437.584 247.38 442.715 243.474 439.302 236.235C435.772 228.75 423.169 223.938 415.715 221.271C415.192 219.511 414.652 217.792 413.843 216.139C410.733 209.792 404.869 205.46 398.29 203.214C382.098 197.689 371.045 202.45 356.731 209.545C350.525 208.147 342.822 206.214 336.602 208.222C331.54 209.856 328.782 213.341 326.426 217.902C321.162 219.212 317.846 219.847 313.781 223.829C311.168 226.387 309.066 229.583 308.841 233.337C308.746 234.92 308.966 236.531 308.937 238.118C308.818 244.508 301.906 249.294 297.808 253.348C291.238 259.847 292.321 268.577 297.622 275.463C299.438 277.822 301.838 279.749 303.519 282.199C304.253 283.269 304.773 284.247 304.507 285.568C303.124 292.457 291.489 297.387 291.607 306.577C291.661 310.759 294.306 314.049 297.185 316.77C296.217 318.443 295.288 320.069 294.673 321.907C293.728 324.733 293.511 327.715 294.886 330.444C292.501 332.187 290.225 334.016 288.135 336.11C285.582 338.69 283.298 341.523 281.319 344.565C278.495 348.901 272.027 361.578 272.088 366.603L272.095 366.969C270.792 368.055 267.512 368.377 265.824 368.745C259.414 370.141 246.415 372.445 241.566 376.461C237.91 373.682 231.929 370.814 227.681 369.059C225.106 364.531 221.251 360.275 217.679 356.485C199.243 336.922 174.328 323.448 148.532 316.379C145.689 315.599 136.595 315.98 135.212 315.003C134.916 313.595 135.069 312.108 135.125 310.68C136.494 310.169 137.86 309.632 139.177 308.999C149.733 303.928 157.269 294.513 161.092 283.606C164.63 281.88 167.792 279.491 169.78 276.033C171.831 272.466 172.481 267.832 171.402 263.851C170.25 259.603 167.614 257.309 163.965 255.193C166.498 250.539 169.093 249.098 170.038 243.315C171.555 241.947 172.906 240.597 173.653 238.648C174.757 235.767 174.027 232.788 173.407 229.897C171.527 221.124 168.491 217.95 160.265 214.367C158.237 213.484 156.002 212.651 154.438 211.023C152.192 208.683 152.314 205.543 150.942 202.799C149.268 199.451 145.739 197.935 142.348 196.877C135.201 194.649 125.666 194.722 118.411 196.408C114.576 197.299 110.681 198.652 106.785 199.162C104.614 199.447 102.457 199.295 100.276 199.289C96.1626 199.276 91.8295 200.101 88.17 202.032C81.1228 205.75 78.2494 210.494 75.9886 217.839C75.2179 217.016 74.489 216.586 73.4137 216.263L73.1048 216.17C71.2509 216.506 70.1344 217.199 69.0192 218.743C66.3 222.51 65.669 229.831 66.4875 234.285C66.9844 236.99 68.4759 240.066 70.7775 241.665C70.8792 241.736 70.9828 241.803 71.0854 241.872C70.7944 246.44 70.0842 251.087 71.8898 255.457C69.1425 256.436 67.3448 257.646 66.0286 260.381C63.9928 264.612 64.4611 270.497 66.0731 274.789C67.7245 279.185 71.4258 283.055 75.7092 284.969C77.5795 285.804 79.5928 286.26 81.5714 286.762C86.9597 297.943 91.2464 303.272 102.138 309.285C102.346 311.67 102.412 314.071 102.119 316.454C82.2309 313.802 62.5181 318.482 46.4811 330.765C41.862 334.303 36.6401 338.343 32.9401 342.867C31.0768 342.244 24.2586 342.227 21.9064 342.075C14.6295 341.603 7.28859 340.784 0 340.673V118.154C31.7811 116.758 61.5412 122.552 91.6242 132.489C98.3423 134.692 105.044 136.947 111.728 139.251C115.483 140.584 119.355 142.333 123.184 143.374C121.293 148.297 119.718 148.596 115.679 151.44C120.252 153.809 122.324 155.465 124.393 160.351C127.045 155.516 127.834 153.934 133.166 151.528C129.007 149.128 127.069 148.467 125.217 143.63C126.69 143.874 128.179 144.719 129.572 145.276C132.884 146.601 136.199 147.992 139.56 149.184C148.622 152.396 157.956 155.169 167.195 157.833C176.619 160.622 186.16 163.002 195.791 164.966C199.589 165.749 207.731 166.618 210.896 167.819C210.59 178.49 216.315 188.425 225.701 193.512C235.087 198.598 246.536 197.971 255.31 191.889C264.083 185.807 268.688 175.306 267.219 164.732C269.493 163.566 272.84 163.149 275.373 162.532C280.135 161.381 284.885 160.18 289.621 158.929C293.301 157.939 296.965 156.891 300.612 155.787C303.129 155.028 305.637 154.141 308.219 153.632C310.526 159.133 313.031 166.624 315.879 171.618C319.616 170.114 323.301 167.907 326.898 166.074C335.024 161.917 343.193 157.847 351.404 153.864C354.901 152.136 358.352 150.036 361.95 148.566C362.28 149.452 362.701 150.312 363.089 151.175C364.731 150.42 366.355 149.626 367.96 148.794L365.689 144.652L368.583 143.152C367.031 139 365.099 134.916 363.369 130.829ZM429.779 151.104C416.823 152.291 407.269 163.735 408.415 176.694C409.561 189.653 420.975 199.244 433.938 198.138C446.958 197.027 456.599 185.551 455.448 172.535C454.297 159.519 442.791 149.913 429.779 151.104ZM45.7158 151.682C32.856 153.252 23.7017 164.946 25.2658 177.807C26.8299 190.667 38.5205 199.827 51.3815 198.268C64.2506 196.709 73.417 185.009 71.8519 172.141C70.2872 159.272 58.5834 150.111 45.7158 151.682ZM228.76 253.453C227.363 256.543 227.089 258.863 224.115 260.88C222.981 261.65 221.705 262.324 220.704 263.262C227.908 266.272 226.035 266.596 230.49 271.973C231.874 268.99 232.141 266.425 235.054 264.489C236.076 263.81 237.194 263.259 237.971 262.29C236.67 260.76 234.044 260.381 232.547 258.767C231.199 257.312 230.533 254.318 228.76 253.453ZM27.1584 268.549C26.3202 275.514 25.1093 275.532 21.6611 281.034C25.7635 281.665 27.6359 282.109 30.6991 285.139C31.2562 285.69 31.75 286.361 32.4767 286.67L32.5397 286.386C33.0801 283.065 33.7263 279.028 36.7002 276.95C37.2894 276.538 37.9097 276.166 38.5052 275.761C36.4836 274.854 33.684 274.069 31.9212 272.747C30.2197 271.47 28.9432 269.72 27.1584 268.549ZM265.639 306.459L265.465 306.659C264.651 307.611 264.064 308.696 263.268 309.645C260.765 312.629 257.416 312.911 253.838 313.619C256.65 315.949 258.974 317.43 260.001 321.18C260.372 322.535 260.63 324.053 261.201 325.334C263.437 323.044 265.349 320.933 268.431 319.754C269.717 319.263 271.093 318.984 272.345 318.416C270.258 316.313 266.417 313.357 266.434 310.149C266.44 309.074 266.693 308.056 266.297 307.025C266.095 306.846 265.865 306.605 265.639 306.459Z" fill="#FFAAFF"/>
<path d="M313.432 141.192C312.893 140.913 312.216 140.644 311.88 140.12C311.698 139.836 311.812 139.665 311.87 139.362C314.659 136.791 319.536 134.81 322.969 132.966C328.797 129.835 334.588 126.54 340.566 123.707C340.896 123.739 341.083 123.785 341.352 124.002C341.821 124.38 341.999 124.966 342.051 125.535C341.735 126.204 341.385 126.376 340.75 126.769C336.437 129.442 331.606 131.555 327.12 133.949C322.593 136.365 318.168 139.211 313.432 141.192Z" fill="#FFAAFF"/>
<path d="M190.616 128.681C191.357 127.905 192.046 127.063 192.754 126.255C193.533 127.207 194.293 128.175 195.032 129.159L198.046 129.774C197.266 130.648 196.397 131.443 195.552 132.255C195.431 133.79 195.362 135.331 195.275 136.868C194.465 136.254 193.622 135.694 192.78 135.126C191.827 135.303 190.542 135.699 189.589 135.613C189.098 135.568 189.031 135.417 188.734 135.066C188.607 134.086 189.023 133.152 189.317 132.229C188.382 131.38 187.546 130.479 186.703 129.54C188.019 129.309 189.315 128.987 190.616 128.681Z" fill="#9444E4"/>
<path d="M318.843 151.485L318.286 151.443C317.624 150.915 317.411 150.661 317.117 149.868C317.89 148.299 341.475 136.566 344.72 134.97C345.166 134.974 345.392 135.031 345.807 135.166C346.316 135.68 346.545 135.826 346.724 136.542C346.589 136.89 346.454 137.106 346.15 137.33C344.063 138.869 341.243 139.993 338.94 141.204C332.265 144.678 325.565 148.105 318.843 151.485Z" fill="#FFAAFF"/>
<path d="M210.896 167.819C211.318 153.107 222.943 141.174 237.639 140.369C252.333 139.564 265.193 150.156 267.22 164.732C268.689 175.306 264.084 185.807 255.31 191.889C246.536 197.971 235.087 198.598 225.701 193.512C216.316 188.425 210.591 178.49 210.896 167.819ZM253.228 156.947C248.7 160.979 244.77 165.911 240.697 170.402C238.085 173.282 235.071 175.993 232.808 179.145C231.126 177.166 225.437 169.581 223.393 169.136C222.947 169.424 222.699 169.718 222.64 170.28C222.561 171.033 223.027 171.526 223.515 172.033L223.788 172.292C226.138 174.559 230.06 181.062 233.028 181.7C235.118 180.568 253.843 160.405 254.545 158.578C254.657 158.289 254.557 157.901 254.399 157.643C254.072 157.107 253.786 157.043 253.228 156.947Z" fill="#401297"/>
<path d="M123.184 143.374C123.459 142.736 123.523 142.284 124.122 141.91C124.796 142.248 124.985 142.933 125.218 143.63C127.069 148.467 129.008 149.128 133.167 151.528C127.835 153.934 127.045 155.516 124.393 160.351C122.324 155.465 120.252 153.809 115.68 151.44C119.719 148.596 121.294 148.297 123.184 143.374Z" fill="#9444E4"/>
<path d="M433.937 198.138C420.974 199.244 409.56 189.654 408.414 176.695C407.267 163.735 416.822 152.291 429.778 151.105C442.79 149.914 454.296 159.519 455.447 172.536C456.598 185.552 446.956 197.027 433.937 198.138ZM443.635 167.007C438.092 172.601 433.471 179.274 428.218 185.17C426.816 183.676 421.907 177.854 420.275 177.622C420.197 177.611 420.117 177.623 420.037 177.623C419.716 177.994 419.814 178.114 419.807 178.588C420.102 179.006 420.376 179.388 420.736 179.756C421.964 180.991 427.306 187.116 428.397 187.141C429.212 186.549 429.931 185.897 430.608 185.155C432.341 183.257 444.063 169.45 444.592 168.045C444.47 167.555 444.372 167.364 443.896 167.091C443.816 167.046 443.722 167.035 443.635 167.007Z" fill="#401297"/>
<path d="M51.3816 198.268C38.5205 199.827 26.8299 190.667 25.2658 177.807C23.7017 164.946 32.8561 153.252 45.7159 151.682C58.5835 150.111 70.2872 159.273 71.8519 172.141C73.4171 185.009 64.2506 196.709 51.3816 198.268ZM59.5585 168.183C56.7188 171.006 54.1974 174.269 51.6028 177.324C49.3964 179.921 46.9777 182.484 44.9385 185.202C43.6563 183.56 38.299 177.726 36.4573 177.484C35.9822 177.86 35.912 177.906 35.7207 178.475C35.9839 179.295 36.6975 179.732 37.34 180.255C40.02 182.579 42.2593 185.564 45.071 187.667L45.2313 187.789C47.01 185.895 60.7205 170.178 60.8836 169.159C60.57 168.647 60.3971 168.481 59.8111 168.242C59.731 168.209 59.6428 168.203 59.5585 168.183Z" fill="#401297"/>
<path d="M232.806 179.146C235.069 175.994 238.083 173.283 240.695 170.403C244.768 165.912 248.698 160.979 253.226 156.947C253.784 157.044 254.07 157.108 254.397 157.643C254.555 157.901 254.655 158.289 254.544 158.579C253.841 160.405 235.116 180.569 233.026 181.701C230.058 181.063 226.136 174.559 223.786 172.293L223.513 172.033C223.025 171.527 222.559 171.034 222.638 170.281C222.697 169.718 222.945 169.424 223.391 169.136C225.435 169.581 231.124 177.167 232.806 179.146Z" fill="#FFAAFF"/>
<path d="M428.219 185.17C433.472 179.274 438.092 172.601 443.636 167.007C443.723 167.035 443.817 167.046 443.897 167.091C444.373 167.364 444.471 167.555 444.593 168.045C444.064 169.45 432.342 183.257 430.609 185.154C429.932 185.897 429.212 186.549 428.398 187.141C427.307 187.116 421.965 180.991 420.737 179.755C420.377 179.388 420.103 179.006 419.808 178.587C419.815 178.114 419.717 177.994 420.038 177.623C420.118 177.623 420.197 177.611 420.276 177.622C421.908 177.854 426.817 183.676 428.219 185.17Z" fill="#FFAAFF"/>
<path d="M44.9385 185.202C46.9777 182.483 49.3965 179.92 51.6029 177.323C54.1974 174.269 56.7188 171.006 59.5585 168.183C59.6429 168.203 59.731 168.209 59.8112 168.242C60.3971 168.48 60.5701 168.647 60.8837 169.159C60.7205 170.178 47.0101 185.895 45.2314 187.789L45.071 187.667C42.2594 185.564 40.02 182.579 37.34 180.255C36.6975 179.731 35.9839 179.295 35.7207 178.475C35.912 177.906 35.9822 177.86 36.4573 177.484C38.2991 177.726 43.6563 183.56 44.9385 185.202Z" fill="#FFAAFF"/>
<path d="M71.0854 241.872C70.9828 241.803 70.8792 241.736 70.7775 241.665C68.4759 240.066 66.9844 236.99 66.4875 234.285C65.669 229.831 66.3 222.51 69.0192 218.743C70.1344 217.199 71.2509 216.506 73.1048 216.17C73.4119 217.129 74.5214 218.951 75.4111 219.418C75.4392 219.249 75.5058 219.018 75.4889 218.85C75.9023 218.479 75.877 218.392 75.9886 217.839C78.2494 210.494 81.1228 205.75 88.17 202.032C91.8295 200.101 96.1626 199.276 100.276 199.289C102.457 199.295 104.614 199.447 106.785 199.162C110.681 198.652 114.576 197.299 118.411 196.408C125.666 194.722 135.201 194.649 142.348 196.877C145.739 197.935 149.268 199.451 150.942 202.799C152.314 205.543 152.192 208.683 154.438 211.023C156.002 212.651 158.237 213.484 160.265 214.367C168.491 217.95 171.527 221.124 173.407 229.897C174.027 232.788 174.757 235.767 173.653 238.648C172.906 240.597 171.555 241.947 170.038 243.315C169.093 249.098 166.498 250.539 163.965 255.193C167.614 257.31 170.25 259.603 171.402 263.851C172.481 267.832 171.831 272.466 169.78 276.033C167.792 279.491 164.63 281.88 161.092 283.606C157.269 294.513 149.733 303.928 139.177 308.999C137.86 309.632 136.494 310.169 135.125 310.68C135.069 312.108 134.916 313.595 135.212 315.003C136.595 315.98 145.689 315.599 148.532 316.379C174.328 323.448 199.243 336.922 217.679 356.485C221.251 360.275 225.106 364.531 227.681 369.06C231.929 370.814 237.91 373.682 241.566 376.461C246.415 372.445 259.414 370.141 265.824 368.745C267.512 368.377 270.792 368.055 272.095 366.969L272.088 366.603C272.027 361.578 278.495 348.901 281.319 344.565C283.298 341.523 285.582 338.69 288.135 336.11C290.225 334.016 292.501 332.187 294.886 330.444C293.511 327.715 293.728 324.733 294.673 321.907C295.288 320.069 296.217 318.443 297.185 316.77C294.306 314.049 291.661 310.759 291.607 306.577C291.489 297.387 303.124 292.457 304.507 285.568C304.773 284.247 304.253 283.269 303.519 282.199C301.838 279.749 299.438 277.822 297.622 275.463C292.321 268.577 291.238 259.847 297.808 253.348C301.906 249.294 308.818 244.508 308.937 238.118C308.966 236.531 308.746 234.92 308.841 233.337C309.066 229.583 311.168 226.387 313.781 223.829C317.846 219.847 321.162 219.212 326.426 217.902C328.782 213.341 331.54 209.856 336.602 208.222C342.822 206.214 350.525 208.147 356.731 209.545C371.045 202.45 382.098 197.689 398.29 203.214C404.869 205.46 410.733 209.792 413.843 216.139C414.652 217.792 415.192 219.511 415.715 221.271C423.169 223.938 435.772 228.75 439.302 236.235C442.715 243.474 437.584 247.38 438.014 252.532C438.676 260.48 449.487 265.844 446.088 275.046C444.548 279.214 438.878 283.24 441.129 288.115C442.038 290.084 443.981 291.382 445.623 292.704C452.496 298.24 453.432 304.337 450.672 312.547C450.386 313.397 450.074 314.216 449.677 315.021C456.353 322.789 463.656 331.972 462.907 342.853C462.796 344.466 462.443 346.07 462.021 347.628C463.843 347.617 465.666 347.593 467.488 347.603C468.11 347.686 468.677 347.768 469.308 347.69L469.584 347.998C462.925 348.711 456.306 350.108 449.656 350.995C450.079 347.964 451.694 341.009 450.304 338.482C449.232 337.733 446.797 338.336 445.533 338.562C429.872 341.426 414.24 344.444 398.638 347.616L364.205 354.135C350.723 356.748 337.173 359.014 323.709 361.737C310.741 364.493 297.809 367.416 284.916 370.504C276.569 372.516 268.166 374.167 259.799 376.065C257.073 376.684 254.011 377.062 251.377 377.936C255.759 377.923 262.044 376.476 266.596 375.842C275.692 374.587 284.821 373.575 293.971 372.807L412.265 362.733C426.528 361.313 440.8 359.976 455.079 358.722L471.112 357.195C474.061 356.917 477.037 356.522 480 356.427V371.873C471.694 372.295 463.358 373.569 455.07 374.329L380.875 381.847L302.298 390.022C294.493 390.912 286.579 391.457 278.81 392.579C279.656 395.915 280.821 399.161 281.888 402.43L287.557 419.648C294.152 439.719 301.034 459.784 307.153 480H172.651L202.06 392.437C198.123 392.261 194.159 391.699 190.239 391.272C183.306 390.524 176.378 389.719 169.458 388.857L130.346 384.323L0 370.273V358.564C8.98289 358.795 17.9998 359.836 26.9748 360.382C58.1409 362.374 89.2842 364.717 120.397 367.41L169.701 371.413C189.867 372.963 210.416 374.341 230.242 378.502C219.362 372.844 206.515 368.817 194.75 365.419C151.932 353.054 107.493 346.454 63.4383 340.264C60.563 339.86 46.5688 337.263 44.7819 338.251C43.7821 339.55 44.4268 341.852 44.6158 343.402C40.7375 343.463 36.8035 343.195 32.9401 342.867C36.6401 338.343 41.862 334.303 46.4811 330.765C62.5181 318.482 82.2309 313.802 102.119 316.454C102.412 314.071 102.346 311.67 102.138 309.285C91.2464 303.272 86.9597 297.943 81.5714 286.762C79.5928 286.26 77.5795 285.804 75.7092 284.969C71.4258 283.055 67.7245 279.185 66.0731 274.789C64.4611 270.497 63.9928 264.612 66.0286 260.381C67.3448 257.646 69.1425 256.436 71.8898 255.457C70.0842 251.087 70.7944 246.44 71.0854 241.872ZM390.416 203.045C399.988 205.468 408.141 210.481 413.191 219.093C413.321 219.316 413.429 219.524 413.587 219.727C411.643 213.706 406.909 208.546 401.272 205.683C398.207 204.125 393.859 202.88 390.416 203.045ZM127.771 230.488C121.81 230.965 98.2898 236.273 95.0944 239.745C93.3047 241.69 92.7276 248.223 91.8989 250.991C90.9483 254.167 89.5486 257.268 87.457 259.862C85.9237 261.764 84.0431 263.235 82.1498 264.755C84.5676 278.316 88.1259 292.318 100.052 300.683C104.031 303.474 108.569 305.564 113.346 306.522C122.83 308.448 132.692 306.539 140.772 301.211C149.452 295.433 154.754 285.493 156.732 275.453C157.774 270.16 157.721 255.089 156.38 249.708C155.898 247.776 155.017 245.979 153.908 244.33C150.083 238.64 141.934 232.124 135.097 230.858C132.729 230.42 130.171 230.22 127.771 230.488ZM172.614 233.148C172.059 235.961 170.028 238.843 170.332 241.643C171.912 239.929 173.124 237.713 173.034 235.305C173.006 234.55 173.059 233.768 172.614 233.148ZM364.923 239.336C362.328 243.022 358.66 245.738 354.686 247.811C349.125 250.711 342.829 252.532 336.879 254.474C334.679 255.192 332.157 255.784 330.096 256.823C329.241 257.254 328.373 257.815 328.014 258.742C326.981 261.416 328.986 272.033 329.55 275.289C331.728 287.856 337.8 301.866 348.55 309.365C355.086 313.924 361.202 315.318 369.036 315.682C376.01 316.046 385.215 312.468 390.368 307.805C400.827 298.342 405.087 283.241 405.733 269.557C405.939 265.197 405.333 258.086 402.202 254.797C398.133 250.522 387.866 249.197 382.198 247.654C379.833 247.01 377.488 246.177 375.208 245.276C372.693 244.282 370.431 243.023 368.191 241.512C367.152 240.811 366.064 239.842 364.923 239.336ZM162.744 260.953C162.922 264.107 163.002 267.312 162.784 270.466C162.634 272.625 162.255 274.759 162.114 276.918C162.794 276.29 163.515 275.68 164.149 275.007C165.959 272.188 167.035 269.031 166.233 265.643C165.844 264.003 164.58 262.044 163.109 261.142C162.992 261.07 162.866 261.016 162.744 260.953ZM72.2358 261.502C70.6767 263.755 70.3472 266.017 70.8234 268.709C71.4492 272.247 73.8131 275.975 76.7798 278.011C77.4633 278.475 78.1729 278.9 78.9051 279.282L79.4456 279.462C79.9467 277.906 75.6347 264.44 74.7811 262.186C73.9472 261.95 73.0894 261.645 72.2358 261.502ZM411.067 261.369C411.191 264.098 411.666 266.778 411.837 269.496C412.015 272.327 411.636 275.559 411.296 278.381C412.095 277.684 412.913 277.018 413.59 276.198C415.646 273.557 416.577 270.213 416.183 266.891C415.964 265.063 415.142 263.488 413.65 262.389C412.825 261.782 412.067 261.541 411.067 261.369ZM321.608 266.185C319.992 266.975 318.929 267.492 318.285 269.292C317.474 271.56 318.029 274.651 319.07 276.767C319.71 278.07 320.621 279.28 321.875 280.042L324.293 281.478C324.017 279.705 322.44 267.287 322.097 266.57C322.089 266.554 321.722 266.224 321.715 266.219C321.684 266.197 321.643 266.196 321.608 266.185ZM107.79 311.051C107.782 316.11 108.333 319.843 106.126 324.602C109.068 327.107 116.384 331.203 119.966 332.968L127.398 327.999C129.15 326.865 130.965 325.775 132.637 324.525C131.576 322.816 130.414 321.165 129.378 319.443C129.343 316.999 129.462 314.598 129.624 312.161C121.304 313.301 115.913 312.849 107.79 311.051ZM380.404 319.942C373.609 322.102 367.034 322.084 360.015 321.27C360.717 324.424 361.213 326.95 363.371 329.514C366.232 331.671 369.523 332.337 373.036 331.842C375.524 331.492 377.992 330.412 379.546 328.372C380.907 326.584 381.601 323.329 381.305 321.088C381.233 320.544 381.079 320.386 380.73 319.996L380.404 319.942ZM275.071 363.901C274.538 364.457 274.22 364.87 273.931 365.587L274.043 366.137C274.765 366.555 275.227 366.343 276.039 366.239C276.659 366.035 276.97 366.05 277.334 365.492C277.2 364.94 276.993 364.698 276.509 364.384C276.088 364.111 275.561 363.968 275.071 363.901Z" fill="#1D142B"/>
<path d="M413.587 219.727C413.43 219.524 413.321 219.316 413.191 219.093C408.141 210.481 399.988 205.468 390.416 203.045C393.859 202.88 398.207 204.125 401.273 205.683C406.909 208.546 411.644 213.706 413.587 219.727Z" fill="#FFAAFF"/>
<path d="M73.1055 216.17L73.4144 216.263C74.0683 217.183 74.9359 217.856 75.4895 218.85C75.5064 219.018 75.4398 219.249 75.4117 219.418C74.522 218.951 73.4125 217.129 73.1055 216.17Z" fill="#FFD2FF"/>
<path d="M73.4141 216.264C74.4894 216.586 75.2183 217.016 75.9889 217.839C75.8773 218.393 75.9027 218.479 75.4892 218.85C74.9356 217.856 74.068 217.183 73.4141 216.264Z" fill="#1D142B"/>
<path d="M82.1504 264.755C84.0437 263.235 85.9243 261.764 87.4576 259.862C89.5491 257.268 90.9488 254.167 91.8994 250.991C92.7282 248.223 93.3052 241.69 95.0949 239.745C98.2904 236.273 121.811 230.965 127.772 230.488C130.171 230.22 132.73 230.42 135.098 230.858C141.935 232.124 150.084 238.64 153.909 244.33C155.018 245.979 155.898 247.776 156.38 249.708C157.721 255.089 157.775 270.16 156.732 275.453C154.755 285.493 149.453 295.433 140.772 301.211C132.692 306.539 122.831 308.448 113.347 306.522C108.569 305.564 104.032 303.474 100.052 300.683C88.1265 292.318 84.5682 278.316 82.1504 264.755ZM141.374 250.148C138.927 250.562 135.797 251.326 134.207 253.423C133.878 253.858 133.915 254.114 133.903 254.633C134.205 255.156 134.313 255.427 134.967 255.562C136.687 255.917 139.232 254.137 140.883 253.678C141.736 253.441 142.771 253.525 143.652 253.545L143.943 253.596C145.831 253.951 148.827 256.471 150.309 255.458C150.587 255.268 150.591 255.005 150.689 254.702C150.429 253.297 149.521 252.372 148.357 251.594C146.144 250.117 143.945 249.952 141.374 250.148ZM102.737 251.518C100.01 252.174 96.7069 253.244 95.0743 255.71C94.7748 256.162 94.5409 256.701 94.6173 257.253C94.6571 257.537 94.6932 257.51 94.8863 257.749C95.5951 258.104 96.3015 258.012 97.0412 257.784C98.9241 257.205 100.326 255.398 102.407 254.782L102.718 254.741C107.222 254.182 108.086 256.41 110.231 256.539C110.651 256.565 111.199 256.261 111.498 255.981C111.659 255.354 111.672 255.11 111.301 254.551C110.223 252.923 107.346 251.702 105.471 251.494C104.573 251.395 103.637 251.47 102.737 251.518ZM141.533 261.126C139.113 261.607 137.549 263.966 138.046 266.382C138.544 268.798 140.914 270.346 143.326 269.831C144.497 269.581 145.518 268.87 146.157 267.858C146.723 266.961 146.949 265.893 146.797 264.844C146.621 263.639 145.958 262.558 144.963 261.855C143.968 261.152 142.728 260.888 141.533 261.126ZM103.373 262.697C102.181 263.119 101.221 264.023 100.731 265.188C100.029 266.851 100.392 268.771 101.65 270.065C102.908 271.358 104.818 271.774 106.5 271.119C108.786 270.229 109.936 267.669 109.081 265.369C108.227 263.069 105.686 261.879 103.373 262.697ZM121.412 262.469C120.623 262.713 120.045 262.862 119.465 263.467C119.02 264.425 119.137 265.236 119.521 266.199C120.448 268.521 123.653 272.325 123.471 274.734C123.154 275.29 123.046 275.541 122.4 275.772C121.111 276.234 119.982 275.439 118.946 276.832C118.642 277.242 118.447 277.802 118.6 278.305C118.839 279.089 119.425 279.637 120.165 279.955C120.438 280.072 120.501 280.089 120.76 280.178C123.016 279.764 125.526 279.359 126.879 277.272C127.703 276.002 127.77 274.507 127.407 273.07C126.897 271.048 123.344 263.397 121.637 262.552C121.566 262.517 121.487 262.497 121.412 262.469ZM135.912 283.808C129.288 287.016 119.524 288.95 112.337 286.541C110.611 285.962 108.795 284.562 106.975 285.503C106.537 285.73 106.185 286.062 106.047 286.547C105.583 288.167 106.886 290.185 107.77 291.461C108.656 292.74 109.689 293.857 110.817 294.924C114.826 298.068 119.183 299.614 124.309 298.957C128.754 298.388 132.96 295.82 135.67 292.276C137.05 290.473 138.729 287.794 138.427 285.445C138.354 284.888 138.115 284.309 137.613 284.005C137.131 283.713 136.444 283.765 135.912 283.808Z" fill="#401297"/>
<path d="M170.332 241.643C170.027 238.843 172.059 235.96 172.614 233.147C173.059 233.768 173.006 234.55 173.034 235.305C173.124 237.713 171.911 239.928 170.332 241.643Z" fill="#FFAAFF"/>
<path d="M369.035 315.682C361.201 315.318 355.085 313.924 348.549 309.365C337.799 301.866 331.728 287.856 329.55 275.289C328.986 272.033 326.981 261.416 328.014 258.742C328.372 257.815 329.241 257.254 330.095 256.823C332.157 255.784 334.678 255.192 336.878 254.474C342.828 252.532 349.125 250.711 354.685 247.811C358.66 245.738 362.327 243.022 364.922 239.336C366.063 239.842 367.152 240.811 368.191 241.512C370.431 243.023 372.692 244.282 375.207 245.276C377.487 246.177 379.833 247.01 382.198 247.654C387.865 249.197 398.133 250.522 402.202 254.797C405.333 258.086 405.939 265.197 405.733 269.558C405.086 283.241 400.827 298.342 390.368 307.805C385.215 312.468 376.01 316.046 369.035 315.682ZM386.937 255.13C384.689 255.188 380.227 255.78 378.621 257.474C378.291 257.822 378.081 258.252 378.121 258.74C378.17 259.354 378.559 260.031 379.103 260.352C380.248 261.029 383.688 259.386 385.134 259.169L385.487 259.128C387.823 258.867 392.843 260.467 394.389 258.861C394.525 258.328 394.625 258.088 394.284 257.585C393.116 255.863 389.708 255.266 387.784 255.166C387.502 255.152 387.22 255.14 386.937 255.13ZM347.736 257.193C344.409 257.678 339.722 258.71 337.654 261.653C337.205 262.292 337.076 262.813 337.17 263.598C337.494 264.058 337.642 264.269 338.259 264.348C339.39 264.492 340.297 263.618 341.084 262.948C342.262 262.27 343.324 261.701 344.677 261.428C346.279 261.106 352.042 261.66 352.435 259.993C352.56 259.463 352.412 259.155 352.251 258.653C351.36 257.584 349.818 257.37 348.499 257.24C348.245 257.215 347.99 257.205 347.736 257.193ZM384.815 267.272C383.295 267.847 382.367 268.452 381.285 269.657C380.984 271.668 380.862 273.465 382.212 275.175C382.95 276.11 384.234 276.781 385.418 276.897C385.906 276.945 386.433 276.948 386.922 276.917C388.569 276.051 389.983 275.003 390.563 273.145C390.894 272.086 390.769 270.994 390.253 270.017C389.61 268.797 388.296 267.754 386.979 267.36C386.311 267.161 385.783 267.343 385.13 267.321C385.024 267.318 384.92 267.288 384.815 267.272ZM344.442 269.07L341.851 271.598C341.567 273.576 341.459 275.608 342.803 277.276C343.588 278.25 344.726 278.73 345.958 278.799C346.468 278.827 346.962 278.723 347.456 278.612C348.848 278.046 349.79 277.24 350.356 275.816C350.928 274.372 350.79 272.652 350.106 271.27C349.592 270.231 348.752 269.724 347.814 269.112C346.694 269.084 345.561 269.018 344.442 269.07ZM365.619 269.741C363.738 271.291 360.098 280.852 359.13 283.671C359.866 285.474 360.659 286.957 362.567 287.753C364.4 288.52 366.487 288.236 368.39 287.916C369.155 287.455 369.892 286.912 370.157 286.012C370.262 285.657 370.111 285.401 370.011 285.06C368.783 283.81 367.052 283.795 365.394 283.74C365.129 283.562 364.898 283.514 364.827 283.177C364.181 280.119 371.132 273.081 368.191 270.387C367.512 269.766 366.485 269.722 365.619 269.741ZM381.567 292.366C374.822 293.264 367.849 293.494 361.054 293.889C358.628 294.03 355.904 293.792 353.555 294.362C353.292 294.426 353.03 294.485 352.767 294.553C353.94 298.391 355.611 300.705 358.835 303.051C362.849 305.429 366.93 306.443 371.532 305.289C376.45 304.054 381.018 300.972 383.645 296.578C384.323 295.444 384.702 294.482 384.508 293.16C384.178 292.682 384.045 292.365 383.41 292.268C382.878 292.186 382.112 292.321 381.567 292.366Z" fill="#401297"/>
<path d="M143.651 253.545C142.77 253.525 141.735 253.441 140.882 253.678C139.232 254.137 136.686 255.917 134.966 255.562C134.312 255.427 134.204 255.157 133.902 254.633C133.914 254.114 133.877 253.858 134.207 253.423C135.797 251.326 138.926 250.562 141.373 250.148C143.944 249.952 146.143 250.117 148.356 251.595C149.52 252.372 150.429 253.297 150.688 254.702C150.59 255.005 150.587 255.268 150.309 255.458C148.826 256.471 145.83 253.951 143.943 253.597L143.651 253.545Z" fill="#1D142B"/>
<path d="M102.406 254.782C100.325 255.398 98.923 257.206 97.0401 257.784C96.3004 258.012 95.594 258.105 94.8852 257.749C94.6921 257.51 94.656 257.537 94.6162 257.253C94.5398 256.701 94.7737 256.163 95.0732 255.71C96.7059 253.244 100.009 252.174 102.736 251.518C103.636 251.47 104.572 251.395 105.47 251.494C107.345 251.702 110.222 252.923 111.3 254.551C111.671 255.11 111.658 255.354 111.497 255.981C111.198 256.261 110.65 256.565 110.23 256.539C108.085 256.411 107.221 254.183 102.717 254.741L102.406 254.782Z" fill="#1D142B"/>
<path d="M220.705 263.262C221.705 262.324 222.982 261.65 224.116 260.881C227.09 258.864 227.364 256.543 228.761 253.453C230.534 254.319 231.199 257.312 232.548 258.767C234.045 260.381 236.671 260.76 237.972 262.29C237.194 263.259 236.076 263.81 235.054 264.489C232.142 266.425 231.875 268.99 230.491 271.974C226.036 266.596 227.908 266.272 220.705 263.262Z" fill="#9444E4"/>
<path d="M385.135 259.169C383.689 259.385 380.249 261.028 379.105 260.352C378.56 260.03 378.172 259.353 378.122 258.739C378.082 258.251 378.293 257.821 378.623 257.473C380.229 255.78 384.69 255.188 386.938 255.13C387.221 255.139 387.503 255.151 387.785 255.166C389.71 255.266 393.117 255.863 394.285 257.584C394.627 258.088 394.526 258.328 394.39 258.86C392.845 260.466 387.824 258.866 385.488 259.127L385.135 259.169Z" fill="#1D142B"/>
<path d="M341.086 262.948C340.299 263.618 339.391 264.492 338.261 264.348C337.644 264.269 337.496 264.058 337.172 263.598C337.077 262.813 337.206 262.292 337.655 261.653C339.724 258.71 344.411 257.678 347.737 257.193C347.992 257.206 348.247 257.215 348.501 257.24C349.82 257.37 351.361 257.584 352.253 258.654C352.414 259.156 352.561 259.463 352.437 259.993C352.044 261.66 346.281 261.106 344.678 261.429C343.326 261.701 342.264 262.27 341.086 262.948Z" fill="#1D142B"/>
<path d="M143.325 269.832C140.913 270.347 138.543 268.798 138.045 266.382C137.548 263.966 139.112 261.607 141.532 261.126C142.727 260.889 143.967 261.153 144.962 261.855C145.957 262.558 146.62 263.639 146.796 264.844C146.948 265.893 146.722 266.962 146.156 267.858C145.517 268.87 144.496 269.582 143.325 269.832Z" fill="#1D142B"/>
<path d="M162.113 276.918C162.254 274.759 162.633 272.625 162.783 270.466C163.001 267.312 162.921 264.107 162.743 260.953C162.865 261.016 162.991 261.07 163.108 261.142C164.579 262.044 165.843 264.003 166.232 265.644C167.034 269.031 165.958 272.188 164.148 275.007C163.514 275.68 162.793 276.29 162.113 276.918Z" fill="#401297"/>
<path d="M78.906 279.282C78.1739 278.9 77.4642 278.475 76.7807 278.011C73.814 275.975 71.4501 272.247 70.8243 268.709C70.3481 266.017 70.6776 263.755 72.2367 261.502C73.0903 261.645 73.9481 261.95 74.782 262.186C75.6356 264.44 79.9476 277.906 79.4465 279.462L78.906 279.282Z" fill="#401297"/>
<path d="M411.295 278.381C411.635 275.559 412.014 272.327 411.836 269.496C411.665 266.778 411.19 264.098 411.066 261.369C412.066 261.541 412.824 261.782 413.649 262.389C415.141 263.488 415.963 265.063 416.182 266.891C416.576 270.213 415.645 273.557 413.589 276.198C412.912 277.018 412.094 277.684 411.295 278.381Z" fill="#401297"/>
<path d="M100.73 265.188C101.221 264.023 102.18 263.119 103.372 262.697C105.685 261.879 108.227 263.069 109.081 265.369C109.935 267.669 108.785 270.229 106.499 271.119C104.817 271.774 102.907 271.359 101.649 270.065C100.391 268.771 100.029 266.851 100.73 265.188Z" fill="#1D142B"/>
<path d="M120.759 280.178C120.5 280.089 120.437 280.073 120.163 279.955C119.423 279.637 118.837 279.089 118.598 278.305C118.445 277.802 118.64 277.242 118.945 276.832C119.981 275.439 121.109 276.234 122.399 275.772C123.044 275.541 123.152 275.29 123.469 274.734C123.651 272.325 120.447 268.521 119.519 266.199C119.136 265.237 119.018 264.425 119.463 263.468C120.044 262.862 120.622 262.713 121.41 262.47C121.485 262.497 121.564 262.517 121.636 262.553C123.342 263.397 126.895 271.048 127.406 273.07C127.769 274.507 127.702 276.002 126.878 277.272C125.524 279.359 123.015 279.765 120.759 280.178Z" fill="#1D142B"/>
<path d="M321.874 280.041C320.62 279.28 319.71 278.07 319.069 276.767C318.028 274.651 317.474 271.559 318.285 269.292C318.929 267.492 319.992 266.975 321.607 266.185C321.643 266.196 321.684 266.197 321.715 266.219C321.722 266.224 322.088 266.554 322.096 266.57C322.439 267.287 324.016 279.705 324.293 281.478L321.874 280.041Z" fill="#401297"/>
<path d="M381.285 269.657C382.367 268.452 383.295 267.846 384.815 267.272C384.92 267.288 385.024 267.318 385.13 267.321C385.783 267.343 386.311 267.161 386.979 267.36C388.296 267.754 389.61 268.797 390.253 270.017C390.769 270.994 390.894 272.086 390.563 273.145C389.983 275.003 388.569 276.051 386.922 276.917C386.433 276.948 385.906 276.945 385.418 276.897C384.234 276.781 382.95 276.11 382.212 275.175C380.862 273.465 380.984 271.668 381.285 269.657Z" fill="#1D142B"/>
<path d="M21.6602 281.035C25.1084 275.532 26.3192 275.515 27.1575 268.55C28.9423 269.72 30.2187 271.471 31.9203 272.747C33.6831 274.069 36.4827 274.855 38.5043 275.762C37.9088 276.167 37.2885 276.538 36.6992 276.95C33.7254 279.028 33.0792 283.066 32.5388 286.387L32.4758 286.67C31.7491 286.362 31.2553 285.691 30.6982 285.139C27.6349 282.11 25.7626 281.665 21.6602 281.035Z" fill="#9444E4"/>
<path d="M341.851 271.598L344.441 269.07C345.561 269.018 346.694 269.084 347.814 269.112C348.752 269.724 349.592 270.23 350.106 271.27C350.79 272.651 350.928 274.372 350.356 275.816C349.79 277.24 348.848 278.046 347.455 278.612C346.962 278.723 346.467 278.827 345.958 278.799C344.726 278.73 343.587 278.25 342.803 277.276C341.459 275.607 341.567 273.575 341.851 271.598Z" fill="#1D142B"/>
<path d="M359.131 283.67C360.098 280.852 363.739 271.291 365.619 269.741C366.485 269.721 367.513 269.765 368.191 270.387C371.133 273.081 364.182 280.119 364.828 283.176C364.899 283.514 365.129 283.562 365.394 283.74C367.052 283.794 368.783 283.809 370.011 285.06C370.111 285.401 370.263 285.657 370.158 286.012C369.892 286.912 369.156 287.455 368.39 287.916C366.487 288.235 364.4 288.519 362.567 287.753C360.66 286.956 359.867 285.473 359.131 283.67Z" fill="#1D142B"/>
<path d="M110.817 294.924C109.688 293.857 108.655 292.741 107.769 291.461C106.886 290.185 105.583 288.167 106.046 286.547C106.184 286.062 106.536 285.73 106.974 285.503C108.794 284.562 110.61 285.962 112.336 286.541C119.523 288.95 129.288 287.017 135.911 283.808C136.443 283.765 137.13 283.713 137.613 284.005C138.114 284.309 138.354 284.888 138.426 285.445C138.729 287.794 137.05 290.473 135.67 292.276C132.959 295.82 128.754 298.388 124.309 298.958C119.182 299.614 114.825 298.068 110.817 294.924ZM132.095 289.718C125.061 291.607 118.31 292.194 111.256 289.935C112.12 290.731 112.977 291.535 113.87 292.299C117.309 294.528 120.808 295.505 124.907 294.61C127.336 294.079 131.249 292.303 132.546 290.081C132.577 290.027 132.598 289.967 132.624 289.91C132.229 289.68 132.415 289.708 132.095 289.718Z" fill="#1D142B"/>
<path d="M111.256 289.934C118.31 292.194 125.061 291.606 132.095 289.717C132.415 289.708 132.229 289.68 132.624 289.91C132.598 289.967 132.577 290.027 132.546 290.081C131.249 292.303 127.336 294.078 124.907 294.61C120.808 295.505 117.309 294.528 113.87 292.299C112.977 291.535 112.12 290.731 111.256 289.934Z" fill="#401297"/>
<path d="M352.768 294.553C353.03 294.485 353.292 294.426 353.555 294.362C355.904 293.793 358.629 294.03 361.054 293.889C367.849 293.494 374.822 293.264 381.568 292.367C382.113 292.321 382.878 292.186 383.411 292.268C384.045 292.365 384.179 292.682 384.508 293.16C384.702 294.482 384.323 295.445 383.646 296.578C381.019 300.973 376.451 304.055 371.532 305.289C366.931 306.444 362.849 305.429 358.835 303.051C355.611 300.705 353.941 298.391 352.768 294.553Z" fill="#1D142B"/>
<path d="M253.838 313.619C257.416 312.911 260.764 312.63 263.267 309.646C264.063 308.696 264.65 307.611 265.465 306.66L265.639 306.46C265.864 306.606 266.094 306.846 266.297 307.026C266.692 308.057 266.439 309.075 266.434 310.15C266.416 313.358 270.257 316.314 272.345 318.417C271.092 318.984 269.716 319.263 268.43 319.755C265.349 320.934 263.437 323.044 261.2 325.335C260.629 324.054 260.371 322.535 260.001 321.181C258.973 317.431 256.65 315.949 253.838 313.619Z" fill="#401297"/>
<path d="M106.125 324.602C108.332 319.843 107.782 316.111 107.789 311.051C115.913 312.849 121.303 313.301 129.623 312.161C129.461 314.598 129.342 316.999 129.377 319.443C130.413 321.166 131.575 322.816 132.636 324.526C130.965 325.775 129.15 326.866 127.397 327.999L119.965 332.968C116.383 331.203 109.067 327.107 106.125 324.602Z" fill="#401297"/>
<path d="M360.016 321.27C367.035 322.084 373.609 322.102 380.405 319.942L380.731 319.996C381.079 320.386 381.234 320.544 381.306 321.088C381.602 323.329 380.908 326.584 379.547 328.372C377.993 330.412 375.525 331.492 373.037 331.842C369.524 332.337 366.233 331.671 363.372 329.514C361.213 326.95 360.718 324.424 360.016 321.27Z" fill="#401297"/>
<path d="M0 340.673C7.28859 340.784 14.6295 341.603 21.9064 342.075C24.2587 342.227 31.0768 342.244 32.9401 342.867C36.8035 343.195 40.7375 343.463 44.6158 343.402C44.4268 341.852 43.7821 339.55 44.7819 338.251C46.5688 337.263 60.563 339.86 63.4383 340.264C107.493 346.454 151.932 353.054 194.75 365.419C206.515 368.817 219.362 372.844 230.242 378.502C210.416 374.341 189.867 372.963 169.701 371.413L120.397 367.41C89.2842 364.717 58.1409 362.374 26.9748 360.382C17.9998 359.836 8.98289 358.795 0 358.564V340.673Z" fill="#9444E4"/>
<path d="M467.488 347.603C468.738 347.484 470.011 347.705 471.282 347.604C474.216 347.37 477.118 346.69 480 346.104V356.427C477.038 356.522 474.061 356.917 471.113 357.195L455.079 358.722C440.8 359.976 426.529 361.313 412.265 362.733L293.972 372.807C284.821 373.575 275.693 374.587 266.596 375.842C262.045 376.476 255.759 377.923 251.377 377.936C254.012 377.061 257.073 376.684 259.799 376.065C268.166 374.167 276.569 372.516 284.916 370.504C297.809 367.416 310.741 364.493 323.709 361.737C337.174 359.014 350.723 356.748 364.205 354.135L398.639 347.616C414.24 344.444 429.873 341.426 445.534 338.562C446.798 338.336 449.233 337.733 450.304 338.481C451.695 341.009 450.079 347.964 449.656 350.995C456.306 350.108 462.926 348.711 469.585 347.998L469.308 347.69C468.678 347.768 468.11 347.686 467.488 347.603Z" fill="#9444E4"/>
<path d="M276.04 366.24C275.227 366.343 274.766 366.555 274.044 366.137L273.932 365.587C274.22 364.87 274.539 364.457 275.072 363.902C275.562 363.969 276.089 364.111 276.509 364.384C276.994 364.698 277.201 364.94 277.334 365.492C276.971 366.05 276.66 366.035 276.04 366.24Z" fill="#FFAAFF"/>
<path d="M0 370.273L130.346 384.324L169.458 388.857C176.378 389.72 183.306 390.524 190.239 391.272C194.159 391.7 198.123 392.261 202.06 392.437L172.651 480H0V370.273ZM25.2936 377.784C24.7159 378.234 24.1912 378.706 23.7388 379.285C21.3689 382.316 7.06631 403.873 6.86095 406.283C6.83123 406.632 6.85069 406.651 6.90469 406.946C8.60704 408.651 29.4934 419.71 32.8686 421.276C33.5803 421.606 34.2363 421.752 35.0135 421.816C35.6349 421.299 36.182 420.783 36.6489 420.119C39.4163 416.182 41.8396 411.917 44.4347 407.859C46.4334 404.734 52.9425 395.651 53.7703 392.78C53.2655 391.697 52.2778 390.942 51.2906 390.305C47.3053 387.733 40.7775 384.972 36.2535 382.658C33.318 381.157 30.3018 379.064 27.2142 377.972C26.5679 377.743 25.9668 377.751 25.2936 377.784ZM67.844 387.351C66.6079 394.711 65.4361 402.082 64.3284 409.462C63.6745 413.734 62.9123 418.02 62.4712 422.321C65.9086 423.079 69.607 423.162 73.1151 423.471C80.5026 424.123 87.9539 424.627 95.287 425.747C96.2522 421.16 96.7064 416.427 97.3828 411.788C98.399 404.824 99.5503 397.867 100.375 390.877C93.3745 390.119 86.3681 389.418 79.357 388.773C75.5911 388.4 71.5298 388.196 67.844 387.351Z" fill="#401297"/>
<path d="M278.811 392.579C286.58 391.456 294.493 390.912 302.298 390.022L380.876 381.847L455.07 374.329C463.358 373.569 471.694 372.294 480 371.873V480H307.154C301.034 459.784 294.153 439.719 287.558 419.648L281.889 402.429C280.821 399.16 279.656 395.915 278.811 392.579ZM465.503 385.399C461.33 386.07 444.883 388.709 441.984 390.234C440.818 391.914 443.003 401.416 443.427 403.761C443.699 405.273 443.929 407.437 445.227 408.413C445.642 408.456 445.971 408.505 446.386 408.432C449.568 407.93 452.697 407.17 455.863 406.581C459.904 405.828 466.603 405.364 470.119 403.469C471.014 402.021 468.317 390.519 467.802 388.289C467.605 387.436 467.366 386.251 466.62 385.696C466.287 385.449 465.898 385.436 465.503 385.399ZM423.885 396.605C418.339 397.86 414.951 400.079 411.902 404.869C409.087 401.048 405.462 397.691 400.594 396.908C397.712 396.445 394.675 397.072 392.339 398.858C389.893 400.728 388.509 403.488 388.17 406.512C388.108 407.079 388.055 407.647 388.011 408.216C385.671 407.592 383.051 406.742 380.8 408.136C379.558 408.905 378.878 410.232 378.603 411.631C378.065 414.367 378.605 417.43 379.055 420.14L379.836 424.767C387.604 423.796 395.345 422.229 403.061 420.901C408 420.052 424.423 417.859 428.189 415.758C428.84 414.884 428.661 413.615 428.507 412.596C428.173 410.38 425.771 398.089 424.901 396.741C424.505 396.543 424.32 396.545 423.885 396.605ZM463.713 413.743C459.174 414.573 454.63 415.376 450.081 416.152C447.161 416.629 444.003 416.867 441.178 417.704C440.535 417.895 440.316 418.054 439.895 418.572C439.785 419.145 439.782 419.614 440.151 420.112C440.495 420.575 440.882 420.677 441.433 420.656C441.854 420.641 442.328 420.499 442.742 420.409C445.75 419.94 464.874 417.261 466.142 415.787C466.255 415.212 466.282 414.991 465.968 414.445C465.706 413.989 465.186 413.678 464.673 413.625C464.403 413.596 463.968 413.702 463.713 413.743ZM465.867 420.771C460.812 421.73 436.975 425.055 434.383 426.838C434.196 427.406 434.295 427.694 434.462 428.258C434.983 428.741 435.258 428.912 436.005 428.897C436.078 428.896 436.152 428.888 436.226 428.882C443.673 427.636 451.111 426.332 458.539 424.973C460.864 424.533 463.315 424.436 465.594 423.804C466.392 423.582 467.034 423.352 467.572 422.696C467.652 422.116 467.54 421.71 467.156 421.239C466.969 421.009 466.857 420.936 466.641 420.765L465.867 420.771Z" fill="#401297"/>
<path d="M35.0141 421.815C34.2369 421.752 33.5809 421.605 32.8692 421.275C29.494 419.709 8.60765 408.651 6.9053 406.945C6.8513 406.651 6.83184 406.632 6.86156 406.283C7.06692 403.873 21.3695 382.315 23.7394 379.285C24.1919 378.706 24.7165 378.233 25.2942 377.784C25.9674 377.751 26.5685 377.743 27.2148 377.971C30.3024 379.064 33.3186 381.157 36.2541 382.658C40.7781 384.971 47.3059 387.732 51.2912 390.305C52.2784 390.942 53.2661 391.696 53.7709 392.78C52.9431 395.651 46.434 404.734 44.4353 407.859C41.8402 411.917 39.4169 416.182 36.6495 420.119C36.1826 420.783 35.6355 421.299 35.0141 421.815Z" fill="#9444E4"/>
<path d="M446.385 408.433C445.97 408.506 445.642 408.457 445.226 408.414C443.928 407.437 443.699 405.273 443.426 403.762C443.003 401.416 440.817 391.915 441.983 390.235C444.882 388.709 461.329 386.071 465.502 385.399C465.897 385.437 466.286 385.45 466.62 385.697C467.365 386.251 467.604 387.437 467.801 388.289C468.316 390.52 471.014 402.021 470.118 403.47C466.602 405.364 459.903 405.829 455.862 406.582C452.696 407.171 449.567 407.93 446.385 408.433Z" fill="#9444E4"/>
<path d="M62.4707 422.32C62.9118 418.019 63.674 413.733 64.3279 409.461C65.4355 402.081 66.6074 394.71 67.8435 387.351C71.5293 388.195 75.5905 388.4 79.3565 388.772C86.3676 389.417 93.374 390.119 100.374 390.877C99.5498 397.866 98.3985 404.823 97.3823 411.787C96.7058 416.426 96.2516 421.159 95.2865 425.746C87.9534 424.627 80.5021 424.122 73.1146 423.471C69.6065 423.161 65.908 423.078 62.4707 422.32Z" fill="#9444E4"/>
<path d="M411.901 404.869C414.95 400.078 418.338 397.86 423.884 396.605C424.319 396.545 424.504 396.543 424.9 396.741C425.77 398.089 428.172 410.38 428.506 412.596C428.66 413.615 428.839 414.884 428.188 415.758C424.422 417.859 407.999 420.051 403.06 420.901C395.344 422.229 387.603 423.796 379.835 424.767L379.054 420.14C378.604 417.43 378.064 414.367 378.602 411.63C378.877 410.232 379.557 408.905 380.799 408.136C383.05 406.742 385.67 407.592 388.01 408.216C388.054 407.647 388.107 407.079 388.169 406.512C388.508 403.488 389.893 400.728 392.338 398.857C394.674 397.071 397.711 396.445 400.593 396.908C405.461 397.691 409.086 401.047 411.901 404.869Z" fill="#9444E4"/>
<path d="M442.742 420.409C442.328 420.499 441.854 420.641 441.433 420.657C440.882 420.677 440.495 420.575 440.151 420.112C439.782 419.614 439.785 419.145 439.894 418.572C440.315 418.054 440.535 417.895 441.178 417.704C444.003 416.867 447.161 416.629 450.08 416.152C454.63 415.377 459.174 414.574 463.713 413.743C463.968 413.703 464.403 413.597 464.673 413.625C465.186 413.678 465.706 413.989 465.968 414.446C466.282 414.992 466.255 415.212 466.142 415.787C464.874 417.261 445.75 419.94 442.742 420.409Z" fill="#9444E4"/>
<path d="M436.225 428.882C436.151 428.888 436.078 428.896 436.004 428.897C435.257 428.912 434.982 428.741 434.462 428.258C434.295 427.694 434.195 427.406 434.383 426.838C436.974 425.055 460.811 421.73 465.866 420.771L466.641 420.765C466.856 420.936 466.968 421.009 467.155 421.239C467.539 421.71 467.651 422.116 467.572 422.696C467.034 423.352 466.391 423.582 465.593 423.804C463.314 424.436 460.863 424.533 458.538 424.973C451.11 426.332 443.672 427.636 436.225 428.882Z" fill="#9444E4"/>
</svg>
